<svg width="440" height="440" viewBox="0 0 440 440" fill="none" xmlns="http://www.w3.org/2000/svg">
<g filter="url(#filter0_in_1504_645)">
<rect width="440" height="440" rx="220" fill="#47678F"/>
<g filter="url(#filter1_i_1504_645)">
<rect x="195" y="195" width="50" height="50" rx="25" fill="#466993"/>
</g>
<g filter="url(#filter2_d_1504_645)">
<rect x="210" y="210" width="20" height="20" rx="10" fill="#4775AD"/>
</g>
<mask id="path-4-outside-1_1504_645" maskUnits="userSpaceOnUse" x="98" y="122" width="245" height="78" fill="black">
<rect fill="white" x="98" y="122" width="245" height="78"/>
<path d="M131.84 149.4H138.08V197.4H131.84V149.4ZM113.76 162.84V169.8H157.28V162.84H113.76ZM113.76 151.4V158.28H157.28V151.4H113.76ZM107.84 146.6H163.36V174.68H107.84V146.6ZM99.84 180.76H170.8V186.12H99.84V180.76ZM111.2 131V138.52H126.48V131H111.2ZM105.68 126.92H132.16V142.52H105.68V126.92ZM144 131V138.52H159.6V131H144ZM138.64 126.92H165.28V142.52H138.64V126.92ZM231.52 161.48H237.44V193.56H231.52V161.48ZM214 159.32H255.28V164.6H214V159.32ZM210.48 189.96H257.04V195.24H210.48V189.96ZM215.84 174.28H253.52V179.48H215.84V174.28ZM222.56 132.36V147.08H246.72V132.36H222.56ZM216.96 127.16H252.56V152.28H216.96V127.16ZM196.96 130.44H202.88V197.24H196.96V130.44ZM183.92 146.36H212.88V151.96H183.92V146.36ZM197.28 148.52L201.04 150.12C200.24 152.947 199.253 155.88 198.08 158.92C196.907 161.907 195.627 164.893 194.24 167.88C192.907 170.813 191.467 173.587 189.92 176.2C188.427 178.76 186.907 180.947 185.36 182.76C185.04 181.96 184.56 181.027 183.92 179.96C183.333 178.893 182.773 177.987 182.24 177.24C183.733 175.64 185.2 173.72 186.64 171.48C188.08 169.24 189.467 166.813 190.8 164.2C192.187 161.587 193.44 158.947 194.56 156.28C195.68 153.56 196.587 150.973 197.28 148.52ZM208.88 124.92L213.04 129.56C210.587 130.52 207.787 131.427 204.64 132.28C201.493 133.133 198.24 133.88 194.88 134.52C191.573 135.107 188.347 135.613 185.2 136.04C185.093 135.4 184.853 134.653 184.48 133.8C184.107 132.893 183.76 132.12 183.44 131.48C186.427 130.947 189.493 130.36 192.64 129.72C195.84 129.08 198.853 128.36 201.68 127.56C204.507 126.707 206.907 125.827 208.88 124.92ZM202.56 156.6C203.093 157.08 203.867 157.853 204.88 158.92C205.947 159.933 207.093 161.053 208.32 162.28C209.547 163.453 210.64 164.573 211.6 165.64C212.613 166.707 213.333 167.48 213.76 167.96L210.16 172.68C209.68 171.88 208.987 170.867 208.08 169.64C207.227 168.413 206.267 167.107 205.2 165.72C204.133 164.333 203.12 163.053 202.16 161.88C201.2 160.707 200.4 159.773 199.76 159.08L202.56 156.6ZM316.48 182.44L320.8 179.4C322.987 180.52 325.28 181.827 327.68 183.32C330.133 184.813 332.453 186.307 334.64 187.8C336.88 189.293 338.72 190.653 340.16 191.88L335.52 195.48C334.187 194.253 332.453 192.867 330.32 191.32C328.187 189.827 325.893 188.28 323.44 186.68C321.04 185.08 318.72 183.667 316.48 182.44ZM278.8 161.8H330.96V166.6H278.8V161.8ZM269.12 172.12H340.72V177.16H269.12V172.12ZM270 127H339.12V131.96H270V127ZM301.84 173.08H307.92V191C307.92 192.6 307.707 193.8 307.28 194.6C306.853 195.453 306.027 196.093 304.8 196.52C303.627 196.947 302.053 197.213 300.08 197.32C298.16 197.427 295.76 197.48 292.88 197.48C292.773 196.68 292.533 195.773 292.16 194.76C291.787 193.747 291.387 192.84 290.96 192.04C293.253 192.093 295.253 192.12 296.96 192.12C298.667 192.173 299.813 192.173 300.4 192.12C300.987 192.12 301.36 192.013 301.52 191.8C301.733 191.64 301.84 191.32 301.84 190.84V173.08ZM286.48 179.16L292.08 181.08C290.48 183 288.613 184.893 286.48 186.76C284.347 188.627 282.107 190.36 279.76 191.96C277.467 193.56 275.2 194.947 272.96 196.12C272.64 195.747 272.187 195.293 271.6 194.76C271.067 194.28 270.507 193.8 269.92 193.32C269.333 192.84 268.8 192.44 268.32 192.12C271.733 190.573 275.093 188.68 278.4 186.44C281.707 184.147 284.4 181.72 286.48 179.16ZM280.4 142.76V151.96H329.36V142.76H280.4ZM274.8 138.12H335.28V156.6H274.8V138.12ZM292.56 128.84H298.08V154.44H292.56V128.84ZM310.8 128.84H316.48V154.44H310.8V128.84Z"/>
</mask>
<path d="M131.84 149.4V147.8H130.24V149.4H131.84ZM138.08 149.4H139.68V147.8H138.08V149.4ZM138.08 197.4V199H139.68V197.4H138.08ZM131.84 197.4H130.24V199H131.84V197.4ZM113.76 162.84V161.24H112.16V162.84H113.76ZM113.76 169.8H112.16V171.4H113.76V169.8ZM157.28 169.8V171.4H158.88V169.8H157.28ZM157.28 162.84H158.88V161.24H157.28V162.84ZM113.76 151.4V149.8H112.16V151.4H113.76ZM113.76 158.28H112.16V159.88H113.76V158.28ZM157.28 158.28V159.88H158.88V158.28H157.28ZM157.28 151.4H158.88V149.8H157.28V151.4ZM107.84 146.6V145H106.24V146.6H107.84ZM163.36 146.6H164.96V145H163.36V146.6ZM163.36 174.68V176.28H164.96V174.68H163.36ZM107.84 174.68H106.24V176.28H107.84V174.68ZM99.84 180.76V179.16H98.24V180.76H99.84ZM170.8 180.76H172.4V179.16H170.8V180.76ZM170.8 186.12V187.72H172.4V186.12H170.8ZM99.84 186.12H98.24V187.72H99.84V186.12ZM111.2 131V129.4H109.6V131H111.2ZM111.2 138.52H109.6V140.12H111.2V138.52ZM126.48 138.52V140.12H128.08V138.52H126.48ZM126.48 131H128.08V129.4H126.48V131ZM105.68 126.92V125.32H104.08V126.92H105.68ZM132.16 126.92H133.76V125.32H132.16V126.92ZM132.16 142.52V144.12H133.76V142.52H132.16ZM105.68 142.52H104.08V144.12H105.68V142.52ZM144 131V129.4H142.4V131H144ZM144 138.52H142.4V140.12H144V138.52ZM159.6 138.52V140.12H161.2V138.52H159.6ZM159.6 131H161.2V129.4H159.6V131ZM138.64 126.92V125.32H137.04V126.92H138.64ZM165.28 126.92H166.88V125.32H165.28V126.92ZM165.28 142.52V144.12H166.88V142.52H165.28ZM138.64 142.52H137.04V144.12H138.64V142.52ZM131.84 149.4V151H138.08V149.4V147.8H131.84V149.4ZM138.08 149.4H136.48V197.4H138.08H139.68V149.4H138.08ZM138.08 197.4V195.8H131.84V197.4V199H138.08V197.4ZM131.84 197.4H133.44V149.4H131.84H130.24V197.4H131.84ZM113.76 162.84H112.16V169.8H113.76H115.36V162.84H113.76ZM113.76 169.8V171.4H157.28V169.8V168.2H113.76V169.8ZM157.28 169.8H158.88V162.84H157.28H155.68V169.8H157.28ZM157.28 162.84V161.24H113.76V162.84V164.44H157.28V162.84ZM113.76 151.4H112.16V158.28H113.76H115.36V151.4H113.76ZM113.76 158.28V159.88H157.28V158.28V156.68H113.76V158.28ZM157.28 158.28H158.88V151.4H157.28H155.68V158.28H157.28ZM157.28 151.4V149.8H113.76V151.4V153H157.28V151.4ZM107.84 146.6V148.2H163.36V146.6V145H107.84V146.6ZM163.36 146.6H161.76V174.68H163.36H164.96V146.6H163.36ZM163.36 174.68V173.08H107.84V174.68V176.28H163.36V174.68ZM107.84 174.68H109.44V146.6H107.84H106.24V174.68H107.84ZM99.84 180.76V182.36H170.8V180.76V179.16H99.84V180.76ZM170.8 180.76H169.2V186.12H170.8H172.4V180.76H170.8ZM170.8 186.12V184.52H99.84V186.12V187.72H170.8V186.12ZM99.84 186.12H101.44V180.76H99.84H98.24V186.12H99.84ZM111.2 131H109.6V138.52H111.2H112.8V131H111.2ZM111.2 138.52V140.12H126.48V138.52V136.92H111.2V138.52ZM126.48 138.52H128.08V131H126.48H124.88V138.52H126.48ZM126.48 131V129.4H111.2V131V132.6H126.48V131ZM105.68 126.92V128.52H132.16V126.92V125.32H105.68V126.92ZM132.16 126.92H130.56V142.52H132.16H133.76V126.92H132.16ZM132.16 142.52V140.92H105.68V142.52V144.12H132.16V142.52ZM105.68 142.52H107.28V126.92H105.68H104.08V142.52H105.68ZM144 131H142.4V138.52H144H145.6V131H144ZM144 138.52V140.12H159.6V138.52V136.92H144V138.52ZM159.6 138.52H161.2V131H159.6H158V138.52H159.6ZM159.6 131V129.4H144V131V132.6H159.6V131ZM138.64 126.92V128.52H165.28V126.92V125.32H138.64V126.92ZM165.28 126.92H163.68V142.52H165.28H166.88V126.92H165.28ZM165.28 142.52V140.92H138.64V142.52V144.12H165.28V142.52ZM138.64 142.52H140.24V126.92H138.64H137.04V142.52H138.64ZM231.52 161.48V159.88H229.92V161.48H231.52ZM237.44 161.48H239.04V159.88H237.44V161.48ZM237.44 193.56V195.16H239.04V193.56H237.44ZM231.52 193.56H229.92V195.16H231.52V193.56ZM214 159.32V157.72H212.4V159.32H214ZM255.28 159.32H256.88V157.72H255.28V159.32ZM255.28 164.6V166.2H256.88V164.6H255.28ZM214 164.6H212.4V166.2H214V164.6ZM210.48 189.96V188.36H208.88V189.96H210.48ZM257.04 189.96H258.64V188.36H257.04V189.96ZM257.04 195.24V196.84H258.64V195.24H257.04ZM210.48 195.24H208.88V196.84H210.48V195.24ZM215.84 174.28V172.68H214.24V174.28H215.84ZM253.52 174.28H255.12V172.68H253.52V174.28ZM253.52 179.48V181.08H255.12V179.48H253.52ZM215.84 179.48H214.24V181.08H215.84V179.48ZM222.56 132.36V130.76H220.96V132.36H222.56ZM222.56 147.08H220.96V148.68H222.56V147.08ZM246.72 147.08V148.68H248.32V147.08H246.72ZM246.72 132.36H248.32V130.76H246.72V132.36ZM216.96 127.16V125.56H215.36V127.16H216.96ZM252.56 127.16H254.16V125.56H252.56V127.16ZM252.56 152.28V153.88H254.16V152.28H252.56ZM216.96 152.28H215.36V153.88H216.96V152.28ZM196.96 130.44V128.84H195.36V130.44H196.96ZM202.88 130.44H204.48V128.84H202.88V130.44ZM202.88 197.24V198.84H204.48V197.24H202.88ZM196.96 197.24H195.36V198.84H196.96V197.24ZM183.92 146.36V144.76H182.32V146.36H183.92ZM212.88 146.36H214.48V144.76H212.88V146.36ZM212.88 151.96V153.56H214.48V151.96H212.88ZM183.92 151.96H182.32V153.56H183.92V151.96ZM197.28 148.52L197.906 147.048L196.234 146.336L195.74 148.085L197.28 148.52ZM201.04 150.12L202.58 150.556L202.963 149.2L201.666 148.648L201.04 150.12ZM198.08 158.92L199.569 159.505L199.573 159.496L198.08 158.92ZM194.24 167.88L192.789 167.206L192.783 167.218L194.24 167.88ZM189.92 176.2L188.543 175.385L188.538 175.394L189.92 176.2ZM185.36 182.76L183.874 183.354L184.858 185.814L186.577 183.798L185.36 182.76ZM183.92 179.96L182.518 180.731L182.533 180.757L182.548 180.783L183.92 179.96ZM182.24 177.24L181.07 176.148L180.177 177.105L180.938 178.17L182.24 177.24ZM186.64 171.48L185.294 170.615V170.615L186.64 171.48ZM190.8 164.2L189.387 163.45L189.381 163.461L189.375 163.473L190.8 164.2ZM194.56 156.28L196.035 156.9L196.039 156.889L194.56 156.28ZM208.88 124.92L210.071 123.852L209.284 122.974L208.212 123.466L208.88 124.92ZM213.04 129.56L213.623 131.05L215.771 130.209L214.231 128.492L213.04 129.56ZM204.64 132.28L205.059 133.824V133.824L204.64 132.28ZM194.88 134.52L195.16 136.095L195.169 136.094L195.179 136.092L194.88 134.52ZM185.2 136.04L183.622 136.303L183.877 137.834L185.415 137.625L185.2 136.04ZM184.48 133.8L183.001 134.409L183.007 134.425L183.014 134.441L184.48 133.8ZM183.44 131.48L183.159 129.905L181.052 130.281L182.009 132.196L183.44 131.48ZM192.64 129.72L192.326 128.151L192.321 128.152L192.64 129.72ZM201.68 127.56L202.116 129.1L202.129 129.096L202.142 129.092L201.68 127.56ZM202.56 156.6L203.63 155.411L202.569 154.455L201.499 155.402L202.56 156.6ZM204.88 158.92L203.72 160.022L203.748 160.052L203.778 160.08L204.88 158.92ZM208.32 162.28L207.189 163.411L207.201 163.424L207.214 163.436L208.32 162.28ZM211.6 165.64L210.411 166.71L210.425 166.726L210.44 166.742L211.6 165.64ZM213.76 167.96L215.032 168.93L215.832 167.882L214.956 166.897L213.76 167.96ZM210.16 172.68L208.788 173.503L210.002 175.526L211.432 173.65L210.16 172.68ZM208.08 169.64L206.767 170.554L206.78 170.573L206.793 170.591L208.08 169.64ZM205.2 165.72L206.468 164.744V164.744L205.2 165.72ZM202.16 161.88L203.398 160.867V160.867L202.16 161.88ZM199.76 159.08L198.699 157.882L197.477 158.965L198.584 160.165L199.76 159.08ZM231.52 161.48V163.08H237.44V161.48V159.88H231.52V161.48ZM237.44 161.48H235.84V193.56H237.44H239.04V161.48H237.44ZM237.44 193.56V191.96H231.52V193.56V195.16H237.44V193.56ZM231.52 193.56H233.12V161.48H231.52H229.92V193.56H231.52ZM214 159.32V160.92H255.28V159.32V157.72H214V159.32ZM255.28 159.32H253.68V164.6H255.28H256.88V159.32H255.28ZM255.28 164.6V163H214V164.6V166.2H255.28V164.6ZM214 164.6H215.6V159.32H214H212.4V164.6H214ZM210.48 189.96V191.56H257.04V189.96V188.36H210.48V189.96ZM257.04 189.96H255.44V195.24H257.04H258.64V189.96H257.04ZM257.04 195.24V193.64H210.48V195.24V196.84H257.04V195.24ZM210.48 195.24H212.08V189.96H210.48H208.88V195.24H210.48ZM215.84 174.28V175.88H253.52V174.28V172.68H215.84V174.28ZM253.52 174.28H251.92V179.48H253.52H255.12V174.28H253.52ZM253.52 179.48V177.88H215.84V179.48V181.08H253.52V179.48ZM215.84 179.48H217.44V174.28H215.84H214.24V179.48H215.84ZM222.56 132.36H220.96V147.08H222.56H224.16V132.36H222.56ZM222.56 147.08V148.68H246.72V147.08V145.48H222.56V147.08ZM246.72 147.08H248.32V132.36H246.72H245.12V147.08H246.72ZM246.72 132.36V130.76H222.56V132.36V133.96H246.72V132.36ZM216.96 127.16V128.76H252.56V127.16V125.56H216.96V127.16ZM252.56 127.16H250.96V152.28H252.56H254.16V127.16H252.56ZM252.56 152.28V150.68H216.96V152.28V153.88H252.56V152.28ZM216.96 152.28H218.56V127.16H216.96H215.36V152.28H216.96ZM196.96 130.44V132.04H202.88V130.44V128.84H196.96V130.44ZM202.88 130.44H201.28V197.24H202.88H204.48V130.44H202.88ZM202.88 197.24V195.64H196.96V197.24V198.84H202.88V197.24ZM196.96 197.24H198.56V130.44H196.96H195.36V197.24H196.96ZM183.92 146.36V147.96H212.88V146.36V144.76H183.92V146.36ZM212.88 146.36H211.28V151.96H212.88H214.48V146.36H212.88ZM212.88 151.96V150.36H183.92V151.96V153.56H212.88V151.96ZM183.92 151.96H185.52V146.36H183.92H182.32V151.96H183.92ZM197.28 148.52L196.654 149.992L200.414 151.592L201.04 150.12L201.666 148.648L197.906 147.048L197.28 148.52ZM201.04 150.12L199.5 149.684C198.715 152.459 197.745 155.345 196.587 158.344L198.08 158.92L199.573 159.496C200.762 156.415 201.765 153.435 202.58 150.556L201.04 150.12ZM198.08 158.92L196.591 158.335C195.43 161.291 194.162 164.248 192.789 167.206L194.24 167.88L195.691 168.554C197.091 165.539 198.384 162.522 199.569 159.505L198.08 158.92ZM194.24 167.88L192.783 167.218C191.472 170.102 190.059 172.824 188.543 175.385L189.92 176.2L191.297 177.015C192.875 174.349 194.341 171.525 195.697 168.542L194.24 167.88ZM189.92 176.2L188.538 175.394C187.081 177.891 185.615 179.996 184.143 181.722L185.36 182.76L186.577 183.798C188.198 181.898 189.772 179.629 191.302 177.006L189.92 176.2ZM185.36 182.76L186.846 182.166C186.483 181.26 185.958 180.248 185.292 179.137L183.92 179.96L182.548 180.783C183.162 181.806 183.597 182.66 183.874 183.354L185.36 182.76ZM183.92 179.96L185.322 179.189C184.714 178.084 184.121 177.121 183.542 176.31L182.24 177.24L180.938 178.17C181.425 178.852 181.952 179.703 182.518 180.731L183.92 179.96ZM182.24 177.24L183.41 178.332C184.981 176.649 186.505 174.649 187.986 172.345L186.64 171.48L185.294 170.615C183.895 172.791 182.486 174.631 181.07 176.148L182.24 177.24ZM186.64 171.48L187.986 172.345C189.457 170.056 190.87 167.583 192.225 164.927L190.8 164.2L189.375 163.473C188.063 166.044 186.703 168.424 185.294 170.615L186.64 171.48ZM190.8 164.2L192.213 164.95C193.622 162.295 194.896 159.612 196.035 156.9L194.56 156.28L193.085 155.66C191.984 158.282 190.751 160.878 189.387 163.45L190.8 164.2ZM194.56 156.28L196.039 156.889C197.179 154.121 198.107 151.476 198.82 148.955L197.28 148.52L195.74 148.085C195.066 150.471 194.181 152.999 193.081 155.671L194.56 156.28ZM208.88 124.92L207.689 125.988L211.849 130.628L213.04 129.56L214.231 128.492L210.071 123.852L208.88 124.92ZM213.04 129.56L212.457 128.07C210.068 129.005 207.325 129.894 204.221 130.736L204.64 132.28L205.059 133.824C208.249 132.959 211.105 132.035 213.623 131.05L213.04 129.56ZM204.64 132.28L204.221 130.736C201.116 131.578 197.902 132.316 194.581 132.948L194.88 134.52L195.179 136.092C198.578 135.444 201.871 134.689 205.059 133.824L204.64 132.28ZM194.88 134.52L194.6 132.945C191.314 133.528 188.109 134.031 184.985 134.455L185.2 136.04L185.415 137.625C188.584 137.196 191.833 136.686 195.16 136.095L194.88 134.52ZM185.2 136.04L186.778 135.777C186.643 134.964 186.351 134.085 185.946 133.159L184.48 133.8L183.014 134.441C183.355 135.221 183.544 135.836 183.622 136.303L185.2 136.04ZM184.48 133.8L185.959 133.191C185.576 132.26 185.214 131.449 184.871 130.764L183.44 131.48L182.009 132.196C182.306 132.791 182.637 133.526 183.001 134.409L184.48 133.8ZM183.44 131.48L183.721 133.055C186.721 132.519 189.8 131.93 192.959 131.288L192.64 129.72L192.321 128.152C189.186 128.79 186.132 129.374 183.159 129.905L183.44 131.48ZM192.64 129.72L192.954 131.289C196.19 130.642 199.245 129.912 202.116 129.1L201.68 127.56L201.244 126.02C198.462 126.808 195.49 127.518 192.326 128.151L192.64 129.72ZM201.68 127.56L202.142 129.092C205.016 128.224 207.489 127.32 209.548 126.374L208.88 124.92L208.212 123.466C206.324 124.333 203.997 125.189 201.218 126.028L201.68 127.56ZM202.56 156.6L201.49 157.789C201.974 158.225 202.712 158.961 203.72 160.022L204.88 158.92L206.04 157.818C205.021 156.746 204.212 155.935 203.63 155.411L202.56 156.6ZM204.88 158.92L203.778 160.08C204.833 161.082 205.97 162.193 207.189 163.411L208.32 162.28L209.451 161.149C208.217 159.914 207.06 158.784 205.982 157.76L204.88 158.92ZM208.32 162.28L207.214 163.436C208.417 164.587 209.482 165.678 210.411 166.71L211.6 165.64L212.789 164.57C211.798 163.469 210.676 162.32 209.426 161.124L208.32 162.28ZM211.6 165.64L210.44 166.742C211.453 167.808 212.157 168.565 212.564 169.023L213.76 167.96L214.956 166.897C214.51 166.395 213.774 165.605 212.76 164.538L211.6 165.64ZM213.76 167.96L212.488 166.99L208.888 171.71L210.16 172.68L211.432 173.65L215.032 168.93L213.76 167.96ZM210.16 172.68L211.532 171.857C211.014 170.994 210.287 169.935 209.367 168.689L208.08 169.64L206.793 170.591C207.686 171.799 208.346 172.766 208.788 173.503L210.16 172.68ZM208.08 169.64L209.393 168.726C208.523 167.475 207.548 166.148 206.468 164.744L205.2 165.72L203.932 166.696C204.985 168.065 205.93 169.351 206.767 170.554L208.08 169.64ZM205.2 165.72L206.468 164.744C205.393 163.347 204.37 162.054 203.398 160.867L202.16 161.88L200.922 162.893C201.87 164.052 202.873 165.32 203.932 166.696L205.2 165.72ZM202.16 161.88L203.398 160.867C202.429 159.682 201.606 158.721 200.936 157.995L199.76 159.08L198.584 160.165C199.194 160.826 199.971 161.732 200.922 162.893L202.16 161.88ZM199.76 159.08L200.821 160.278L203.621 157.798L202.56 156.6L201.499 155.402L198.699 157.882L199.76 159.08ZM316.48 182.44L315.559 181.132L313.459 182.61L315.712 183.843L316.48 182.44ZM320.8 179.4L321.529 177.976L320.669 177.535L319.879 178.092L320.8 179.4ZM327.68 183.32L326.835 184.678L326.841 184.683L326.848 184.687L327.68 183.32ZM334.64 187.8L333.738 189.121L333.745 189.126L333.752 189.131L334.64 187.8ZM340.16 191.88L341.141 193.144L342.695 191.938L341.198 190.662L340.16 191.88ZM335.52 195.48L334.437 196.657L335.432 197.573L336.501 196.744L335.52 195.48ZM330.32 191.32L331.259 190.025L331.248 190.017L331.238 190.009L330.32 191.32ZM323.44 186.68L322.552 188.011L322.559 188.016L322.566 188.02L323.44 186.68ZM278.8 161.8V160.2H277.2V161.8H278.8ZM330.96 161.8H332.56V160.2H330.96V161.8ZM330.96 166.6V168.2H332.56V166.6H330.96ZM278.8 166.6H277.2V168.2H278.8V166.6ZM269.12 172.12V170.52H267.52V172.12H269.12ZM340.72 172.12H342.32V170.52H340.72V172.12ZM340.72 177.16V178.76H342.32V177.16H340.72ZM269.12 177.16H267.52V178.76H269.12V177.16ZM270 127V125.4H268.4V127H270ZM339.12 127H340.72V125.4H339.12V127ZM339.12 131.96V133.56H340.72V131.96H339.12ZM270 131.96H268.4V133.56H270V131.96ZM301.84 173.08V171.48H300.24V173.08H301.84ZM307.92 173.08H309.52V171.48H307.92V173.08ZM307.28 194.6L305.868 193.847L305.858 193.866L305.849 193.884L307.28 194.6ZM304.8 196.52L304.274 195.009L304.264 195.012L304.253 195.016L304.8 196.52ZM300.08 197.32L299.994 195.722L299.991 195.722L300.08 197.32ZM292.88 197.48L291.294 197.691L291.479 199.08H292.88V197.48ZM292.16 194.76L290.659 195.313V195.313L292.16 194.76ZM290.96 192.04L290.997 190.44L288.26 190.377L289.548 192.793L290.96 192.04ZM296.96 192.12L297.01 190.521L296.985 190.52H296.96V192.12ZM300.4 192.12V190.52H300.327L300.255 190.527L300.4 192.12ZM301.52 191.8L300.56 190.52L300.377 190.657L300.24 190.84L301.52 191.8ZM286.48 179.16L286.999 177.646L285.942 177.284L285.238 178.151L286.48 179.16ZM292.08 181.08L293.309 182.104L294.796 180.32L292.599 179.566L292.08 181.08ZM286.48 186.76L287.534 187.964V187.964L286.48 186.76ZM279.76 191.96L278.859 190.638L278.852 190.643L278.845 190.648L279.76 191.96ZM272.96 196.12L271.745 197.161L272.574 198.128L273.702 197.537L272.96 196.12ZM271.6 194.76L272.676 193.576L272.67 193.571L271.6 194.76ZM269.92 193.32L270.933 192.082V192.082L269.92 193.32ZM268.32 192.12L267.66 190.663L265.034 191.852L267.432 193.451L268.32 192.12ZM278.4 186.44L279.297 187.765L279.305 187.76L279.312 187.755L278.4 186.44ZM280.4 142.76V141.16H278.8V142.76H280.4ZM280.4 151.96H278.8V153.56H280.4V151.96ZM329.36 151.96V153.56H330.96V151.96H329.36ZM329.36 142.76H330.96V141.16H329.36V142.76ZM274.8 138.12V136.52H273.2V138.12H274.8ZM335.28 138.12H336.88V136.52H335.28V138.12ZM335.28 156.6V158.2H336.88V156.6H335.28ZM274.8 156.6H273.2V158.2H274.8V156.6ZM292.56 128.84V127.24H290.96V128.84H292.56ZM298.08 128.84H299.68V127.24H298.08V128.84ZM298.08 154.44V156.04H299.68V154.44H298.08ZM292.56 154.44H290.96V156.04H292.56V154.44ZM310.8 128.84V127.24H309.2V128.84H310.8ZM316.48 128.84H318.08V127.24H316.48V128.84ZM316.48 154.44V156.04H318.08V154.44H316.48ZM310.8 154.44H309.2V156.04H310.8V154.44ZM316.48 182.44L317.401 183.748L321.721 180.708L320.8 179.4L319.879 178.092L315.559 181.132L316.48 182.44ZM320.8 179.4L320.071 180.824C322.212 181.921 324.467 183.205 326.835 184.678L327.68 183.32L328.525 181.962C326.093 180.448 323.761 179.119 321.529 177.976L320.8 179.4ZM327.68 183.32L326.848 184.687C329.28 186.167 331.576 187.645 333.738 189.121L334.64 187.8L335.542 186.479C333.331 184.968 330.987 183.46 328.512 181.953L327.68 183.32ZM334.64 187.8L333.752 189.131C335.96 190.603 337.745 191.925 339.122 193.098L340.16 191.88L341.198 190.662C339.695 189.382 337.8 187.984 335.528 186.469L334.64 187.8ZM340.16 191.88L339.179 190.616L334.539 194.216L335.52 195.48L336.501 196.744L341.141 193.144L340.16 191.88ZM335.52 195.48L336.603 194.303C335.209 193.02 333.422 191.593 331.259 190.025L330.32 191.32L329.381 192.615C331.484 194.14 333.164 195.487 334.437 196.657L335.52 195.48ZM330.32 191.32L331.238 190.009C329.088 188.505 326.78 186.948 324.314 185.34L323.44 186.68L322.566 188.02C325.006 189.612 327.285 191.149 329.402 192.631L330.32 191.32ZM323.44 186.68L324.328 185.349C321.894 183.726 319.534 182.288 317.249 181.037L316.48 182.44L315.712 183.843C317.906 185.045 320.186 186.434 322.552 188.011L323.44 186.68ZM278.8 161.8V163.4H330.96V161.8V160.2H278.8V161.8ZM330.96 161.8H329.36V166.6H330.96H332.56V161.8H330.96ZM330.96 166.6V165H278.8V166.6V168.2H330.96V166.6ZM278.8 166.6H280.4V161.8H278.8H277.2V166.6H278.8ZM269.12 172.12V173.72H340.72V172.12V170.52H269.12V172.12ZM340.72 172.12H339.12V177.16H340.72H342.32V172.12H340.72ZM340.72 177.16V175.56H269.12V177.16V178.76H340.72V177.16ZM269.12 177.16H270.72V172.12H269.12H267.52V177.16H269.12ZM270 127V128.6H339.12V127V125.4H270V127ZM339.12 127H337.52V131.96H339.12H340.72V127H339.12ZM339.12 131.96V130.36H270V131.96V133.56H339.12V131.96ZM270 131.96H271.6V127H270H268.4V131.96H270ZM301.84 173.08V174.68H307.92V173.08V171.48H301.84V173.08ZM307.92 173.08H306.32V191H307.92H309.52V173.08H307.92ZM307.92 191H306.32C306.32 192.51 306.11 193.394 305.868 193.847L307.28 194.6L308.692 195.353C309.304 194.206 309.52 192.69 309.52 191H307.92ZM307.28 194.6L305.849 193.884C305.668 194.247 305.252 194.669 304.274 195.009L304.8 196.52L305.326 198.031C306.801 197.518 308.039 196.66 308.711 195.316L307.28 194.6ZM304.8 196.52L304.253 195.016C303.288 195.367 301.89 195.62 299.994 195.722L300.08 197.32L300.166 198.918C302.217 198.807 303.965 198.526 305.347 198.024L304.8 196.52ZM300.08 197.32L299.991 195.722C298.111 195.827 295.743 195.88 292.88 195.88V197.48V199.08C295.777 199.08 298.209 199.026 300.169 198.918L300.08 197.32ZM292.88 197.48L294.466 197.269C294.34 196.32 294.063 195.296 293.661 194.207L292.16 194.76L290.659 195.313C291.004 196.251 291.207 197.04 291.294 197.691L292.88 197.48ZM292.16 194.76L293.661 194.207C293.267 193.137 292.839 192.162 292.372 191.287L290.96 192.04L289.548 192.793C289.935 193.518 290.306 194.356 290.659 195.313L292.16 194.76ZM290.96 192.04L290.923 193.64C293.225 193.693 295.238 193.72 296.96 193.72V192.12V190.52C295.269 190.52 293.282 190.494 290.997 190.44L290.96 192.04ZM296.96 192.12L296.91 193.719C298.603 193.772 299.846 193.777 300.545 193.713L300.4 192.12L300.255 190.527C299.781 190.57 298.731 190.575 297.01 190.521L296.96 192.12ZM300.4 192.12V193.72C300.774 193.72 301.177 193.688 301.56 193.578C301.935 193.471 302.434 193.248 302.8 192.76L301.52 191.8L300.24 190.84C300.343 190.703 300.455 190.617 300.537 190.568C300.616 190.521 300.671 190.504 300.68 190.502C300.691 190.499 300.675 190.504 300.623 190.51C300.573 190.515 300.5 190.52 300.4 190.52V192.12ZM301.52 191.8L302.48 193.08C303.328 192.444 303.44 191.438 303.44 190.84H301.84H300.24C300.24 190.975 300.223 190.99 300.242 190.934C300.264 190.867 300.345 190.681 300.56 190.52L301.52 191.8ZM301.84 190.84H303.44V173.08H301.84H300.24V190.84H301.84ZM286.48 179.16L285.961 180.674L291.561 182.594L292.08 181.08L292.599 179.566L286.999 177.646L286.48 179.16ZM292.08 181.08L290.851 180.056C289.311 181.903 287.505 183.737 285.426 185.556L286.48 186.76L287.534 187.964C289.722 186.049 291.649 184.097 293.309 182.104L292.08 181.08ZM286.48 186.76L285.426 185.556C283.342 187.38 281.152 189.074 278.859 190.638L279.76 191.96L280.661 193.282C283.061 191.646 285.352 189.873 287.534 187.964L286.48 186.76ZM279.76 191.96L278.845 190.648C276.601 192.213 274.392 193.564 272.218 194.703L272.96 196.12L273.702 197.537C276.008 196.33 278.332 194.907 280.675 193.272L279.76 191.96ZM272.96 196.12L274.175 195.079C273.794 194.634 273.286 194.131 272.676 193.576L271.6 194.76L270.524 195.944C271.087 196.456 271.486 196.859 271.745 197.161L272.96 196.12ZM271.6 194.76L272.67 193.571C272.117 193.073 271.538 192.577 270.933 192.082L269.92 193.32L268.907 194.558C269.475 195.023 270.016 195.487 270.53 195.949L271.6 194.76ZM269.92 193.32L270.933 192.082C270.318 191.578 269.742 191.145 269.208 190.789L268.32 192.12L267.432 193.451C267.858 193.735 268.349 194.102 268.907 194.558L269.92 193.32ZM268.32 192.12L268.98 193.577C272.482 191.991 275.92 190.052 279.297 187.765L278.4 186.44L277.503 185.115C274.266 187.308 270.985 189.156 267.66 190.663L268.32 192.12ZM278.4 186.44L279.312 187.755C282.716 185.394 285.529 182.868 287.722 180.169L286.48 179.16L285.238 178.151C283.271 180.572 280.697 182.9 277.488 185.125L278.4 186.44ZM280.4 142.76H278.8V151.96H280.4H282V142.76H280.4ZM280.4 151.96V153.56H329.36V151.96V150.36H280.4V151.96ZM329.36 151.96H330.96V142.76H329.36H327.76V151.96H329.36ZM329.36 142.76V141.16H280.4V142.76V144.36H329.36V142.76ZM274.8 138.12V139.72H335.28V138.12V136.52H274.8V138.12ZM335.28 138.12H333.68V156.6H335.28H336.88V138.12H335.28ZM335.28 156.6V155H274.8V156.6V158.2H335.28V156.6ZM274.8 156.6H276.4V138.12H274.8H273.2V156.6H274.8ZM292.56 128.84V130.44H298.08V128.84V127.24H292.56V128.84ZM298.08 128.84H296.48V154.44H298.08H299.68V128.84H298.08ZM298.08 154.44V152.84H292.56V154.44V156.04H298.08V154.44ZM292.56 154.44H294.16V128.84H292.56H290.96V154.44H292.56ZM310.8 128.84V130.44H316.48V128.84V127.24H310.8V128.84ZM316.48 128.84H314.88V154.44H316.48H318.08V128.84H316.48ZM316.48 154.44V152.84H310.8V154.44V156.04H316.48V154.44ZM310.8 154.44H312.4V128.84H310.8H309.2V154.44H310.8Z" fill="#FFF5DD" fill-opacity="0.6" mask="url(#path-4-outside-1_1504_645)"/>
<mask id="path-6-outside-2_1504_645" maskUnits="userSpaceOnUse" x="134" y="241" width="173" height="39" fill="black">
<rect fill="white" x="134" y="241" width="173" height="39"/>
<path d="M155.802 251.909C155.617 250.047 154.795 248.566 153.336 247.466C151.876 246.366 150.041 245.816 147.831 245.816C146.273 245.816 144.901 246.083 143.714 246.616C142.538 247.15 141.612 247.891 140.937 248.838C140.273 249.775 139.941 250.842 139.941 252.04C139.941 252.922 140.131 253.695 140.513 254.359C140.894 255.024 141.406 255.595 142.048 256.075C142.701 256.543 143.42 256.946 144.204 257.283C144.999 257.621 145.8 257.904 146.606 258.133L150.134 259.146C151.201 259.44 152.268 259.815 153.336 260.273C154.403 260.73 155.378 261.307 156.26 262.004C157.153 262.69 157.866 263.534 158.4 264.536C158.944 265.527 159.216 266.72 159.216 268.114C159.216 269.9 158.754 271.506 157.828 272.933C156.902 274.359 155.574 275.492 153.842 276.33C152.111 277.158 150.036 277.572 147.618 277.572C145.342 277.572 143.366 277.196 141.689 276.445C140.012 275.682 138.694 274.631 137.736 273.292C136.777 271.952 136.238 270.401 136.118 268.636H139.255C139.364 269.954 139.799 271.07 140.562 271.985C141.324 272.9 142.315 273.597 143.535 274.076C144.754 274.544 146.116 274.778 147.618 274.778C149.285 274.778 150.766 274.501 152.062 273.945C153.368 273.379 154.392 272.595 155.133 271.593C155.884 270.58 156.26 269.404 156.26 268.065C156.26 266.932 155.966 265.985 155.378 265.222C154.79 264.449 153.967 263.801 152.911 263.278C151.866 262.756 150.651 262.293 149.268 261.89L145.266 260.714C142.642 259.93 140.605 258.846 139.157 257.463C137.708 256.08 136.984 254.316 136.984 252.17C136.984 250.374 137.463 248.795 138.422 247.433C139.391 246.061 140.698 244.994 142.342 244.232C143.997 243.458 145.854 243.072 147.912 243.072C149.992 243.072 151.833 243.453 153.434 244.215C155.035 244.978 156.303 246.028 157.24 247.368C158.187 248.696 158.694 250.21 158.759 251.909H155.802ZM171.922 243.545V277H168.867V243.545H171.922ZM209.171 243.545V277H206.198L186.432 248.985H186.171V277H183.116V243.545H186.073L205.904 271.593H206.165V243.545H209.171ZM243.513 254C243.208 252.889 242.761 251.849 242.173 250.88C241.585 249.9 240.855 249.045 239.984 248.315C239.124 247.575 238.127 246.998 236.995 246.584C235.873 246.17 234.621 245.963 233.238 245.963C231.06 245.963 229.11 246.529 227.39 247.662C225.669 248.795 224.308 250.428 223.306 252.562C222.315 254.697 221.819 257.267 221.819 260.273C221.819 263.268 222.32 265.832 223.322 267.967C224.324 270.101 225.696 271.74 227.439 272.884C229.192 274.016 231.196 274.582 233.45 274.582C235.508 274.582 237.327 274.125 238.906 273.21C240.485 272.295 241.716 270.989 242.598 269.29C243.491 267.591 243.926 265.571 243.905 263.229L244.885 263.54H234.169V260.795H246.878V263.54C246.878 266.393 246.301 268.86 245.146 270.94C243.992 273.02 242.407 274.626 240.393 275.759C238.378 276.891 236.064 277.457 233.45 277.457C230.532 277.457 227.978 276.755 225.789 275.35C223.6 273.934 221.896 271.942 220.676 269.371C219.467 266.79 218.863 263.758 218.863 260.273C218.863 257.648 219.211 255.28 219.908 253.167C220.605 251.054 221.591 249.246 222.865 247.744C224.15 246.241 225.669 245.092 227.422 244.297C229.176 243.491 231.114 243.088 233.238 243.088C235.067 243.088 236.739 243.377 238.253 243.954C239.777 244.531 241.117 245.326 242.271 246.339C243.436 247.341 244.389 248.5 245.13 249.818C245.881 251.125 246.388 252.519 246.649 254H243.513ZM256.761 277V243.545H259.816V274.256H275.759V277H256.761ZM284.936 277V243.545H304.343V246.29H287.991V258.884H303.313V261.629H287.991V274.256H304.669V277H284.936Z"/>
</mask>
<path d="M155.802 251.909L154.21 252.067L154.353 253.509H155.802V251.909ZM153.336 247.466L154.299 246.188L154.299 246.188L153.336 247.466ZM143.714 246.616L143.058 245.157L143.053 245.159L143.714 246.616ZM140.937 248.838L139.634 247.91L139.632 247.912L140.937 248.838ZM140.513 254.359L139.125 255.156L139.125 255.156L140.513 254.359ZM142.048 256.075L141.092 257.357L141.104 257.366L141.116 257.375L142.048 256.075ZM144.204 257.283L143.572 258.753L143.579 258.756L144.204 257.283ZM146.606 258.133L147.047 256.595L147.042 256.594L146.606 258.133ZM150.134 259.146L149.693 260.683L149.701 260.686L149.709 260.688L150.134 259.146ZM156.26 262.004L155.268 263.26L155.276 263.266L155.285 263.273L156.26 262.004ZM158.4 264.536L156.987 265.288L156.992 265.298L156.997 265.307L158.4 264.536ZM157.828 272.933L156.486 272.062V272.062L157.828 272.933ZM153.842 276.33L154.532 277.774L154.539 277.77L153.842 276.33ZM141.689 276.445L141.027 277.901L141.034 277.905L141.689 276.445ZM136.118 268.636V267.036H134.406L134.522 268.745L136.118 268.636ZM139.255 268.636L140.849 268.505L140.728 267.036H139.255V268.636ZM140.562 271.985L139.332 273.009L140.562 271.985ZM143.535 274.076L142.949 275.565L142.961 275.57L143.535 274.076ZM152.062 273.945L152.692 275.416L152.698 275.413L152.062 273.945ZM155.133 271.593L153.848 270.64L153.846 270.642L155.133 271.593ZM155.378 265.222L154.104 266.191L154.111 266.2L155.378 265.222ZM152.911 263.278L152.195 264.71L152.201 264.712L152.911 263.278ZM149.268 261.89L148.817 263.425L148.821 263.426L149.268 261.89ZM145.266 260.714L144.808 262.247L144.815 262.249L145.266 260.714ZM139.157 257.463L140.262 256.306H140.262L139.157 257.463ZM138.422 247.433L137.115 246.51L137.113 246.512L138.422 247.433ZM142.342 244.232L143.015 245.683L143.019 245.681L142.342 244.232ZM153.434 244.215L152.746 245.66L152.746 245.66L153.434 244.215ZM157.24 247.368L155.929 248.285L155.933 248.291L155.937 248.297L157.24 247.368ZM158.759 251.909V253.509H160.422L160.358 251.848L158.759 251.909ZM155.802 251.909L157.394 251.751C157.166 249.456 156.124 247.564 154.299 246.188L153.336 247.466L152.373 248.744C153.465 249.567 154.068 250.638 154.21 252.067L155.802 251.909ZM153.336 247.466L154.299 246.188C152.508 244.838 150.314 244.216 147.831 244.216V245.816V247.416C149.769 247.416 151.245 247.894 152.373 248.744L153.336 247.466ZM147.831 245.816V244.216C146.091 244.216 144.488 244.514 143.058 245.157L143.714 246.616L144.37 248.076C145.315 247.651 146.456 247.416 147.831 247.416V245.816ZM143.714 246.616L143.053 245.159C141.649 245.796 140.491 246.708 139.634 247.91L140.937 248.838L142.24 249.767C142.734 249.073 143.427 248.504 144.375 248.074L143.714 246.616ZM140.937 248.838L139.632 247.912C138.767 249.132 138.341 250.525 138.341 252.04H139.941H141.541C141.541 251.158 141.779 250.418 142.242 249.764L140.937 248.838ZM139.941 252.04H138.341C138.341 253.158 138.585 254.214 139.125 255.156L140.513 254.359L141.9 253.563C141.678 253.176 141.541 252.685 141.541 252.04H139.941ZM140.513 254.359L139.125 255.156C139.62 256.019 140.282 256.753 141.092 257.357L142.048 256.075L143.005 254.792C142.529 254.437 142.167 254.029 141.9 253.563L140.513 254.359ZM142.048 256.075L141.116 257.375C141.868 257.914 142.688 258.373 143.572 258.753L144.204 257.283L144.837 255.814C144.152 255.519 143.534 255.171 142.98 254.774L142.048 256.075ZM144.204 257.283L143.579 258.756C144.433 259.119 145.297 259.425 146.169 259.672L146.606 258.133L147.042 256.594C146.303 256.384 145.565 256.123 144.83 255.811L144.204 257.283ZM146.606 258.133L146.164 259.671L149.693 260.683L150.134 259.146L150.575 257.608L147.047 256.595L146.606 258.133ZM150.134 259.146L149.709 260.688C150.703 260.962 151.702 261.313 152.705 261.743L153.336 260.273L153.966 258.802C152.835 258.317 151.699 257.917 150.559 257.603L150.134 259.146ZM153.336 260.273L152.705 261.743C153.647 262.147 154.5 262.653 155.268 263.26L156.26 262.004L157.252 260.749C156.255 259.962 155.158 259.313 153.966 258.802L153.336 260.273ZM156.26 262.004L155.285 263.273C155.995 263.819 156.56 264.486 156.987 265.288L158.4 264.536L159.812 263.784C159.172 262.582 158.31 261.562 157.234 260.735L156.26 262.004ZM158.4 264.536L156.997 265.307C157.385 266.013 157.616 266.927 157.616 268.114H159.216H160.816C160.816 266.512 160.503 265.042 159.802 263.766L158.4 264.536ZM159.216 268.114H157.616C157.616 269.607 157.234 270.908 156.486 272.062L157.828 272.933L159.17 273.803C160.273 272.104 160.816 270.192 160.816 268.114H159.216ZM157.828 272.933L156.486 272.062C155.739 273.212 154.649 274.162 153.145 274.89L153.842 276.33L154.539 277.77C156.499 276.822 158.065 275.506 159.17 273.803L157.828 272.933ZM153.842 276.33L153.152 274.887C151.684 275.588 149.857 275.972 147.618 275.972V277.572V279.172C150.214 279.172 152.537 278.728 154.532 277.774L153.842 276.33ZM147.618 277.572V275.972C145.515 275.972 143.771 275.624 142.343 274.984L141.689 276.445L141.034 277.905C142.96 278.768 145.169 279.172 147.618 279.172V277.572ZM141.689 276.445L142.351 274.988C140.898 274.328 139.813 273.446 139.037 272.361L137.736 273.292L136.434 274.223C137.575 275.817 139.125 277.037 141.027 277.901L141.689 276.445ZM137.736 273.292L139.037 272.361C138.264 271.281 137.816 270.019 137.715 268.528L136.118 268.636L134.522 268.745C134.66 270.783 135.29 272.624 136.434 274.223L137.736 273.292ZM136.118 268.636V270.236H139.255V268.636V267.036H136.118V268.636ZM139.255 268.636L137.66 268.768C137.793 270.376 138.336 271.814 139.332 273.009L140.562 271.985L141.791 270.961C141.262 270.327 140.934 269.532 140.849 268.505L139.255 268.636ZM140.562 271.985L139.332 273.009C140.284 274.151 141.505 274.998 142.949 275.565L143.535 274.076L144.12 272.587C143.125 272.196 142.364 271.649 141.791 270.961L140.562 271.985ZM143.535 274.076L142.961 275.57C144.389 276.118 145.949 276.378 147.618 276.378V274.778V273.178C146.282 273.178 145.119 272.971 144.108 272.582L143.535 274.076ZM147.618 274.778V276.378C149.462 276.378 151.164 276.071 152.692 275.416L152.062 273.945L151.431 272.475C150.367 272.931 149.107 273.178 147.618 273.178V274.778ZM152.062 273.945L152.698 275.413C154.225 274.751 155.488 273.803 156.419 272.544L155.133 271.593L153.846 270.642C153.296 271.386 152.511 272.007 151.425 272.477L152.062 273.945ZM155.133 271.593L156.418 272.546C157.387 271.24 157.86 269.725 157.86 268.065H156.26H154.66C154.66 269.083 154.381 269.92 153.848 270.64L155.133 271.593ZM156.26 268.065H157.86C157.86 266.643 157.485 265.335 156.644 264.245L155.378 265.222L154.111 266.2C154.446 266.635 154.66 267.221 154.66 268.065H156.26ZM155.378 265.222L156.651 264.254C155.885 263.246 154.852 262.454 153.621 261.844L152.911 263.278L152.201 264.712C153.083 265.149 153.694 265.652 154.104 266.191L155.378 265.222ZM152.911 263.278L153.626 261.847C152.478 261.273 151.171 260.778 149.716 260.354L149.268 261.89L148.821 263.426C150.132 263.808 151.253 264.238 152.195 264.709L152.911 263.278ZM149.268 261.89L149.719 260.355L145.717 259.179L145.266 260.714L144.815 262.249L148.817 263.425L149.268 261.89ZM145.266 260.714L145.724 259.181C143.257 258.444 141.473 257.462 140.262 256.306L139.157 257.463L138.052 258.62C139.738 260.23 142.026 261.416 144.808 262.247L145.266 260.714ZM139.157 257.463L140.262 256.306C139.154 255.248 138.584 253.913 138.584 252.17H136.984H135.384C135.384 254.718 136.263 256.912 138.052 258.62L139.157 257.463ZM136.984 252.17H138.584C138.584 250.676 138.977 249.424 139.73 248.354L138.422 247.433L137.113 246.512C135.95 248.165 135.384 250.071 135.384 252.17H136.984ZM138.422 247.433L139.728 248.356C140.524 247.231 141.604 246.337 143.015 245.683L142.342 244.232L141.669 242.78C139.792 243.65 138.258 244.891 137.115 246.51L138.422 247.433ZM142.342 244.232L143.019 245.681C144.437 245.019 146.058 244.672 147.912 244.672V243.072V241.472C145.65 241.472 143.558 241.898 141.665 242.782L142.342 244.232ZM147.912 243.072V244.672C149.795 244.672 151.394 245.016 152.746 245.66L153.434 244.215L154.122 242.771C152.272 241.89 150.189 241.472 147.912 241.472V243.072ZM153.434 244.215L152.746 245.66C154.119 246.313 155.164 247.191 155.929 248.285L157.24 247.368L158.551 246.451C157.443 244.866 155.951 243.642 154.122 242.771L153.434 244.215ZM157.24 247.368L155.937 248.297C156.696 249.36 157.106 250.57 157.16 251.971L158.759 251.909L160.358 251.848C160.281 249.851 159.679 248.033 158.542 246.439L157.24 247.368ZM158.759 251.909V250.309H155.802V251.909V253.509H158.759V251.909ZM171.922 243.545H173.522V241.945H171.922V243.545ZM171.922 277V278.6H173.522V277H171.922ZM168.867 277H167.267V278.6H168.867V277ZM168.867 243.545V241.945H167.267V243.545H168.867ZM171.922 243.545H170.322V277H171.922H173.522V243.545H171.922ZM171.922 277V275.4H168.867V277V278.6H171.922V277ZM168.867 277H170.467V243.545H168.867H167.267V277H168.867ZM168.867 243.545V245.145H171.922V243.545V241.945H168.867V243.545ZM209.171 243.545H210.771V241.945H209.171V243.545ZM209.171 277V278.6H210.771V277H209.171ZM206.198 277L204.891 277.922L205.369 278.6H206.198V277ZM186.432 248.985L187.74 248.063L187.262 247.385H186.432V248.985ZM186.171 248.985V247.385H184.571V248.985H186.171ZM186.171 277V278.6H187.771V277H186.171ZM183.116 277H181.516V278.6H183.116V277ZM183.116 243.545V241.945H181.516V243.545H183.116ZM186.073 243.545L187.38 242.622L186.901 241.945H186.073V243.545ZM205.904 271.593L204.598 272.517L205.076 273.193H205.904V271.593ZM206.165 271.593V273.193H207.765V271.593H206.165ZM206.165 243.545V241.945H204.565V243.545H206.165ZM209.171 243.545H207.571V277H209.171H210.771V243.545H209.171ZM209.171 277V275.4H206.198V277V278.6H209.171V277ZM206.198 277L207.505 276.078L187.74 248.063L186.432 248.985L185.125 249.907L204.891 277.922L206.198 277ZM186.432 248.985V247.385H186.171V248.985V250.585H186.432V248.985ZM186.171 248.985H184.571V277H186.171H187.771V248.985H186.171ZM186.171 277V275.4H183.116V277V278.6H186.171V277ZM183.116 277H184.716V243.545H183.116H181.516V277H183.116ZM183.116 243.545V245.145H186.073V243.545V241.945H183.116V243.545ZM186.073 243.545L184.767 244.469L204.598 272.517L205.904 271.593L207.21 270.669L187.38 242.622L186.073 243.545ZM205.904 271.593V273.193H206.165V271.593V269.993H205.904V271.593ZM206.165 271.593H207.765V243.545H206.165H204.565V271.593H206.165ZM206.165 243.545V245.145H209.171V243.545V241.945H206.165V243.545ZM243.513 254L241.97 254.424L242.293 255.6H243.513V254ZM242.173 250.88L240.801 251.703L240.805 251.71L242.173 250.88ZM239.984 248.315L238.94 249.528L238.949 249.535L238.957 249.542L239.984 248.315ZM236.995 246.584L236.441 248.085L236.446 248.087L236.995 246.584ZM227.39 247.662L226.51 246.325V246.325L227.39 247.662ZM223.306 252.562L221.858 251.883L221.855 251.889L223.306 252.562ZM223.322 267.967L221.874 268.646V268.646L223.322 267.967ZM227.439 272.884L226.561 274.221L226.571 274.228L227.439 272.884ZM238.906 273.21L238.104 271.826L238.906 273.21ZM242.598 269.29L241.182 268.545L241.178 268.552L242.598 269.29ZM243.905 263.229L244.388 261.704L242.284 261.038L242.305 263.244L243.905 263.229ZM244.885 263.54V265.14L245.368 262.014L244.885 263.54ZM234.169 263.54H232.569V265.14H234.169V263.54ZM234.169 260.795V259.195H232.569V260.795H234.169ZM246.878 260.795H248.478V259.195H246.878V260.795ZM245.146 270.94L246.545 271.716V271.716L245.146 270.94ZM240.393 275.759L241.177 277.153V277.153L240.393 275.759ZM225.789 275.35L224.92 276.694L224.925 276.697L225.789 275.35ZM220.676 269.371L219.227 270.05L219.231 270.057L220.676 269.371ZM219.908 253.167L218.389 252.666L219.908 253.167ZM222.865 247.744L221.649 246.704L221.645 246.709L222.865 247.744ZM227.422 244.297L228.083 245.754L228.091 245.751L227.422 244.297ZM238.253 243.954L237.683 245.449L237.686 245.45L238.253 243.954ZM242.271 246.339L241.216 247.541L241.222 247.547L241.228 247.552L242.271 246.339ZM245.13 249.818L243.735 250.602L243.739 250.609L243.743 250.616L245.13 249.818ZM246.649 254V255.6H248.556L248.225 253.722L246.649 254ZM243.513 254L245.056 253.576C244.712 252.325 244.207 251.148 243.541 250.05L242.173 250.88L240.805 251.71C241.315 252.55 241.703 253.453 241.97 254.424L243.513 254ZM242.173 250.88L243.545 250.057C242.866 248.925 242.02 247.933 241.012 247.089L239.984 248.315L238.957 249.542C239.691 250.157 240.304 250.875 240.801 251.703L242.173 250.88ZM239.984 248.315L241.028 247.103C240.013 246.229 238.846 245.557 237.544 245.081L236.995 246.584L236.446 248.087C237.409 248.438 238.235 248.921 238.94 249.528L239.984 248.315ZM236.995 246.584L237.549 245.083C236.224 244.594 234.781 244.363 233.238 244.363V245.963V247.563C234.461 247.563 235.522 247.746 236.441 248.085L236.995 246.584ZM233.238 245.963V244.363C230.766 244.363 228.507 245.011 226.51 246.325L227.39 247.662L228.269 248.998C229.714 248.048 231.354 247.563 233.238 247.563V245.963ZM227.39 247.662L226.51 246.325C224.509 247.643 222.966 249.521 221.858 251.883L223.306 252.562L224.754 253.242C225.649 251.336 226.829 249.946 228.269 248.998L227.39 247.662ZM223.306 252.562L221.855 251.889C220.743 254.284 220.219 257.097 220.219 260.273H221.819H223.419C223.419 257.438 223.887 255.11 224.757 253.236L223.306 252.562ZM221.819 260.273H220.219C220.219 263.441 220.749 266.25 221.874 268.646L223.322 267.967L224.771 267.287C223.892 265.414 223.419 263.094 223.419 260.273H221.819ZM223.322 267.967L221.874 268.646C222.985 271.013 224.54 272.895 226.561 274.221L227.439 272.884L228.317 271.546C226.853 270.585 225.664 269.189 224.771 267.287L223.322 267.967ZM227.439 272.884L226.571 274.228C228.603 275.541 230.914 276.182 233.45 276.182V274.582V272.982C231.478 272.982 229.781 272.492 228.307 271.54L227.439 272.884ZM233.45 274.582V276.182C235.753 276.182 237.855 275.668 239.708 274.595L238.906 273.21L238.104 271.826C236.799 272.582 235.263 272.982 233.45 272.982V274.582ZM238.906 273.21L239.708 274.595C241.564 273.52 243.003 271.982 244.018 270.027L242.598 269.29L241.178 268.552C240.429 269.995 239.407 271.071 238.104 271.826L238.906 273.21ZM242.598 269.29L244.014 270.034C245.054 268.055 245.528 265.763 245.505 263.215L243.905 263.229L242.305 263.244C242.325 265.379 241.927 267.127 241.182 268.545L242.598 269.29ZM243.905 263.229L243.422 264.755L244.402 265.065L244.885 263.54L245.368 262.014L244.388 261.704L243.905 263.229ZM244.885 263.54V261.94H234.169V263.54V265.14H244.885V263.54ZM234.169 263.54H235.769V260.795H234.169H232.569V263.54H234.169ZM234.169 260.795V262.395H246.878V260.795V259.195H234.169V260.795ZM246.878 260.795H245.278V263.54H246.878H248.478V260.795H246.878ZM246.878 263.54H245.278C245.278 266.175 244.746 268.364 243.747 270.163L245.146 270.94L246.545 271.716C247.855 269.355 248.478 266.611 248.478 263.54H246.878ZM245.146 270.94L243.747 270.163C242.732 271.992 241.357 273.381 239.609 274.364L240.393 275.759L241.177 277.153C243.457 275.871 245.251 274.047 246.545 271.716L245.146 270.94ZM240.393 275.759L239.609 274.364C237.863 275.345 235.826 275.857 233.45 275.857V277.457V279.057C236.302 279.057 238.893 278.437 241.177 277.153L240.393 275.759ZM233.45 277.457V275.857C230.799 275.857 228.554 275.223 226.653 274.004L225.789 275.35L224.925 276.697C227.402 278.287 230.264 279.057 233.45 279.057V277.457ZM225.789 275.35L226.658 274.007C224.741 272.767 223.226 271.012 222.121 268.685L220.676 269.371L219.231 270.057C220.566 272.871 222.459 275.102 224.92 276.694L225.789 275.35ZM220.676 269.371L222.125 268.693C221.035 266.366 220.463 263.574 220.463 260.273H218.863H217.263C217.263 263.941 217.899 267.215 219.227 270.05L220.676 269.371ZM218.863 260.273H220.463C220.463 257.789 220.793 255.593 221.428 253.668L219.908 253.167L218.389 252.666C217.63 254.966 217.263 257.508 217.263 260.273H218.863ZM219.908 253.167L221.428 253.668C222.069 251.726 222.96 250.105 224.085 248.778L222.865 247.744L221.645 246.709C220.221 248.388 219.142 250.383 218.389 252.666L219.908 253.167ZM222.865 247.744L224.081 248.783C225.218 247.454 226.549 246.45 228.083 245.754L227.422 244.297L226.762 242.84C224.789 243.734 223.082 245.028 221.649 246.704L222.865 247.744ZM227.422 244.297L228.091 245.751C229.614 245.05 231.321 244.688 233.238 244.688V243.088V241.488C230.907 241.488 228.737 241.932 226.754 242.843L227.422 244.297ZM233.238 243.088V244.688C234.898 244.688 236.373 244.949 237.683 245.449L238.253 243.954L238.823 242.459C237.105 241.804 235.237 241.488 233.238 241.488V243.088ZM238.253 243.954L237.686 245.45C239.043 245.964 240.214 246.663 241.216 247.541L242.271 246.339L243.326 245.136C242.019 243.989 240.512 243.098 238.819 242.457L238.253 243.954ZM242.271 246.339L241.228 247.552C242.254 248.434 243.087 249.45 243.735 250.602L245.13 249.818L246.525 249.034C245.691 247.551 244.619 246.247 243.314 245.126L242.271 246.339ZM245.13 249.818L243.743 250.616C244.402 251.762 244.844 252.98 245.073 254.278L246.649 254L248.225 253.722C247.931 252.058 247.361 250.488 246.517 249.021L245.13 249.818ZM246.649 254V252.4H243.513V254V255.6H246.649V254ZM256.761 277H255.161V278.6H256.761V277ZM256.761 243.545V241.945H255.161V243.545H256.761ZM259.816 243.545H261.416V241.945H259.816V243.545ZM259.816 274.256H258.216V275.856H259.816V274.256ZM275.759 274.256H277.359V272.656H275.759V274.256ZM275.759 277V278.6H277.359V277H275.759ZM256.761 277H258.361V243.545H256.761H255.161V277H256.761ZM256.761 243.545V245.145H259.816V243.545V241.945H256.761V243.545ZM259.816 243.545H258.216V274.256H259.816H261.416V243.545H259.816ZM259.816 274.256V275.856H275.759V274.256V272.656H259.816V274.256ZM275.759 274.256H274.159V277H275.759H277.359V274.256H275.759ZM275.759 277V275.4H256.761V277V278.6H275.759V277ZM284.936 277H283.336V278.6H284.936V277ZM284.936 243.545V241.945H283.336V243.545H284.936ZM304.343 243.545H305.943V241.945H304.343V243.545ZM304.343 246.29V247.89H305.943V246.29H304.343ZM287.991 246.29V244.69H286.391V246.29H287.991ZM287.991 258.884H286.391V260.484H287.991V258.884ZM303.313 258.884H304.913V257.284H303.313V258.884ZM303.313 261.629V263.229H304.913V261.629H303.313ZM287.991 261.629V260.029H286.391V261.629H287.991ZM287.991 274.256H286.391V275.856H287.991V274.256ZM304.669 274.256H306.269V272.656H304.669V274.256ZM304.669 277V278.6H306.269V277H304.669ZM284.936 277H286.536V243.545H284.936H283.336V277H284.936ZM284.936 243.545V245.145H304.343V243.545V241.945H284.936V243.545ZM304.343 243.545H302.743V246.29H304.343H305.943V243.545H304.343ZM304.343 246.29V244.69H287.991V246.29V247.89H304.343V246.29ZM287.991 246.29H286.391V258.884H287.991H289.591V246.29H287.991ZM287.991 258.884V260.484H303.313V258.884V257.284H287.991V258.884ZM303.313 258.884H301.713V261.629H303.313H304.913V258.884H303.313ZM303.313 261.629V260.029H287.991V261.629V263.229H303.313V261.629ZM287.991 261.629H286.391V274.256H287.991H289.591V261.629H287.991ZM287.991 274.256V275.856H304.669V274.256V272.656H287.991V274.256ZM304.669 274.256H303.069V277H304.669H306.269V274.256H304.669ZM304.669 277V275.4H284.936V277V278.6H304.669V277Z" fill="#FFF5DD" fill-opacity="0.6" mask="url(#path-6-outside-2_1504_645)"/>
<mask id="path-8-outside-3_1504_645" maskUnits="userSpaceOnUse" x="106" y="303" width="231" height="39" fill="black">
<rect fill="white" x="106" y="303" width="231" height="39"/>
<path d="M123.356 305.545H126.411V329.673C126.4 331.851 126.008 333.669 125.235 335.129C124.461 336.577 123.394 337.661 122.033 338.379C120.672 339.098 119.109 339.457 117.345 339.457C115.613 339.457 114.067 339.136 112.705 338.494C111.344 337.851 110.272 336.947 109.487 335.782C108.714 334.617 108.328 333.25 108.328 331.682H111.333C111.333 332.673 111.595 333.549 112.117 334.312C112.64 335.063 113.353 335.651 114.257 336.076C115.172 336.501 116.201 336.713 117.345 336.713C118.532 336.713 119.572 336.463 120.465 335.962C121.369 335.461 122.076 334.693 122.588 333.658C123.1 332.613 123.356 331.284 123.356 329.673V305.545ZM165.024 322.273C165.024 325.758 164.403 328.79 163.162 331.371C161.92 333.942 160.21 335.934 158.032 337.35C155.865 338.755 153.371 339.457 150.551 339.457C147.73 339.457 145.231 338.755 143.053 337.35C140.886 335.934 139.182 333.942 137.94 331.371C136.71 328.79 136.094 325.758 136.094 322.273C136.094 318.788 136.71 315.76 137.94 313.19C139.182 310.609 140.891 308.616 143.069 307.212C145.247 305.796 147.741 305.088 150.551 305.088C153.371 305.088 155.865 305.796 158.032 307.212C160.21 308.616 161.92 310.609 163.162 313.19C164.403 315.76 165.024 318.788 165.024 322.273ZM162.051 322.273C162.051 319.278 161.55 316.713 160.548 314.579C159.546 312.433 158.179 310.795 156.448 309.662C154.716 308.529 152.751 307.963 150.551 307.963C148.362 307.963 146.402 308.529 144.67 309.662C142.939 310.795 141.567 312.428 140.554 314.562C139.552 316.697 139.051 319.267 139.051 322.273C139.051 325.268 139.552 327.832 140.554 329.967C141.556 332.101 142.922 333.74 144.654 334.884C146.385 336.016 148.351 336.582 150.551 336.582C152.751 336.582 154.716 336.016 156.448 334.884C158.19 333.751 159.563 332.117 160.564 329.983C161.566 327.838 162.062 325.268 162.051 322.273ZM197.009 305.545H200.064V327.696C200.064 329.972 199.53 332.009 198.463 333.805C197.396 335.591 195.909 337.002 194.003 338.036C192.109 339.06 189.903 339.572 187.388 339.572C184.883 339.572 182.678 339.054 180.772 338.02C178.866 336.985 177.38 335.575 176.312 333.789C175.245 332.003 174.712 329.972 174.712 327.696V305.545H177.766V327.484C177.766 329.259 178.164 330.843 178.959 332.237C179.754 333.62 180.87 334.709 182.307 335.504C183.756 336.299 185.449 336.697 187.388 336.697C189.326 336.697 191.02 336.299 192.468 335.504C193.916 334.709 195.033 333.62 195.817 332.237C196.612 330.843 197.009 329.259 197.009 327.484V305.545ZM211.242 339V305.545H222.04C224.414 305.545 226.396 305.976 227.986 306.836C229.586 307.685 230.79 308.867 231.596 310.381C232.412 311.884 232.821 313.61 232.821 315.559C232.821 317.508 232.412 319.229 231.596 320.721C230.79 322.213 229.592 323.378 228.002 324.217C226.412 325.055 224.441 325.474 222.089 325.474H212.892V322.681H222.007C223.749 322.681 225.198 322.393 226.352 321.815C227.517 321.238 228.383 320.416 228.949 319.349C229.527 318.281 229.815 317.018 229.815 315.559C229.815 314.1 229.527 312.826 228.949 311.737C228.372 310.637 227.501 309.787 226.336 309.188C225.181 308.589 223.722 308.29 221.958 308.29H214.297V339H211.242ZM225.993 323.906L234.226 339H230.697L222.546 323.906H225.993ZM268.616 305.545V339H265.643L245.878 310.985H245.616V339H242.562V305.545H245.518L265.349 333.593H265.611V305.545H268.616ZM279.811 339V305.545H299.217V308.29H282.865V320.884H298.188V323.629H282.865V336.256H299.544V339H279.811ZM306.287 305.545H309.815L319.731 321.423H320.025L329.94 305.545H333.469L321.397 324.511V339H318.359V324.511L306.287 305.545Z"/>
</mask>
<path d="M123.356 305.545V303.945H121.756V305.545H123.356ZM126.411 305.545H128.011V303.945H126.411V305.545ZM126.411 329.673L128.011 329.681V329.673H126.411ZM125.235 335.129L126.646 335.882L126.648 335.878L125.235 335.129ZM122.033 338.379L122.78 339.794H122.78L122.033 338.379ZM112.705 338.494L113.388 337.047V337.047L112.705 338.494ZM109.487 335.782L108.154 336.667L108.16 336.675L109.487 335.782ZM108.328 331.682V330.082H106.728V331.682H108.328ZM111.333 331.682H112.933V330.082H111.333V331.682ZM112.117 334.312L110.798 335.217L110.804 335.225L112.117 334.312ZM114.257 336.076L113.577 337.524L113.584 337.527L114.257 336.076ZM120.465 335.962L119.689 334.562L119.682 334.566L120.465 335.962ZM122.588 333.658L124.022 334.368L124.025 334.362L122.588 333.658ZM123.356 305.545V307.145H126.411V305.545V303.945H123.356V305.545ZM126.411 305.545H124.811V329.673H126.411H128.011V305.545H126.411ZM126.411 329.673L124.811 329.665C124.801 331.664 124.441 333.21 123.821 334.379L125.235 335.129L126.648 335.878C127.575 334.129 127.999 332.038 128.011 329.681L126.411 329.673ZM125.235 335.129L123.823 334.375C123.19 335.561 122.345 336.405 121.286 336.964L122.033 338.379L122.78 339.794C124.443 338.916 125.733 337.593 126.646 335.882L125.235 335.129ZM122.033 338.379L121.286 336.964C120.186 337.545 118.887 337.857 117.345 337.857V339.457V341.057C119.331 341.057 121.157 340.651 122.78 339.794L122.033 338.379ZM117.345 339.457V337.857C115.814 337.857 114.506 337.574 113.388 337.047L112.705 338.494L112.023 339.941C113.627 340.698 115.412 341.057 117.345 341.057V339.457ZM112.705 338.494L113.388 337.047C112.269 336.518 111.426 335.797 110.815 334.889L109.487 335.782L108.16 336.675C109.117 338.097 110.42 339.184 112.023 339.941L112.705 338.494ZM109.487 335.782L110.821 334.897C110.242 334.025 109.928 332.975 109.928 331.682H108.328H106.728C106.728 333.525 107.186 335.208 108.154 336.667L109.487 335.782ZM108.328 331.682V333.282H111.333V331.682V330.082H108.328V331.682ZM111.333 331.682H109.733C109.733 332.971 110.079 334.168 110.798 335.217L112.117 334.312L113.437 333.407C113.11 332.931 112.933 332.374 112.933 331.682H111.333ZM112.117 334.312L110.804 335.225C111.502 336.228 112.443 336.991 113.577 337.524L114.257 336.076L114.938 334.628C114.264 334.311 113.779 333.898 113.431 333.398L112.117 334.312ZM114.257 336.076L113.584 337.527C114.736 338.062 116 338.313 117.345 338.313V336.713V335.113C116.403 335.113 115.608 334.939 114.931 334.625L114.257 336.076ZM117.345 336.713V338.313C118.762 338.313 120.08 338.012 121.248 337.357L120.465 335.962L119.682 334.566C119.064 334.913 118.302 335.113 117.345 335.113V336.713ZM120.465 335.962L121.24 337.361C122.461 336.684 123.384 335.659 124.022 334.368L122.588 333.658L121.154 332.949C120.769 333.727 120.276 334.237 119.689 334.562L120.465 335.962ZM122.588 333.658L124.025 334.362C124.677 333.03 124.956 331.44 124.956 329.673H123.356H121.756C121.756 331.129 121.523 332.196 121.151 332.955L122.588 333.658ZM123.356 329.673H124.956V305.545H123.356H121.756V329.673H123.356ZM163.162 331.371L164.602 332.067L164.604 332.065L163.162 331.371ZM158.032 337.35L158.903 338.693L158.904 338.692L158.032 337.35ZM143.053 337.35L142.178 338.69L142.186 338.695L143.053 337.35ZM137.94 331.371L136.496 332.06L136.499 332.067L137.94 331.371ZM137.94 313.19L136.498 312.497L136.497 312.499L137.94 313.19ZM143.069 307.212L143.937 308.556L143.941 308.553L143.069 307.212ZM158.032 307.212L157.157 308.551L157.165 308.556L158.032 307.212ZM163.162 313.19L161.72 313.884L161.721 313.886L163.162 313.19ZM162.051 322.273H160.451L160.451 322.279L162.051 322.273ZM160.548 314.579L159.098 315.256L159.1 315.259L160.548 314.579ZM156.448 309.662L157.324 308.323L156.448 309.662ZM144.67 309.662L145.546 311.001V311.001L144.67 309.662ZM140.554 314.562L139.108 313.877L139.105 313.883L140.554 314.562ZM140.554 329.967L139.105 330.646V330.646L140.554 329.967ZM144.654 334.884L143.772 336.219L143.778 336.223L144.654 334.884ZM156.448 334.884L155.576 333.542L155.572 333.545L156.448 334.884ZM160.564 329.983L162.013 330.663L162.014 330.66L160.564 329.983ZM165.024 322.273H163.424C163.424 325.569 162.837 328.355 161.72 330.678L163.162 331.371L164.604 332.065C165.969 329.226 166.624 325.947 166.624 322.273H165.024ZM163.162 331.371L161.721 330.676C160.594 333.009 159.07 334.768 157.16 336.009L158.032 337.35L158.904 338.692C161.351 337.101 163.247 334.874 164.602 332.067L163.162 331.371ZM158.032 337.35L157.162 336.008C155.278 337.229 153.092 337.857 150.551 337.857V339.457V341.057C153.651 341.057 156.453 340.281 158.903 338.693L158.032 337.35ZM150.551 339.457V337.857C148.01 337.857 145.817 337.229 143.92 336.006L143.053 337.35L142.186 338.695C144.645 340.281 147.451 341.057 150.551 341.057V339.457ZM143.053 337.35L143.928 336.011C142.029 334.77 140.509 333.011 139.381 330.676L137.94 331.371L136.499 332.067C137.854 334.872 139.743 337.099 142.178 338.69L143.053 337.35ZM137.94 331.371L139.384 330.683C138.276 328.359 137.694 325.57 137.694 322.273H136.094H134.494C134.494 325.945 135.143 329.222 136.496 332.06L137.94 331.371ZM136.094 322.273H137.694C137.694 318.975 138.276 316.193 139.383 313.881L137.94 313.19L136.497 312.499C135.143 315.328 134.494 318.601 134.494 322.273H136.094ZM137.94 313.19L139.382 313.884C140.509 311.54 142.032 309.785 143.937 308.556L143.069 307.212L142.202 305.867C139.751 307.448 137.854 309.679 136.498 312.497L137.94 313.19ZM143.069 307.212L143.941 308.553C145.839 307.32 148.024 306.688 150.551 306.688V305.088V303.488C147.458 303.488 144.656 304.272 142.197 305.87L143.069 307.212ZM150.551 305.088V306.688C153.09 306.688 155.274 307.321 157.157 308.551L158.032 307.212L158.908 305.872C156.457 304.271 153.653 303.488 150.551 303.488V305.088ZM158.032 307.212L157.165 308.556C159.07 309.785 160.592 311.54 161.72 313.884L163.162 313.19L164.604 312.497C163.248 309.679 161.351 307.448 158.9 305.867L158.032 307.212ZM163.162 313.19L161.721 313.886C162.837 316.197 163.424 318.977 163.424 322.273H165.024H166.624C166.624 318.599 165.969 315.324 164.602 312.494L163.162 313.19ZM162.051 322.273H163.651C163.651 319.104 163.121 316.296 161.996 313.899L160.548 314.579L159.1 315.259C159.979 317.131 160.451 319.452 160.451 322.273H162.051ZM160.548 314.579L161.998 313.902C160.889 311.527 159.339 309.641 157.324 308.323L156.448 309.662L155.572 311.001C157.02 311.948 158.204 313.34 159.098 315.256L160.548 314.579ZM156.448 309.662L157.324 308.323C155.315 307.009 153.041 306.363 150.551 306.363V307.963V309.563C152.46 309.563 154.118 310.05 155.572 311.001L156.448 309.662ZM150.551 307.963V306.363C148.07 306.363 145.802 307.01 143.794 308.323L144.67 309.662L145.546 311.001C147.002 310.049 148.654 309.563 150.551 309.563V307.963ZM144.67 309.662L143.794 308.323C141.783 309.639 140.229 311.515 139.108 313.877L140.554 314.562L141.999 315.248C142.904 313.341 144.094 311.951 145.546 311.001L144.67 309.662ZM140.554 314.562L139.105 313.883C137.98 316.28 137.451 319.094 137.451 322.273H139.051H140.651C140.651 319.44 141.124 317.114 142.002 315.242L140.554 314.562ZM139.051 322.273H137.451C137.451 325.441 137.98 328.25 139.105 330.646L140.554 329.967L142.002 329.287C141.123 327.414 140.651 325.094 140.651 322.273H139.051ZM140.554 329.967L139.105 330.646C140.215 333.01 141.763 334.892 143.772 336.219L144.654 334.884L145.536 333.548C144.082 332.588 142.896 331.192 142.002 329.287L140.554 329.967ZM144.654 334.884L143.778 336.223C145.787 337.536 148.061 338.182 150.551 338.182V336.582V334.982C148.642 334.982 146.984 334.496 145.53 333.545L144.654 334.884ZM150.551 336.582V338.182C153.041 338.182 155.315 337.536 157.324 336.223L156.448 334.884L155.572 333.545C154.118 334.496 152.46 334.982 150.551 334.982V336.582ZM156.448 334.884L157.32 336.225C159.345 334.909 160.902 333.03 162.013 330.663L160.564 329.983L159.116 329.303C158.223 331.205 157.036 332.593 155.576 333.542L156.448 334.884ZM160.564 329.983L162.014 330.66C163.139 328.252 163.662 325.437 163.651 322.267L162.051 322.273L160.451 322.279C160.461 325.098 159.994 327.423 159.115 329.306L160.564 329.983ZM197.009 305.545V303.945H195.409V305.545H197.009ZM200.064 305.545H201.664V303.945H200.064V305.545ZM198.463 333.805L199.836 334.626L199.839 334.622L198.463 333.805ZM194.003 338.036L194.764 339.444L194.767 339.442L194.003 338.036ZM180.772 338.02L180.009 339.426V339.426L180.772 338.02ZM176.312 333.789L174.939 334.61V334.61L176.312 333.789ZM174.712 305.545V303.945H173.112V305.545H174.712ZM177.766 305.545H179.366V303.945H177.766V305.545ZM178.959 332.237L177.569 333.03L177.572 333.035L178.959 332.237ZM182.307 335.504L181.533 336.904L181.538 336.907L182.307 335.504ZM192.468 335.504L191.698 334.102V334.102L192.468 335.504ZM195.817 332.237L194.427 331.445L194.425 331.448L195.817 332.237ZM197.009 305.545V307.145H200.064V305.545V303.945H197.009V305.545ZM200.064 305.545H198.464V327.696H200.064H201.664V305.545H200.064ZM200.064 327.696H198.464C198.464 329.711 197.995 331.46 197.087 332.988L198.463 333.805L199.839 334.622C201.066 332.557 201.664 330.233 201.664 327.696H200.064ZM198.463 333.805L197.089 332.985C196.176 334.514 194.905 335.726 193.24 336.63L194.003 338.036L194.767 339.442C196.914 338.277 198.616 336.669 199.836 334.626L198.463 333.805ZM194.003 338.036L193.243 336.629C191.618 337.506 189.683 337.972 187.388 337.972V339.572V341.172C190.124 341.172 192.599 340.614 194.764 339.444L194.003 338.036ZM187.388 339.572V337.972C185.108 337.972 183.173 337.503 181.535 336.614L180.772 338.02L180.009 339.426C182.183 340.606 184.658 341.172 187.388 341.172V339.572ZM180.772 338.02L181.535 336.614C179.871 335.71 178.6 334.497 177.686 332.968L176.312 333.789L174.939 334.61C176.16 336.653 177.862 338.261 180.009 339.426L180.772 338.02ZM176.312 333.789L177.686 332.968C176.781 331.453 176.312 329.711 176.312 327.696H174.712H173.112C173.112 330.233 173.71 332.553 174.939 334.61L176.312 333.789ZM174.712 327.696H176.312V305.545H174.712H173.112V327.696H174.712ZM174.712 305.545V307.145H177.766V305.545V303.945H174.712V305.545ZM177.766 305.545H176.166V327.484H177.766H179.366V305.545H177.766ZM177.766 327.484H176.166C176.166 329.507 176.622 331.369 177.569 333.03L178.959 332.237L180.349 331.445C179.706 330.317 179.366 329.011 179.366 327.484H177.766ZM178.959 332.237L177.572 333.035C178.516 334.678 179.848 335.973 181.533 336.904L182.307 335.504L183.082 334.104C181.892 333.446 180.991 332.562 180.346 331.44L178.959 332.237ZM182.307 335.504L181.538 336.907C183.26 337.852 185.227 338.297 187.388 338.297V336.697V335.097C185.672 335.097 184.252 334.746 183.077 334.102L182.307 335.504ZM187.388 336.697V338.297C189.548 338.297 191.516 337.852 193.238 336.907L192.468 335.504L191.698 334.102C190.523 334.746 189.104 335.097 187.388 335.097V336.697ZM192.468 335.504L193.238 336.907C194.936 335.975 196.272 334.678 197.209 333.026L195.817 332.237L194.425 331.448C193.793 332.562 192.897 333.444 191.698 334.102L192.468 335.504ZM195.817 332.237L197.207 333.03C198.153 331.369 198.609 329.507 198.609 327.484H197.009H195.409C195.409 329.011 195.07 330.317 194.427 331.445L195.817 332.237ZM197.009 327.484H198.609V305.545H197.009H195.409V327.484H197.009ZM211.242 339H209.642V340.6H211.242V339ZM211.242 305.545V303.945H209.642V305.545H211.242ZM227.986 306.836L227.224 308.243L227.236 308.249L227.986 306.836ZM231.596 310.381L230.183 311.133L230.19 311.145L231.596 310.381ZM231.596 320.721L230.192 319.953L230.188 319.96L231.596 320.721ZM228.002 324.217L227.256 322.801V322.801L228.002 324.217ZM212.892 325.474H211.292V327.074H212.892V325.474ZM212.892 322.681V321.081H211.292V322.681H212.892ZM226.352 321.815L225.642 320.382L225.637 320.384L226.352 321.815ZM228.949 319.349L227.542 318.588L227.536 318.599L228.949 319.349ZM228.949 311.737L227.533 312.48L227.536 312.486L228.949 311.737ZM226.336 309.188L225.599 310.608L225.604 310.611L226.336 309.188ZM214.297 308.29V306.69H212.697V308.29H214.297ZM214.297 339V340.6H215.897V339H214.297ZM225.993 323.906L227.397 323.14L226.943 322.306H225.993V323.906ZM234.226 339V340.6H236.921L235.63 338.234L234.226 339ZM230.697 339L229.289 339.76L229.743 340.6H230.697V339ZM222.546 323.906V322.306H219.864L221.138 324.667L222.546 323.906ZM211.242 339H212.842V305.545H211.242H209.642V339H211.242ZM211.242 305.545V307.145H222.04V305.545V303.945H211.242V305.545ZM222.04 305.545V307.145C224.228 307.145 225.93 307.543 227.224 308.243L227.986 306.836L228.747 305.429C226.861 304.408 224.599 303.945 222.04 303.945V305.545ZM227.986 306.836L227.236 308.249C228.572 308.958 229.536 309.917 230.183 311.133L231.596 310.381L233.008 309.629C232.044 307.817 230.601 306.413 228.736 305.423L227.986 306.836ZM231.596 310.381L230.19 311.145C230.862 312.382 231.221 313.839 231.221 315.559H232.821H234.421C234.421 313.38 233.963 311.385 233.002 309.617L231.596 310.381ZM232.821 315.559H231.221C231.221 317.279 230.862 318.729 230.192 319.953L231.596 320.721L232.999 321.489C233.963 319.729 234.421 317.737 234.421 315.559H232.821ZM231.596 320.721L230.188 319.96C229.542 321.156 228.583 322.101 227.256 322.801L228.002 324.217L228.748 325.632C230.601 324.655 232.038 323.269 233.003 321.481L231.596 320.721ZM228.002 324.217L227.256 322.801C225.956 323.487 224.258 323.874 222.089 323.874V325.474V327.074C224.623 327.074 226.868 326.623 228.748 325.632L228.002 324.217ZM222.089 325.474V323.874H212.892V325.474V327.074H222.089V325.474ZM212.892 325.474H214.492V322.681H212.892H211.292V325.474H212.892ZM212.892 322.681V324.281H222.007V322.681V321.081H212.892V322.681ZM222.007 322.681V324.281C223.915 324.281 225.627 323.967 227.068 323.246L226.352 321.815L225.637 320.384C224.768 320.818 223.584 321.081 222.007 321.081V322.681ZM226.352 321.815L227.062 323.249C228.504 322.535 229.627 321.485 230.363 320.099L228.949 319.349L227.536 318.599C227.139 319.347 226.531 319.941 225.642 320.382L226.352 321.815ZM228.949 319.349L230.357 320.11C231.084 318.766 231.415 317.23 231.415 315.559H229.815H228.215C228.215 316.806 227.97 317.797 227.542 318.588L228.949 319.349ZM229.815 315.559H231.415C231.415 313.886 231.083 312.346 230.363 310.987L228.949 311.737L227.536 312.486C227.97 313.305 228.215 314.313 228.215 315.559H229.815ZM228.949 311.737L230.366 310.993C229.627 309.585 228.508 308.506 227.067 307.765L226.336 309.188L225.604 310.611C226.494 311.068 227.117 311.688 227.533 312.48L228.949 311.737ZM226.336 309.188L227.073 307.768C225.624 307.016 223.891 306.69 221.958 306.69V308.29V309.89C223.553 309.89 224.739 310.162 225.599 310.608L226.336 309.188ZM221.958 308.29V306.69H214.297V308.29V309.89H221.958V308.29ZM214.297 308.29H212.697V339H214.297H215.897V308.29H214.297ZM214.297 339V337.4H211.242V339V340.6H214.297V339ZM225.993 323.906L224.588 324.672L232.821 339.766L234.226 339L235.63 338.234L227.397 323.14L225.993 323.906ZM234.226 339V337.4H230.697V339V340.6H234.226V339ZM230.697 339L232.105 338.24L223.954 323.146L222.546 323.906L221.138 324.667L229.289 339.76L230.697 339ZM222.546 323.906V325.506H225.993V323.906V322.306H222.546V323.906ZM268.616 305.545H270.216V303.945H268.616V305.545ZM268.616 339V340.6H270.216V339H268.616ZM265.643 339L264.336 339.922L264.814 340.6H265.643V339ZM245.878 310.985L247.185 310.063L246.707 309.385H245.878V310.985ZM245.616 310.985V309.385H244.016V310.985H245.616ZM245.616 339V340.6H247.216V339H245.616ZM242.562 339H240.962V340.6H242.562V339ZM242.562 305.545V303.945H240.962V305.545H242.562ZM245.518 305.545L246.825 304.622L246.346 303.945H245.518V305.545ZM265.349 333.593L264.043 334.517L264.521 335.193H265.349V333.593ZM265.611 333.593V335.193H267.211V333.593H265.611ZM265.611 305.545V303.945H264.011V305.545H265.611ZM268.616 305.545H267.016V339H268.616H270.216V305.545H268.616ZM268.616 339V337.4H265.643V339V340.6H268.616V339ZM265.643 339L266.951 338.078L247.185 310.063L245.878 310.985L244.57 311.907L264.336 339.922L265.643 339ZM245.878 310.985V309.385H245.616V310.985V312.585H245.878V310.985ZM245.616 310.985H244.016V339H245.616H247.216V310.985H245.616ZM245.616 339V337.4H242.562V339V340.6H245.616V339ZM242.562 339H244.162V305.545H242.562H240.962V339H242.562ZM242.562 305.545V307.145H245.518V305.545V303.945H242.562V305.545ZM245.518 305.545L244.212 306.469L264.043 334.517L265.349 333.593L266.656 332.669L246.825 304.622L245.518 305.545ZM265.349 333.593V335.193H265.611V333.593V331.993H265.349V333.593ZM265.611 333.593H267.211V305.545H265.611H264.011V333.593H265.611ZM265.611 305.545V307.145H268.616V305.545V303.945H265.611V305.545ZM279.811 339H278.211V340.6H279.811V339ZM279.811 305.545V303.945H278.211V305.545H279.811ZM299.217 305.545H300.817V303.945H299.217V305.545ZM299.217 308.29V309.89H300.817V308.29H299.217ZM282.865 308.29V306.69H281.265V308.29H282.865ZM282.865 320.884H281.265V322.484H282.865V320.884ZM298.188 320.884H299.788V319.284H298.188V320.884ZM298.188 323.629V325.229H299.788V323.629H298.188ZM282.865 323.629V322.029H281.265V323.629H282.865ZM282.865 336.256H281.265V337.856H282.865V336.256ZM299.544 336.256H301.144V334.656H299.544V336.256ZM299.544 339V340.6H301.144V339H299.544ZM279.811 339H281.411V305.545H279.811H278.211V339H279.811ZM279.811 305.545V307.145H299.217V305.545V303.945H279.811V305.545ZM299.217 305.545H297.617V308.29H299.217H300.817V305.545H299.217ZM299.217 308.29V306.69H282.865V308.29V309.89H299.217V308.29ZM282.865 308.29H281.265V320.884H282.865H284.465V308.29H282.865ZM282.865 320.884V322.484H298.188V320.884V319.284H282.865V320.884ZM298.188 320.884H296.588V323.629H298.188H299.788V320.884H298.188ZM298.188 323.629V322.029H282.865V323.629V325.229H298.188V323.629ZM282.865 323.629H281.265V336.256H282.865H284.465V323.629H282.865ZM282.865 336.256V337.856H299.544V336.256V334.656H282.865V336.256ZM299.544 336.256H297.944V339H299.544H301.144V336.256H299.544ZM299.544 339V337.4H279.811V339V340.6H299.544V339ZM306.287 305.545V303.945H303.372L304.937 306.405L306.287 305.545ZM309.815 305.545L311.172 304.698L310.702 303.945H309.815V305.545ZM319.731 321.423L318.374 322.271L318.844 323.023H319.731V321.423ZM320.025 321.423V323.023H320.912L321.382 322.271L320.025 321.423ZM329.94 305.545V303.945H329.053L328.583 304.698L329.94 305.545ZM333.469 305.545L334.818 306.405L336.384 303.945H333.469V305.545ZM321.397 324.511L320.047 323.652L319.797 324.045V324.511H321.397ZM321.397 339V340.6H322.997V339H321.397ZM318.359 339H316.759V340.6H318.359V339ZM318.359 324.511H319.959V324.045L319.708 323.652L318.359 324.511ZM306.287 305.545V307.145H309.815V305.545V303.945H306.287V305.545ZM309.815 305.545L308.458 306.393L318.374 322.271L319.731 321.423L321.088 320.576L311.172 304.698L309.815 305.545ZM319.731 321.423V323.023H320.025V321.423V319.823H319.731V321.423ZM320.025 321.423L321.382 322.271L331.297 306.393L329.94 305.545L328.583 304.698L318.668 320.576L320.025 321.423ZM329.94 305.545V307.145H333.469V305.545V303.945H329.94V305.545ZM333.469 305.545L332.119 304.686L320.047 323.652L321.397 324.511L322.747 325.37L334.818 306.405L333.469 305.545ZM321.397 324.511H319.797V339H321.397H322.997V324.511H321.397ZM321.397 339V337.4H318.359V339V340.6H321.397V339ZM318.359 339H319.959V324.511H318.359H316.759V339H318.359ZM318.359 324.511L319.708 323.652L307.637 304.686L306.287 305.545L304.937 306.405L317.009 325.37L318.359 324.511Z" fill="#FFF5DD" fill-opacity="0.6" mask="url(#path-8-outside-3_1504_645)"/>
<path d="M38.0741 285.312C36.1446 285.974 34.3887 286.409 32.8064 286.617C31.2529 286.839 29.8693 286.822 28.6556 286.568C27.4419 286.314 26.4159 285.803 25.5776 285.036C24.7466 284.291 24.1104 283.275 23.6688 281.989C23.1169 280.381 23.1035 278.876 23.6286 277.473C24.1537 276.071 25.1996 274.789 26.7663 273.628C28.3329 272.468 30.4133 271.442 33.0074 270.551C35.3657 269.742 37.5047 269.271 39.4246 269.14C41.3519 269.029 42.9925 269.341 44.3467 270.074C45.7082 270.829 46.698 272.107 47.3162 273.908C47.9196 275.666 47.9229 277.246 47.3261 278.649C46.7367 280.074 45.6369 281.338 44.0267 282.442C42.438 283.539 40.4538 284.495 38.0741 285.312ZM33.6366 272.384C31.3212 273.179 29.4686 274.031 28.079 274.939C26.7107 275.84 25.7912 276.827 25.3205 277.899C24.8498 278.971 24.8352 280.151 25.2767 281.437C25.733 282.766 26.4617 283.702 27.4629 284.245C28.4929 284.802 29.8316 285.002 31.4788 284.844C33.1334 284.707 35.1184 284.242 37.4338 283.447C39.5777 282.711 41.3411 281.914 42.7241 281.056C44.1359 280.212 45.0986 279.246 45.6122 278.159C46.1545 277.086 46.1866 275.853 45.7082 274.46C45.2299 273.066 44.4436 272.102 43.3493 271.567C42.2549 271.032 40.8878 270.854 39.2479 271.033C37.6295 271.206 35.759 271.656 33.6366 272.384Z" fill="white" fill-opacity="0.6"/>
<path d="M49.0825 309.162C47.2503 310.059 45.5621 310.709 44.0179 311.111C42.504 311.525 41.1291 311.68 39.8932 311.579C38.6574 311.477 37.5758 311.098 36.6487 310.442C35.7315 309.806 34.9739 308.877 34.3758 307.655C33.6282 306.129 33.4278 304.637 33.7744 303.18C34.1211 301.723 34.9995 300.321 36.4096 298.975C37.8198 297.628 39.7565 296.352 42.2197 295.146C44.459 294.049 46.523 293.316 48.4116 292.947C50.3101 292.598 51.9768 292.703 53.4117 293.262C54.8564 293.842 55.9975 294.987 56.8348 296.697C57.6521 298.366 57.8519 299.934 57.4342 301.4C57.0265 302.887 56.0924 304.278 54.632 305.574C53.192 306.859 51.3421 308.055 49.0825 309.162ZM43.072 296.886C40.8734 297.963 39.1411 299.038 37.8751 300.112C36.6295 301.176 35.8399 302.27 35.5061 303.392C35.1724 304.515 35.3045 305.686 35.9026 306.908C36.5206 308.17 37.3601 309.008 38.421 309.423C39.5123 309.847 40.8654 309.879 42.4802 309.517C44.105 309.176 46.0167 308.467 48.2153 307.391C50.251 306.394 51.9016 305.384 53.1672 304.36C54.463 303.347 55.2982 302.269 55.6727 301.127C56.0774 299.995 55.9559 298.767 55.308 297.444C54.6601 296.121 53.7599 295.262 52.6076 294.867C51.4552 294.472 50.0766 294.466 48.4718 294.848C46.8873 295.22 45.0873 295.899 43.072 296.886Z" fill="white" fill-opacity="0.6"/>
<path d="M67.743 326.951C66.8518 327.535 65.947 327.87 65.0284 327.957C64.1098 328.044 63.2214 327.908 62.3629 327.549C61.5169 327.209 60.7291 326.669 59.9995 325.927L59.9426 325.964C60.7899 327.713 61.0635 329.268 60.7634 330.629C60.4757 332.01 59.6114 333.173 58.1704 334.117C57.0328 334.862 55.8289 335.258 54.5586 335.304C53.3197 335.357 52.084 335.002 50.8516 334.237C49.6506 333.479 48.5098 332.276 47.4291 330.626C46.7211 329.546 46.1513 328.469 45.7198 327.397C45.3073 326.312 45.036 325.257 44.9059 324.231L46.4417 323.225C46.5718 324.251 46.8428 325.347 47.2546 326.513C47.6665 327.68 48.1954 328.756 48.8413 329.742C50.1083 331.676 51.4476 332.831 52.8591 333.207C54.283 333.601 55.6965 333.339 57.0996 332.42C58.1044 331.762 58.7488 330.987 59.0325 330.097C59.3163 329.206 59.2928 328.219 58.962 327.135C58.6501 326.039 58.0905 324.874 57.2831 323.642L55.867 321.481L57.289 320.549L58.7237 322.739C59.4193 323.801 60.1954 324.634 61.0518 325.238C61.9083 325.842 62.8079 326.16 63.7506 326.193C64.7058 326.245 65.6479 325.966 66.5769 325.357C67.7904 324.562 68.4458 323.578 68.5433 322.403C68.6721 321.234 68.3079 319.996 67.4508 318.688C66.9912 317.986 66.4806 317.372 65.919 316.846C65.3764 316.307 64.7766 315.847 64.1195 315.464C63.4939 315.088 62.7956 314.746 62.0248 314.438L62.6221 312.868C63.7381 313.248 64.8368 313.829 65.9181 314.611C67.0119 315.412 67.9873 316.467 68.8444 317.775C70.0741 319.652 70.5694 321.4 70.33 323.021C70.1221 324.647 69.2597 325.957 67.743 326.951Z" fill="white" fill-opacity="0.6"/>
<path d="M79.5284 351.856C77.9742 353.177 76.4986 354.224 75.1015 354.995C73.7364 355.769 72.4425 356.259 71.2198 356.466C69.997 356.672 68.8554 356.572 67.795 356.164C66.7492 355.774 65.7858 355.061 64.9048 354.025C63.8036 352.73 63.2412 351.334 63.2177 349.836C63.1941 348.339 63.6995 346.764 64.7337 345.111C65.7679 343.458 67.3298 341.743 69.4193 339.966C71.3188 338.351 73.138 337.132 74.8771 336.308C76.6308 335.501 78.2719 335.191 79.8003 335.379C81.3435 335.585 82.7318 336.413 83.9651 337.863C85.1691 339.279 85.7496 340.749 85.7067 342.273C85.6784 343.815 85.1165 345.393 84.021 347.009C82.9427 348.61 81.4451 350.226 79.5284 351.856ZM70.6746 341.443C68.8097 343.029 67.3963 344.498 66.4345 345.851C65.4901 347.19 64.9946 348.444 64.9481 349.615C64.9017 350.785 65.319 351.888 66.1999 352.924C67.1103 353.994 68.1306 354.6 69.261 354.739C70.4233 354.882 71.7423 354.578 73.218 353.829C74.7083 353.098 76.386 351.939 78.251 350.353C79.9778 348.885 81.3281 347.499 82.302 346.195C83.3078 344.893 83.8512 343.643 83.9322 342.443C84.0451 341.246 83.6244 340.087 82.67 338.964C81.7156 337.842 80.6313 337.232 79.4172 337.133C78.2031 337.035 76.8655 337.369 75.4045 338.135C73.9608 338.887 72.3842 339.989 70.6746 341.443Z" fill="white" fill-opacity="0.6"/>
<path d="M89.9976 378.807L78.6892 368.451L79.7914 367.248L89.8227 366.614C91.488 366.541 92.9262 366.414 94.1376 366.232C95.3809 366.049 96.4745 365.744 97.4183 365.318C98.3775 364.875 99.2474 364.227 100.028 363.374C101.054 362.254 101.516 361.095 101.415 359.896C101.33 358.681 100.727 357.56 99.6072 356.534C98.8216 355.815 97.9392 355.268 96.9602 354.894C95.9979 354.535 94.9374 354.317 93.7789 354.24L93.9201 352.525C94.789 352.583 95.6294 352.722 96.4413 352.943C97.2532 353.164 98.0205 353.468 98.7434 353.853C99.4829 354.254 100.154 354.729 100.755 355.281C101.792 356.23 102.502 357.249 102.887 358.339C103.304 359.428 103.4 360.515 103.175 361.6C102.965 362.668 102.424 363.678 101.551 364.631C100.663 365.6 99.6766 366.326 98.5907 366.806C97.5216 367.303 96.3173 367.644 94.9779 367.832C93.6385 368.019 92.1362 368.149 90.4709 368.222L81.7826 368.748L81.7137 368.824L91.1917 377.504L89.9976 378.807Z" fill="white" fill-opacity="0.6"/>
<path d="M120.34 371.048C121.467 371.848 122.326 372.735 122.914 373.707C123.515 374.662 123.814 375.652 123.809 376.677C123.805 377.702 123.449 378.713 122.741 379.712C122.177 380.507 121.494 381.078 120.691 381.426C119.921 381.769 119.057 381.948 118.101 381.965C117.157 381.963 116.148 381.858 115.072 381.651C115.771 382.703 116.304 383.734 116.671 384.744C117.038 385.755 117.183 386.747 117.105 387.719C117.039 388.673 116.679 389.612 116.023 390.537C115.224 391.665 114.264 392.43 113.146 392.831C112.046 393.246 110.864 393.325 109.601 393.069C108.357 392.825 107.115 392.265 105.876 391.386C104.601 390.481 103.642 389.482 103.001 388.388C102.372 387.276 102.068 386.157 102.088 385.032C102.139 383.901 102.545 382.8 103.306 381.727C103.987 380.766 104.772 380.071 105.658 379.644C106.563 379.23 107.537 379.032 108.581 379.049C109.656 379.061 110.746 379.209 111.851 379.492C111.361 378.617 110.961 377.75 110.652 376.892C110.375 376.029 110.268 375.161 110.331 374.288C110.426 373.411 110.781 372.537 111.397 371.668C112.079 370.707 112.903 370.054 113.869 369.711C114.853 369.381 115.902 369.333 117.014 369.566C118.14 369.781 119.249 370.275 120.34 371.048ZM104.859 382.829C104.033 383.993 103.771 385.225 104.073 386.523C104.394 387.834 105.294 389.014 106.773 390.063C108.252 391.112 109.675 391.593 111.043 391.507C112.423 391.402 113.559 390.721 114.451 389.463C114.975 388.724 115.252 387.961 115.281 387.176C115.341 386.385 115.189 385.541 114.825 384.644C114.48 383.76 113.963 382.824 113.274 381.835L112.821 381.181C111.679 380.871 110.609 380.696 109.61 380.654C108.643 380.607 107.755 380.742 106.948 381.059C106.158 381.388 105.462 381.978 104.859 382.829ZM119.368 372.36C118.184 371.521 117.001 371.113 115.818 371.135C114.654 371.171 113.685 371.734 112.911 372.825C112.387 373.565 112.117 374.318 112.101 375.085C112.103 375.864 112.288 376.662 112.654 377.478C113.034 378.275 113.519 379.119 114.11 380.01C115.209 380.262 116.186 380.413 117.04 380.463C117.907 380.494 118.675 380.371 119.343 380.095C120.043 379.813 120.642 379.321 121.14 378.619C121.914 377.528 122.127 376.443 121.781 375.363C121.467 374.279 120.662 373.278 119.368 372.36Z" fill="white" fill-opacity="0.6"/>
<path d="M140.751 404.738L137.185 402.826L134.326 408.16L132.677 407.276L135.537 401.943L124.78 396.175L125.519 394.797L144.093 385.697L145.861 386.645L138.021 401.268L141.586 403.18L140.751 404.738ZM140.63 392.444C140.941 391.864 141.214 391.355 141.449 390.916C141.685 390.476 141.899 390.077 142.092 389.717C142.305 389.368 142.502 389.024 142.684 388.684C142.886 388.355 143.088 388.026 143.29 387.698L143.2 387.649C142.694 387.97 142.214 388.265 141.76 388.536C141.307 388.807 140.787 389.081 140.201 389.359L127.413 395.581L136.373 400.384L140.63 392.444Z" fill="white" fill-opacity="0.6"/>
<path d="M165.814 414.895L162.038 413.441L159.864 419.089L158.119 418.417L160.293 412.769L148.902 408.384L149.464 406.925L166.762 395.586L168.634 396.307L162.673 411.791L166.449 413.245L165.814 414.895ZM164.165 402.711C164.401 402.098 164.609 401.558 164.788 401.093C164.967 400.627 165.13 400.204 165.276 399.824C165.444 399.451 165.597 399.085 165.736 398.725C165.895 398.374 166.055 398.022 166.215 397.671L166.119 397.634C165.657 398.015 165.218 398.368 164.801 398.693C164.384 399.019 163.902 399.355 163.355 399.703L151.441 407.467L160.928 411.119L164.165 402.711Z" fill="white" fill-opacity="0.6"/>
<path d="M206.274 403.656C208.222 403.716 209.835 403.993 211.112 404.486C212.39 404.957 213.331 405.689 213.935 406.683C214.562 407.678 214.851 408.979 214.801 410.588C214.762 411.834 214.502 412.892 214.022 413.761C213.542 414.608 212.897 415.302 212.086 415.844C211.299 416.364 210.414 416.756 209.43 417.02L215.749 428.238L213.404 428.165L207.545 417.506L201.767 417.327L201.442 427.794L199.471 427.732L200.225 403.468L206.274 403.656ZM206.05 405.384L202.142 405.262L201.82 415.627L206.408 415.77C208.379 415.831 209.911 415.425 211.004 414.552C212.12 413.657 212.705 412.337 212.76 410.592C212.798 409.346 212.58 408.353 212.104 407.613C211.628 406.872 210.885 406.328 209.875 405.979C208.866 405.63 207.591 405.432 206.05 405.384Z" fill="white" fill-opacity="0.6"/>
<path d="M234.993 403.967C233.503 404.107 232.185 404.493 231.037 405.124C229.911 405.731 228.985 406.546 228.262 407.57C227.536 408.572 227.021 409.747 226.715 411.096C226.407 412.423 226.327 413.876 226.475 415.456C226.679 417.622 227.195 419.486 228.025 421.048C228.852 422.586 229.984 423.732 231.421 424.485C232.88 425.236 234.626 425.516 236.657 425.325C237.83 425.215 238.905 425.023 239.881 424.749C240.857 424.476 241.75 424.164 242.559 423.815L242.718 425.507C241.935 425.9 241.045 426.234 240.046 426.51C239.07 426.783 237.916 426.983 236.585 427.108C234.17 427.335 232.09 427.006 230.346 426.123C228.623 425.237 227.257 423.897 226.246 422.103C225.257 420.306 224.646 418.155 224.41 415.65C224.243 413.867 224.348 412.195 224.725 410.634C225.102 409.074 225.735 407.694 226.624 406.495C227.513 405.296 228.64 404.325 230.005 403.582C231.392 402.837 233.011 402.378 234.861 402.204C236.012 402.096 237.129 402.105 238.21 402.231C239.315 402.355 240.35 402.588 241.315 402.93L240.699 404.729C239.801 404.381 238.869 404.15 237.902 404.036C236.955 403.897 235.986 403.874 234.993 403.967Z" fill="white" fill-opacity="0.6"/>
<path d="M253.939 412.869L253.409 410.479L264.749 407.964L265.28 410.353L253.939 412.869Z" fill="white" fill-opacity="0.6"/>
<path d="M293.078 406.416C293.566 407.782 293.636 409.057 293.288 410.24C292.954 411.394 292.273 412.419 291.246 413.316C290.218 414.212 288.946 414.931 287.431 415.472C286.491 415.808 285.629 416.055 284.844 416.215C284.066 416.397 283.345 416.534 282.68 416.627C282.008 416.698 281.392 416.726 280.832 416.709L280.169 414.852C281.095 414.882 282.137 414.835 283.296 414.71C284.447 414.564 285.663 414.262 286.944 413.805C288.118 413.386 289.081 412.849 289.835 412.195C290.609 411.533 291.124 410.784 291.379 409.947C291.655 409.102 291.613 408.178 291.255 407.175C290.927 406.257 290.447 405.586 289.815 405.162C289.203 404.731 288.384 404.458 287.356 404.343C286.342 404.2 285.083 404.144 283.578 404.176C282.495 404.177 281.505 404.134 280.607 404.045C279.73 403.949 278.937 403.751 278.228 403.451C277.519 403.15 276.908 402.719 276.394 402.156C275.88 401.593 275.456 400.842 275.12 399.903C274.671 398.644 274.614 397.473 274.949 396.39C275.285 395.308 275.917 394.348 276.845 393.511C277.795 392.666 278.964 391.996 280.351 391.501C281.462 391.104 282.556 390.834 283.636 390.689C284.708 390.523 285.764 390.483 286.806 390.568L286.769 392.386C285.735 392.322 284.725 392.358 283.739 392.494C282.752 392.629 281.8 392.861 280.882 393.189C279.815 393.57 278.933 394.065 278.236 394.675C277.553 395.256 277.097 395.936 276.87 396.715C276.635 397.473 276.678 398.3 276.998 399.197C277.349 400.178 277.844 400.892 278.485 401.337C279.125 401.783 279.923 402.063 280.879 402.179C281.827 402.274 282.961 402.314 284.28 402.301C285.792 402.29 287.124 402.38 288.275 402.571C289.44 402.732 290.416 403.106 291.203 403.692C292.011 404.27 292.636 405.178 293.078 406.416Z" fill="white" fill-opacity="0.6"/>
<path d="M302.431 381.921C303.665 381.298 304.85 380.953 305.985 380.888C307.11 380.802 308.124 381.001 309.029 381.484C309.933 381.967 310.661 382.755 311.212 383.847C311.652 384.717 311.838 385.589 311.77 386.461C311.713 387.302 311.468 388.15 311.035 389.003C310.592 389.836 310.028 390.679 309.342 391.534C310.599 391.407 311.759 391.418 312.824 391.565C313.889 391.713 314.833 392.049 315.657 392.573C316.47 393.076 317.131 393.834 317.642 394.846C318.266 396.08 318.493 397.285 318.326 398.462C318.178 399.628 317.696 400.71 316.879 401.706C316.082 402.693 315.006 403.528 313.65 404.213C312.254 404.918 310.923 405.298 309.656 405.354C308.379 405.39 307.247 405.136 306.262 404.592C305.286 404.018 304.502 403.144 303.91 401.971C303.378 400.919 303.131 399.901 303.168 398.918C303.225 397.924 303.505 396.97 304.008 396.056C304.521 395.111 305.161 394.216 305.928 393.372C304.925 393.396 303.972 393.344 303.069 393.216C302.176 393.057 301.359 392.746 300.617 392.283C299.885 391.789 299.279 391.067 298.799 390.116C298.268 389.064 298.076 388.03 298.224 387.016C298.393 385.992 298.84 385.042 299.566 384.167C300.282 383.273 301.237 382.524 302.431 381.921ZM305.609 401.113C306.253 402.387 307.219 403.194 308.508 403.534C309.817 403.863 311.281 403.619 312.899 402.802C314.518 401.984 315.609 400.951 316.171 399.702C316.724 398.433 316.653 397.11 315.958 395.734C315.549 394.925 315.005 394.324 314.324 393.931C313.653 393.508 312.836 393.248 311.873 393.151C310.93 393.043 309.86 393.062 308.665 393.209L307.874 393.303C307.067 394.168 306.411 395.032 305.908 395.896C305.415 396.729 305.119 397.577 305.021 398.439C304.943 399.291 305.139 400.182 305.609 401.113ZM303.136 383.393C301.842 384.047 300.928 384.902 300.394 385.958C299.882 387.005 299.927 388.124 300.529 389.318C300.938 390.128 301.478 390.718 302.148 391.091C302.839 391.453 303.631 391.663 304.523 391.72C305.405 391.757 306.378 391.723 307.442 391.617C308.178 390.763 308.768 389.97 309.211 389.238C309.644 388.486 309.895 387.75 309.963 387.03C310.041 386.28 309.886 385.52 309.498 384.751C308.895 383.558 308.036 382.862 306.92 382.663C305.814 382.435 304.553 382.678 303.136 383.393Z" fill="white" fill-opacity="0.6"/>
<path d="M336.033 373.923C337.007 375.371 337.793 376.782 338.389 378.156C339.005 379.518 339.416 380.839 339.623 382.121C339.83 383.403 339.819 384.625 339.591 385.789C339.351 386.935 338.862 388.015 338.125 389.03C337.406 390.033 336.436 390.945 335.213 391.768C334.743 392.084 334.226 392.391 333.661 392.689C333.097 392.987 332.598 393.2 332.165 393.328L331.197 391.889C331.624 391.793 332.116 391.611 332.675 391.345C333.233 391.079 333.766 390.775 334.274 390.433C335.478 389.623 336.382 388.714 336.988 387.705C337.599 386.666 337.931 385.555 337.982 384.372C338.04 383.159 337.821 381.858 337.324 380.471C336.847 379.071 336.127 377.616 335.165 376.105L335.052 376.181C335.105 376.828 335.049 377.536 334.882 378.303C334.703 379.052 334.351 379.808 333.826 380.571C333.308 381.303 332.569 381.991 331.61 382.636C330.406 383.446 329.207 383.898 328.013 383.991C326.819 384.084 325.683 383.837 324.606 383.251C323.516 382.646 322.547 381.713 321.699 380.453C320.788 379.099 320.241 377.759 320.06 376.434C319.897 375.095 320.092 373.843 320.647 372.678C321.208 371.481 322.127 370.453 323.406 369.592C324.516 368.845 325.63 368.41 326.748 368.286C327.867 368.162 328.964 368.311 330.041 368.734C331.137 369.144 332.186 369.79 333.19 370.672C334.212 371.542 335.159 372.625 336.033 373.923ZM324.336 370.974C322.907 371.936 322.089 373.156 321.881 374.634C321.661 376.094 322.121 377.67 323.259 379.362C324.259 380.848 325.417 381.776 326.732 382.148C328.054 382.488 329.476 382.146 331 381.121C332.053 380.412 332.816 379.598 333.29 378.678C333.751 377.739 333.98 376.82 333.976 375.921C333.991 375.01 333.79 374.244 333.372 373.623C332.98 373.04 332.465 372.458 331.827 371.876C331.19 371.294 330.465 370.825 329.653 370.471C328.859 370.103 328.009 369.937 327.104 369.972C326.199 370.008 325.276 370.342 324.336 370.974Z" fill="white" fill-opacity="0.6"/>
<path d="M357.351 358.489C358.691 360.027 359.756 361.49 360.544 362.877C361.335 364.233 361.841 365.52 362.063 366.74C362.284 367.961 362.198 369.103 361.804 370.169C361.426 371.219 360.725 372.191 359.7 373.085C358.419 374.202 357.029 374.782 355.532 374.824C354.035 374.866 352.454 374.38 350.789 373.366C349.123 372.352 347.389 370.811 345.587 368.744C343.949 366.864 342.707 365.06 341.861 363.331C341.033 361.588 340.703 359.951 340.873 358.42C341.059 356.874 341.87 355.476 343.305 354.225C344.706 353.004 346.169 352.405 347.693 352.429C349.235 352.439 350.82 352.981 352.45 354.057C354.064 355.115 355.698 356.593 357.351 358.489ZM347.048 367.47C348.656 369.316 350.143 370.711 351.508 371.656C352.858 372.584 354.119 373.064 355.289 373.096C356.46 373.128 357.558 372.697 358.583 371.804C359.642 370.88 360.235 369.852 360.361 368.72C360.489 367.556 360.169 366.241 359.402 364.775C358.652 363.294 357.473 361.63 355.864 359.785C354.375 358.076 352.972 356.743 351.656 355.785C350.343 354.796 349.086 354.268 347.885 354.202C346.687 354.103 345.533 354.538 344.422 355.506C343.311 356.475 342.714 357.566 342.631 358.781C342.548 359.997 342.898 361.33 343.682 362.782C344.452 364.216 345.573 365.779 347.048 367.47Z" fill="white" fill-opacity="0.6"/>
<path d="M364.763 332.979L376.818 355.923L375.549 357.342L363.494 334.399L364.763 332.979Z" fill="white" fill-opacity="0.6"/>
<path d="M402.011 323.165L400.677 325.095L385.07 325.554L385.728 329.686L393.701 335.194L392.58 336.816L372.607 323.019L373.727 321.396L384.106 328.566C383.935 327.896 383.776 327.208 383.631 326.502C383.467 325.782 383.302 325.063 383.138 324.343L380.51 311.577L381.882 309.591L384.763 323.606L402.011 323.165Z" fill="white" fill-opacity="0.6"/>
<path d="M388.732 297.006C389.632 295.277 390.581 293.944 391.58 293.007C392.558 292.06 393.626 291.53 394.784 291.417C395.952 291.284 397.25 291.589 398.677 292.332C399.783 292.907 400.624 293.6 401.198 294.41C401.753 295.21 402.099 296.093 402.235 297.058C402.362 297.993 402.331 298.96 402.143 299.961L414.991 299.135L413.908 301.216L401.762 301.871L399.094 306.998L408.383 311.832L407.473 313.582L385.938 302.375L388.732 297.006ZM390.192 297.958L388.387 301.426L397.586 306.213L399.705 302.142C400.615 300.392 400.914 298.836 400.601 297.472C400.279 296.078 399.344 294.978 397.796 294.173C396.69 293.597 395.7 293.363 394.827 293.471C393.953 293.578 393.14 294.011 392.388 294.769C391.635 295.528 390.903 296.59 390.192 297.958Z" fill="white" fill-opacity="0.6"/>
<path d="M422.411 280.521L421.761 282.274L404.833 275.996C404.217 275.767 403.686 275.57 403.239 275.405C402.793 275.239 402.383 275.075 402.008 274.912C401.633 274.749 401.276 274.604 400.936 274.478C401.102 274.878 401.254 275.249 401.394 275.59C401.512 275.924 401.651 276.363 401.812 276.906L403.084 281.004L401.455 281.488L399.094 273.577L399.65 272.079L422.411 280.521Z" fill="white" fill-opacity="0.6"/>
</g>
<defs>
<filter id="filter0_in_1504_645" x="0" y="0" width="440" height="440" filterUnits="userSpaceOnUse" color-interpolation-filters="sRGB">
<feFlood flood-opacity="0" result="BackgroundImageFix"/>
<feBlend mode="normal" in="SourceGraphic" in2="BackgroundImageFix" result="shape"/>
<feColorMatrix in="SourceAlpha" type="matrix" values="0 0 0 0 0 0 0 0 0 0 0 0 0 0 0 0 0 0 127 0" result="hardAlpha"/>
<feOffset/>
<feGaussianBlur stdDeviation="10"/>
<feComposite in2="hardAlpha" operator="arithmetic" k2="-1" k3="1"/>
<feColorMatrix type="matrix" values="0 0 0 0 0 0 0 0 0 0 0 0 0 0 0 0 0 0 0.25 0"/>
<feBlend mode="normal" in2="shape" result="effect1_innerShadow_1504_645"/>
<feTurbulence type="fractalNoise" baseFrequency="0.5 0.5" stitchTiles="stitch" numOctaves="3" result="noise" seed="2092" />
<feColorMatrix in="noise" type="luminanceToAlpha" result="alphaNoise" />
<feComponentTransfer in="alphaNoise" result="coloredNoise1">
<feFuncA type="discrete" tableValues="0 0 0 0 0 0 0 0 0 0 0 0 1 1 1 1 1 1 1 1 1 1 1 1 1 1 1 1 1 1 1 1 1 1 1 1 1 1 0 0 0 0 0 0 0 0 0 0 0 0 0 0 0 0 0 0 0 0 0 0 0 0 0 0 0 0 0 0 0 0 0 0 0 0 0 0 0 0 0 0 0 0 0 0 0 0 0 0 0 0 0 0 0 0 0 0 0 0 0 0 "/>
</feComponentTransfer>
<feComposite operator="in" in2="effect1_innerShadow_1504_645" in="coloredNoise1" result="noise1Clipped" />
<feComponentTransfer in="alphaNoise" result="coloredNoise2">
<feFuncA type="discrete" tableValues="0 0 0 0 0 0 0 0 0 0 0 0 0 0 0 0 0 0 0 0 0 0 0 0 0 0 0 0 0 0 0 0 0 0 0 0 0 0 0 0 0 0 0 0 0 0 0 0 0 0 0 0 0 0 0 0 0 0 0 0 0 0 1 1 1 1 1 1 1 1 1 1 1 1 1 1 1 1 1 1 1 1 1 1 1 1 1 1 0 0 0 0 0 0 0 0 0 0 0 0 "/>
</feComponentTransfer>
<feComposite operator="in" in2="effect1_innerShadow_1504_645" in="coloredNoise2" result="noise2Clipped" />
<feFlood flood-color="rgba(113, 165, 255, 0.3)" result="color1Flood" />
<feComposite operator="in" in2="noise1Clipped" in="color1Flood" result="color1" />
<feFlood flood-color="rgba(0, 0, 0, 0.1)" result="color2Flood" />
<feComposite operator="in" in2="noise2Clipped" in="color2Flood" result="color2" />
<feMerge result="effect2_noise_1504_645">
<feMergeNode in="effect1_innerShadow_1504_645" />
<feMergeNode in="color1" />
<feMergeNode in="color2" />
</feMerge>
</filter>
<filter id="filter1_i_1504_645" x="195" y="195" width="51" height="53" filterUnits="userSpaceOnUse" color-interpolation-filters="sRGB">
<feFlood flood-opacity="0" result="BackgroundImageFix"/>
<feBlend mode="normal" in="SourceGraphic" in2="BackgroundImageFix" result="shape"/>
<feColorMatrix in="SourceAlpha" type="matrix" values="0 0 0 0 0 0 0 0 0 0 0 0 0 0 0 0 0 0 127 0" result="hardAlpha"/>
<feOffset dx="1" dy="3"/>
<feGaussianBlur stdDeviation="6.5"/>
<feComposite in2="hardAlpha" operator="arithmetic" k2="-1" k3="1"/>
<feColorMatrix type="matrix" values="0 0 0 0 0 0 0 0 0 0 0 0 0 0 0 0 0 0 0.25 0"/>
<feBlend mode="normal" in2="shape" result="effect1_innerShadow_1504_645"/>
</filter>
<filter id="filter2_d_1504_645" x="199" y="204" width="44" height="44" filterUnits="userSpaceOnUse" color-interpolation-filters="sRGB">
<feFlood flood-opacity="0" result="BackgroundImageFix"/>
<feColorMatrix in="SourceAlpha" type="matrix" values="0 0 0 0 0 0 0 0 0 0 0 0 0 0 0 0 0 0 127 0" result="hardAlpha"/>
<feOffset dx="1" dy="6"/>
<feGaussianBlur stdDeviation="6"/>
<feComposite in2="hardAlpha" operator="out"/>
<feColorMatrix type="matrix" values="0 0 0 0 0 0 0 0 0 0 0 0 0 0 0 0 0 0 0.25 0"/>
<feBlend mode="normal" in2="BackgroundImageFix" result="effect1_dropShadow_1504_645"/>
<feBlend mode="normal" in="SourceGraphic" in2="effect1_dropShadow_1504_645" result="shape"/>
</filter>
</defs>
</svg>
