<svg width="440" height="440" viewBox="0 0 440 440" fill="none" xmlns="http://www.w3.org/2000/svg">
<g clip-path="url(#clip0_1505_861)">
<rect width="440" height="440" rx="220" fill="#3D9872"/>
<g filter="url(#filter0_i_1505_861)">
<rect x="50" y="50" width="340" height="340" rx="170" fill="#3D9872"/>
</g>
<path d="M120.316 401.454L141.346 411.113L139.313 415.541L118.283 405.882L120.316 401.454ZM123.304 389.516L148.837 401.243L141.072 418.151L136.148 415.89L141.898 403.371L125.982 396.061L120.215 408.618L115.521 406.462L123.304 389.516ZM139.585 373.792L144.025 377.911C142.472 379.077 140.838 380.253 139.123 381.437C137.446 382.608 135.79 383.696 134.157 384.702C132.536 385.683 131.036 386.535 129.656 387.257L126.306 383.684C127.708 382.911 129.2 381.979 130.78 380.886C132.372 379.769 133.93 378.589 135.455 377.349C137.006 376.12 138.382 374.934 139.585 373.792ZM145.624 384.793L150.477 383.786C151.282 385.388 152.054 387.129 152.793 389.009C153.568 390.875 154.218 392.714 154.742 394.526C155.302 396.325 155.662 397.923 155.821 399.321L150.45 400.551C150.341 399.176 150.038 397.589 149.54 395.789C149.079 393.975 148.504 392.108 147.814 390.189C147.124 388.27 146.394 386.471 145.624 384.793ZM122.919 379.587C124.876 380.424 127.055 381.348 129.457 382.358C131.895 383.355 134.448 384.405 137.116 385.506C139.809 386.62 142.54 387.751 145.309 388.9C148.078 390.049 150.797 391.174 153.464 392.276L151.24 396.616C148.524 395.553 145.788 394.466 143.032 393.354C140.288 392.217 137.59 391.116 134.936 390.051C132.319 388.973 129.83 387.953 127.468 386.991C125.117 386.004 122.983 385.116 121.065 384.328L122.919 379.587Z" fill="#1E5C47"/>
<path d="M176.28 395.735L210.629 400.605L207.669 421.48L202.43 420.737L204.694 404.769L180.575 401.35L178.281 417.526L173.291 416.819L176.28 395.735ZM176.889 409.99L206.331 414.164L205.635 419.071L176.194 414.897L176.889 409.99ZM191.694 390.54L196.975 391.288L191.44 430.336L186.158 429.587L191.694 390.54Z" fill="#1E5C47"/>
<path d="M240.814 394.569L265.444 390.874L266.03 394.778L241.4 398.473L240.814 394.569ZM256.491 416.127L267.581 414.464L268.161 418.327L257.071 419.99L256.491 416.127ZM241.802 405.972L268.094 402.028L268.674 405.891L242.382 409.835L241.802 405.972ZM243.406 399.956L264.63 396.772L266.929 412.099L245.705 415.282L245.15 411.586L261.764 409.093L260.587 401.243L243.973 403.735L243.406 399.956ZM249.858 390.027L254.469 389.335L259.951 425.886L254.942 423.92L249.858 390.027ZM245.584 415.895L250.199 415.797C250.224 418.795 249.932 421.571 249.325 424.125C248.74 426.648 247.777 428.817 246.436 430.632C246.121 430.424 245.702 430.175 245.177 429.886C244.68 429.593 244.158 429.317 243.609 429.06C243.089 428.798 242.634 428.597 242.245 428.457C243.545 426.932 244.443 425.084 244.938 422.914C245.434 420.745 245.649 418.405 245.584 415.895ZM249.437 418.927C250.469 420.527 251.689 421.675 253.096 422.37C254.503 423.065 256.046 423.443 257.725 423.502C259.432 423.557 261.243 423.456 263.158 423.197C263.462 423.151 263.961 423.076 264.653 422.973C265.345 422.869 266.107 422.754 266.938 422.63C267.796 422.501 268.599 422.381 269.347 422.268C270.09 422.129 270.681 422.012 271.12 421.918C270.976 422.279 270.847 422.737 270.732 423.292C270.617 423.848 270.53 424.399 270.47 424.945C270.411 425.492 270.37 425.98 270.35 426.407L268.688 426.657L263.455 427.442C260.99 427.811 258.71 427.899 256.614 427.703C254.55 427.532 252.658 426.909 250.94 425.836C249.218 424.736 247.634 423.048 246.189 420.773L249.437 418.927ZM229.442 414.452C231.049 413.842 232.956 413.061 235.163 412.107C237.398 411.149 239.642 410.161 241.896 409.143L243.192 413.536C241.155 414.492 239.091 415.453 236.999 416.418C234.935 417.379 233.014 418.262 231.238 419.066L229.442 414.452ZM228.156 401.351L240.866 399.445L241.551 404.014L228.841 405.92L228.156 401.351ZM231.34 392.847L235.909 392.162L240.968 425.888C241.138 427.024 241.148 427.942 240.999 428.644C240.881 429.37 240.533 429.974 239.954 430.457C239.403 430.936 238.667 431.316 237.747 431.595C236.854 431.871 235.713 432.099 234.324 432.279C234.177 431.678 233.911 430.939 233.524 430.063C233.142 429.214 232.749 428.48 232.345 427.861C233.124 427.773 233.835 427.694 234.476 427.627C235.14 427.527 235.595 427.444 235.84 427.379C236.089 427.342 236.249 427.276 236.32 427.18C236.414 427.053 236.44 426.851 236.399 426.574L231.34 392.847Z" fill="#1E5C47"/>
<path d="M293.768 394.452L300.35 408.483L295.977 410.534L291.375 400.724L287.079 402.739L285.099 398.519L293.768 394.452ZM299.494 406.658C300.824 407.58 302.303 408.031 303.932 408.009C305.549 407.962 307.338 407.524 309.301 406.696C310.465 406.212 311.852 405.608 313.461 404.884C315.083 404.123 316.763 403.32 318.5 402.474C320.263 401.616 321.969 400.769 323.618 399.934C325.281 399.061 326.754 398.246 328.038 397.489C328.015 397.902 328.033 398.435 328.092 399.088C328.164 399.703 328.243 400.332 328.327 400.972C328.436 401.602 328.554 402.149 328.68 402.616C327.55 403.239 326.23 403.92 324.721 404.659C323.212 405.398 321.646 406.148 320.024 406.909C318.413 407.695 316.842 408.432 315.309 409.12C313.788 409.834 312.432 410.439 311.242 410.935C308.913 411.904 306.802 412.446 304.907 412.561C303.013 412.677 301.151 412.267 299.32 411.332C298.942 412.437 298.507 413.553 298.015 414.681C297.561 415.822 297.042 417.024 296.459 418.287L292.169 414.779C292.731 413.866 293.301 412.872 293.879 411.797C294.482 410.709 295.036 409.615 295.539 408.513L299.494 406.658ZM279.971 387.192L282.218 382.983C283.215 383.196 284.273 383.473 285.392 383.814C286.51 384.155 287.566 384.526 288.558 384.927C289.55 385.327 290.397 385.75 291.1 386.193L288.691 390.849C288.039 390.381 287.224 389.929 286.245 389.491C285.28 389.016 284.245 388.589 283.14 388.211C282.022 387.807 280.966 387.467 279.971 387.192ZM300.589 379.422L305 377.353L316.647 402.183L312.237 404.252L300.589 379.422ZM302.971 394.588L303.685 396.109L316.005 390.33L315.291 388.809L302.971 394.588ZM301.063 390.52L301.758 392.003L314.078 386.223L313.383 384.741L301.063 390.52ZM295.864 389.525L316.169 380L321.431 391.218L301.126 400.742L295.864 389.525ZM289.17 380.001L313.163 368.746L315.607 373.955L311.386 375.935L310.459 373.958L294.678 381.36L295.606 383.337L291.613 385.21L289.17 380.001ZM292.981 385.357L314.655 375.19L316.118 378.308L294.444 388.475L292.981 385.357ZM299.601 403.128L324.355 391.516L325.907 394.824L301.153 406.436L299.601 403.128Z" fill="#1E5C47"/>
<g filter="url(#filter1_d_1505_861)">
<path d="M217.829 232.555L165.563 241.828C165.3 241.875 165.076 242.012 164.922 242.231C163.018 244.939 149.645 263.66 137.654 272.455C126.22 280.841 107.079 286.776 96.8073 289.542C95.6852 289.844 95.071 288.289 96.0666 287.69C102.646 283.729 112.838 277.046 118.812 270.418C124.99 263.565 131.242 251.684 133.609 246.969C133.998 246.195 133.276 245.341 132.442 245.573C127.755 246.876 116.207 249.886 105.572 251.067C95.7037 252.164 83.7363 251.686 77.767 251.329C76.7426 251.268 76.4731 249.902 77.3976 249.456C85.6854 245.463 107.219 234.699 120.34 224.587C139.294 209.981 160.58 181.409 166.873 172.688C167.446 171.895 168.667 172.302 168.62 173.28C168.319 179.404 167.095 193.079 162.097 202.69C156.823 212.833 147.993 223.946 144.621 228.045C144.082 228.7 144.547 229.695 145.396 229.705L217.666 230.571C218.88 230.585 219.024 232.343 217.829 232.555Z" fill="#247056" stroke="#247056" stroke-width="1.5"/>
<path d="M231.111 221.023H199.715C199.432 221.023 199.167 220.909 198.979 220.697C197.308 218.815 188.882 209.166 185.012 201.672C180.354 192.653 177.199 176.88 177.199 176.88C177.199 176.88 189.795 191.382 199.27 199.126C208.858 206.962 224.406 215.364 231.578 219.073C232.519 219.56 232.171 221.023 231.111 221.023Z" fill="#247056"/>
<path d="M203.101 191.686L193.583 181.302C193.124 180.801 193.284 179.996 193.9 179.707C196.824 178.339 204.221 174.777 208.946 171.628C212.64 169.165 217.195 165.291 220.147 162.679C220.933 161.984 222.129 162.793 221.746 163.769C220.358 167.308 218.175 172.544 216.075 176.211C212.831 181.876 206.68 189.218 204.579 191.669C204.192 192.12 203.503 192.124 203.101 191.686Z" fill="#247056"/>
<path d="M171.469 290.278H132.799C131.81 290.278 131.42 289.016 132.25 288.478C137.899 284.815 151.134 276.461 161.078 271.946C174.077 266.045 181.636 262.648 195.706 260.234C210.994 257.611 220.24 257.07 235.426 260.234C243.457 261.907 253.774 266.37 259.991 269.279C261.017 269.759 260.561 271.306 259.435 271.18C247.647 269.867 221.204 267.838 203.854 273.474C191.308 277.549 174.258 288.64 172.018 290.115C171.853 290.224 171.667 290.278 171.469 290.278Z" fill="#247056"/>
<path d="M258.781 228.152H286.284C287.257 228.152 287.68 226.896 286.899 226.314C279.706 220.956 258.82 204.821 248.157 190.469C237.617 176.284 228.567 152.408 224.921 142.048C224.554 141.004 225.896 140.267 226.606 141.116C235.848 152.155 262.206 182.689 284.312 199.126C307.905 216.669 347.6 233.731 361.397 239.411C362.419 239.832 362.104 241.392 360.999 241.392H295.51C294.79 241.392 294.309 242.125 294.604 242.781C296.797 247.641 304.501 264.106 312.32 273.474C320.796 283.629 336.376 293.794 344.956 298.976C345.947 299.574 345.34 301.092 344.223 300.79C329.709 296.865 295.718 286.156 279.729 268.382C269.309 256.798 260.126 235.089 257.858 229.495C257.594 228.844 258.079 228.152 258.781 228.152Z" fill="#247056"/>
<path d="M176.864 176.211L177.199 176.88M177.199 176.88C177.199 176.88 180.354 192.653 185.012 201.672C188.882 209.166 197.308 218.815 198.979 220.697C199.167 220.908 199.432 221.023 199.715 221.023H231.111C232.171 221.023 232.519 219.56 231.578 219.073C224.406 215.364 208.858 206.962 199.27 199.126C189.795 191.382 177.199 176.88 177.199 176.88ZM248.157 190.469C237.617 176.284 228.567 152.408 224.921 142.048C224.554 141.004 225.896 140.267 226.606 141.116C235.848 152.155 262.206 182.689 284.312 199.126C307.905 216.669 347.6 233.731 361.397 239.411C362.419 239.832 362.104 241.392 360.999 241.392H295.51C294.79 241.392 294.309 242.125 294.604 242.781C296.797 247.641 304.501 264.106 312.32 273.474C320.796 283.629 336.376 293.794 344.956 298.976C345.947 299.574 345.34 301.092 344.223 300.79C329.709 296.865 295.718 286.156 279.729 268.382C269.309 256.798 260.126 235.089 257.858 229.495C257.594 228.844 258.079 228.152 258.781 228.152H286.284C287.257 228.152 287.68 226.896 286.899 226.314C279.706 220.956 258.82 204.821 248.157 190.469ZM195.706 260.234C210.994 257.611 220.24 257.07 235.426 260.234C243.457 261.907 253.774 266.37 259.991 269.279C261.017 269.759 260.561 271.306 259.435 271.18C247.647 269.867 221.204 267.838 203.854 273.474C191.308 277.549 174.258 288.64 172.018 290.115C171.853 290.224 171.667 290.278 171.469 290.278H132.799C131.81 290.278 131.42 289.016 132.25 288.478C137.899 284.815 151.134 276.461 161.078 271.946C174.077 266.045 181.636 262.648 195.706 260.234ZM216.075 176.211C212.831 181.876 206.68 189.218 204.579 191.669C204.192 192.12 203.503 192.124 203.101 191.686L193.583 181.302C193.124 180.801 193.284 179.996 193.9 179.707C196.824 178.339 204.221 174.777 208.946 171.628C212.64 169.165 217.195 165.291 220.147 162.679C220.933 161.984 222.129 162.793 221.746 163.769C220.358 167.308 218.175 172.544 216.075 176.211Z" stroke="#247056" stroke-width="1.5"/>
</g>
<path d="M112.745 71.2484L99.5596 54.4542L93.8902 58.9054L91.5596 55.937L106.482 44.2211L108.812 47.1895L103.116 51.6617L116.302 68.4559L112.745 71.2484Z" fill="#1E5C47"/>
<path d="M120.535 66.6975L114.032 41.0818L118.457 38.2834L138.783 55.1586L134.788 57.6844L124.428 48.4261C123.369 47.5139 122.31 46.5608 121.253 45.5669C120.195 44.5729 119.14 43.6042 118.087 42.6606L117.972 42.7333C118.424 44.0837 118.863 45.4557 119.288 46.8494C119.701 48.224 120.102 49.5794 120.492 50.9157L124.386 64.2625L120.535 66.6975ZM120.981 58.3698L119.11 55.41L129.139 49.0681L131.01 52.028L120.981 58.3698Z" fill="#1E5C47"/>
<path d="M140.983 54.4175L130.17 31.7371L134.221 29.8057L145.034 52.4861L140.983 54.4175Z" fill="#1E5C47"/>
<path d="M161.655 48.1259C160.152 48.6339 158.665 48.8371 157.196 48.7356C155.726 48.6342 154.319 48.2242 152.976 47.5058C151.632 46.7874 150.424 45.7602 149.35 44.4242C148.298 43.081 147.442 41.4323 146.782 39.4782C146.122 37.5241 145.813 35.6904 145.856 33.9771C145.921 32.2565 146.265 30.6925 146.89 29.285C147.537 27.8703 148.421 26.6624 149.542 25.6615C150.685 24.6533 152.008 23.8952 153.511 23.3872C155.014 22.8793 156.451 22.7408 157.821 22.9717C159.183 23.1811 160.375 23.5561 161.395 24.0967L160.054 27.5643C159.228 27.1734 158.385 26.9081 157.524 26.7683C156.664 26.6285 155.761 26.7182 154.816 27.0375C153.549 27.4656 152.531 28.2045 151.761 29.2542C150.984 30.2824 150.534 31.5351 150.411 33.0121C150.281 34.4678 150.517 36.0867 151.119 37.8691C151.729 39.6729 152.523 41.139 153.503 42.2675C154.475 43.3745 155.564 44.1191 156.77 44.5012C157.99 44.8546 159.254 44.8099 160.564 44.3673C161.617 44.0117 162.485 43.467 163.17 42.733C163.855 41.9991 164.407 41.1546 164.826 40.1995L167.985 42.1111C167.403 43.5757 166.591 44.8191 165.549 45.8413C164.499 46.8419 163.201 47.6035 161.655 48.1259Z" fill="#1E5C47"/>
<path d="M171.402 44.5784L166.241 19.9881L170.634 19.0663L172.708 28.949L182.624 26.8679L180.55 16.9852L184.909 16.0704L190.07 40.6607L185.711 41.5755L183.427 30.6946L173.511 32.7757L175.795 43.6566L171.402 44.5784Z" fill="#1E5C47"/>
<path d="M202.581 39.9186C201.136 40.0459 199.808 39.9468 198.596 39.6212C197.384 39.2956 196.321 38.7181 195.406 37.8885C194.513 37.0569 193.776 35.9272 193.196 34.4994C192.637 33.0695 192.269 31.3385 192.09 29.3064L190.851 15.2508L195.288 14.86L196.556 29.2542C196.713 31.038 197.053 32.4416 197.576 33.465C198.098 34.4884 198.752 35.1931 199.537 35.579C200.344 35.963 201.245 36.1112 202.238 36.0237C203.277 35.9322 204.16 35.6268 204.888 35.1076C205.616 34.5884 206.148 33.7793 206.483 32.6803C206.841 31.5793 206.942 30.1369 206.785 28.3531L205.517 13.9589L209.818 13.5799L211.056 27.6355C211.235 29.6676 211.164 31.4374 210.841 32.9449C210.542 34.4503 210.014 35.6914 209.258 36.6682C208.525 37.6429 207.59 38.3966 206.453 38.929C205.34 39.4594 204.049 39.7893 202.581 39.9186Z" fill="#1E5C47"/>
<path d="M215.087 38.5891L215.869 13.4752L220.457 13.6181L227.801 27.9296L230.25 33.3805L230.42 33.3858C230.325 32.0902 230.232 30.6927 230.143 29.1931C230.054 27.671 230.032 26.2076 230.075 24.8029L230.414 13.9282L234.662 14.0605L233.88 39.1743L229.292 39.0314L221.983 24.687L219.531 19.3041L219.395 19.2998C219.445 20.6167 219.515 22.0135 219.605 23.4904C219.696 24.9446 219.719 26.374 219.676 27.7787L219.335 38.7214L215.087 38.5891Z" fill="#1E5C47"/>
<path d="M248.003 41.6558C245.762 41.3168 243.831 40.5203 242.209 39.2664C240.614 37.9934 239.445 36.3265 238.702 34.2655C237.959 32.2046 237.795 29.807 238.208 27.0728C238.517 25.0333 239.094 23.2637 239.94 21.764C240.785 20.2643 241.82 19.0338 243.043 18.0726C244.288 17.1147 245.661 16.4513 247.161 16.0821C248.683 15.7164 250.274 15.659 251.932 15.9098C253.703 16.1777 255.155 16.7298 256.289 17.5662C257.424 18.4026 258.322 19.2835 258.984 20.209L256.17 22.6718C255.634 21.9718 255.005 21.3607 254.281 20.8387C253.584 20.2976 252.652 19.9389 251.487 19.7626C250.03 19.5422 248.697 19.7188 247.487 20.2922C246.28 20.8433 245.261 21.7437 244.43 22.9935C243.625 24.2242 243.082 25.7697 242.8 27.6299C242.516 29.5125 242.55 31.1797 242.904 32.6316C243.283 34.0644 243.977 35.2354 244.986 36.1445C246.02 37.0346 247.367 37.605 249.025 37.8559C249.72 37.961 250.394 37.9714 251.049 37.887C251.707 37.7802 252.252 37.5876 252.684 37.309L253.493 31.9638L248.82 31.257L249.374 27.5926L258.047 28.9047L256.384 39.8976C255.43 40.6014 254.214 41.1395 252.736 41.5121C251.262 41.8622 249.684 41.9101 248.003 41.6558Z" fill="#1E5C47"/>
<path d="M278.436 48.5204L287.945 25.2633L292.634 27.1806L292.08 40.2144C292.04 41.0307 291.987 41.8785 291.922 42.7577C291.856 43.6369 291.784 44.5014 291.706 45.351L291.864 45.4154C292.424 44.763 292.979 44.0959 293.527 43.414C294.096 42.7406 294.642 42.0944 295.164 41.4755L303.838 31.7615L308.527 33.6787L299.018 56.9358L295.21 55.3789L299.546 44.7731C299.838 44.0598 300.191 43.2859 300.606 42.4514C301.029 41.5959 301.462 40.7448 301.907 39.8979C302.351 39.051 302.75 38.2838 303.105 37.5962L302.979 37.5447L298.878 42.1857L290.81 51.0456L288.324 50.0291L288.775 38.0552L289.132 31.883L289.006 31.8315C288.798 32.5792 288.546 33.4064 288.248 34.3134C287.972 35.2289 287.685 36.1401 287.388 37.047C287.099 37.933 286.809 38.7326 286.517 39.4459L282.181 50.0517L278.436 48.5204Z" fill="#1E5C47"/>
<path d="M301.386 58.3333L313.589 36.3696L320.989 40.4813C322.535 41.34 323.796 42.3131 324.774 43.4007C325.782 44.4795 326.369 45.6871 326.534 47.0235C326.719 48.3708 326.36 49.8569 325.457 51.4816C324.576 53.0668 323.493 54.1763 322.207 54.8103C320.952 55.4355 319.573 55.6546 318.07 55.4674C316.597 55.2714 315.087 54.7441 313.542 53.8854L310.065 51.9534L305.309 60.513L301.386 58.3333ZM311.799 48.8327L314.86 50.5335C316.366 51.3702 317.691 51.6917 318.836 51.4979C320 51.3153 320.93 50.5998 321.623 49.3515C322.317 48.1032 322.395 47.0057 321.858 46.059C321.34 45.1233 320.329 44.2372 318.823 43.4005L315.762 41.6997L311.799 48.8327ZM313.334 64.9715L313.377 52.4323L317.521 51.6234L317.732 67.4153L313.334 64.9715Z" fill="#1E5C47"/>
<path d="M325.215 72.8278L337.728 55.5262L331.887 51.3022L334.099 48.2441L349.472 59.362L347.26 62.4201L341.392 58.1761L328.879 75.4777L325.215 72.8278Z" fill="#1E5C47"/>
</g>
<defs>
<filter id="filter0_i_1505_861" x="50" y="50" width="340" height="343.7" filterUnits="userSpaceOnUse" color-interpolation-filters="sRGB">
<feFlood flood-opacity="0" result="BackgroundImageFix"/>
<feBlend mode="normal" in="SourceGraphic" in2="BackgroundImageFix" result="shape"/>
<feColorMatrix in="SourceAlpha" type="matrix" values="0 0 0 0 0 0 0 0 0 0 0 0 0 0 0 0 0 0 127 0" result="hardAlpha"/>
<feOffset dy="3.7"/>
<feGaussianBlur stdDeviation="7.5"/>
<feComposite in2="hardAlpha" operator="arithmetic" k2="-1" k3="1"/>
<feColorMatrix type="matrix" values="0 0 0 0 0 0 0 0 0 0 0 0 0 0 0 0 0 0 0.8 0"/>
<feBlend mode="normal" in2="shape" result="effect1_innerShadow_1505_861"/>
</filter>
<filter id="filter1_d_1505_861" x="73.0811" y="136.996" width="292.689" height="167.584" filterUnits="userSpaceOnUse" color-interpolation-filters="sRGB">
<feFlood flood-opacity="0" result="BackgroundImageFix"/>
<feColorMatrix in="SourceAlpha" type="matrix" values="0 0 0 0 0 0 0 0 0 0 0 0 0 0 0 0 0 0 127 0" result="hardAlpha"/>
<feOffset/>
<feGaussianBlur stdDeviation="1.5"/>
<feComposite in2="hardAlpha" operator="out"/>
<feColorMatrix type="matrix" values="0 0 0 0 0.141176 0 0 0 0 0.439216 0 0 0 0 0.337255 0 0 0 0.7 0"/>
<feBlend mode="normal" in2="BackgroundImageFix" result="effect1_dropShadow_1505_861"/>
<feBlend mode="normal" in="SourceGraphic" in2="effect1_dropShadow_1505_861" result="shape"/>
</filter>
<clipPath id="clip0_1505_861">
<rect width="440" height="440" rx="220" fill="white"/>
</clipPath>
</defs>
</svg>
