<svg width="440" height="440" viewBox="0 0 440 440" fill="none" xmlns="http://www.w3.org/2000/svg">
<rect width="440" height="440" rx="220" fill="#C42C2C"/>
<g filter="url(#filter0_i_1504_334)">
<rect x="70" y="70" width="300" height="300" rx="150" fill="#C42C2C"/>
<g filter="url(#filter1_d_1504_334)">
<path d="M148.42 180.32H172.12V186.8H148.42V180.32ZM146.38 198.62H153.16V229.28H146.38V198.62ZM148 172.94L155.14 174.38C154.1 178.62 152.64 182.64 150.76 186.44C148.92 190.2 146.8 193.32 144.4 195.8C144 195.4 143.44 194.92 142.72 194.36C142 193.76 141.26 193.18 140.5 192.62C139.78 192.06 139.14 191.62 138.58 191.3C140.82 189.18 142.74 186.5 144.34 183.26C145.94 180.02 147.16 176.58 148 172.94ZM160.96 195.14C161.52 199.22 162.32 203.08 163.36 206.72C164.4 210.36 165.78 213.6 167.5 216.44C169.26 219.28 171.44 221.52 174.04 223.16C173.48 223.6 172.88 224.16 172.24 224.84C171.64 225.56 171.06 226.3 170.5 227.06C169.94 227.86 169.48 228.58 169.12 229.22C166.24 227.06 163.86 224.34 161.98 221.06C160.1 217.74 158.58 213.98 157.42 209.78C156.3 205.54 155.4 200.96 154.72 196.04L160.96 195.14ZM168.7 197.96L173.8 202.52C172.12 204.12 170.3 205.72 168.34 207.32C166.38 208.88 164.6 210.22 163 211.34L158.86 207.26C159.9 206.46 161.02 205.54 162.22 204.5C163.42 203.42 164.6 202.32 165.76 201.2C166.92 200.04 167.9 198.96 168.7 197.96ZM117.46 182.18H142.36V188.84H117.46V182.18ZM126.76 194.72H136.54V201.26H126.76V194.72ZM126.52 173H133.42V184.28H126.52V173ZM134.2 194.72H140.74C140.74 194.72 140.74 194.9 140.74 195.26C140.74 195.58 140.74 195.98 140.74 196.46C140.74 196.9 140.74 197.26 140.74 197.54C140.66 202.42 140.56 206.58 140.44 210.02C140.36 213.42 140.24 216.24 140.08 218.48C139.96 220.68 139.78 222.42 139.54 223.7C139.3 224.98 139 225.88 138.64 226.4C138.04 227.24 137.44 227.82 136.84 228.14C136.24 228.5 135.52 228.76 134.68 228.92C133.92 229.08 133 229.18 131.92 229.22C130.84 229.26 129.68 229.26 128.44 229.22C128.4 228.22 128.22 227.12 127.9 225.92C127.58 224.72 127.18 223.68 126.7 222.8C127.66 222.88 128.52 222.94 129.28 222.98C130.04 223.02 130.64 223.04 131.08 223.04C131.48 223.04 131.8 222.98 132.04 222.86C132.32 222.74 132.58 222.5 132.82 222.14C133.06 221.78 133.24 221.08 133.36 220.04C133.52 219 133.64 217.48 133.72 215.48C133.84 213.48 133.94 210.9 134.02 207.74C134.1 204.54 134.16 200.64 134.2 196.04V194.72ZM123.58 186.38H129.94V198.2C129.94 201.48 129.74 204.92 129.34 208.52C128.98 212.12 128.2 215.72 127 219.32C125.8 222.92 123.96 226.34 121.48 229.58C120.84 228.82 120 228.02 118.96 227.18C117.96 226.38 117.02 225.7 116.14 225.14C117.78 222.98 119.1 220.74 120.1 218.42C121.1 216.06 121.84 213.72 122.32 211.4C122.84 209.04 123.18 206.74 123.34 204.5C123.5 202.26 123.58 200.14 123.58 198.14V186.38ZM165.52 187.4L170.68 191.24C169.16 192.44 167.38 193.66 165.34 194.9C163.3 196.1 161.12 197.26 158.8 198.38C156.52 199.46 154.2 200.46 151.84 201.38C149.48 202.3 147.24 203.08 145.12 203.72C144.68 202.8 144.06 201.78 143.26 200.66C142.46 199.5 141.66 198.52 140.86 197.72C142.98 197.28 145.2 196.7 147.52 195.98C149.88 195.26 152.18 194.44 154.42 193.52C156.66 192.56 158.74 191.58 160.66 190.58C162.58 189.54 164.2 188.48 165.52 187.4ZM205 196.4V218.54H198.28V203.06H192.16V196.4H205ZM205 215.72C206.2 217.76 207.88 219.26 210.04 220.22C212.24 221.18 214.88 221.72 217.96 221.84C219.84 221.92 222.08 221.98 224.68 222.02C227.32 222.02 230.08 222 232.96 221.96C235.88 221.92 238.7 221.86 241.42 221.78C244.18 221.66 246.64 221.5 248.8 221.3C248.56 221.86 248.28 222.54 247.96 223.34C247.64 224.1 247.36 224.9 247.12 225.74C246.92 226.62 246.74 227.4 246.58 228.08C244.66 228.16 242.46 228.22 239.98 228.26C237.5 228.34 234.92 228.38 232.24 228.38C229.6 228.42 227.04 228.42 224.56 228.38C222.08 228.34 219.9 228.28 218.02 228.2C214.34 228.04 211.22 227.46 208.66 226.46C206.1 225.46 203.92 223.78 202.12 221.42C201 222.62 199.84 223.82 198.64 225.02C197.44 226.22 196.14 227.48 194.74 228.8L191.32 221.96C192.52 221.08 193.78 220.1 195.1 219.02C196.46 217.94 197.76 216.84 199 215.72H205ZM191.74 177.92L197.44 174.32C198.48 175.32 199.54 176.42 200.62 177.62C201.7 178.78 202.68 179.94 203.56 181.1C204.48 182.26 205.18 183.34 205.66 184.34L199.54 188.36C199.1 187.4 198.46 186.3 197.62 185.06C196.78 183.82 195.84 182.58 194.8 181.34C193.8 180.1 192.78 178.96 191.74 177.92ZM206.68 180.86H226.96V186.74H206.68V180.86ZM214.9 191.12H223.06V197H214.9V191.12ZM213.82 173H220.42V184.04H213.82V173ZM220.6 191.12H226.66C226.66 191.12 226.64 191.44 226.6 192.08C226.6 192.72 226.6 193.24 226.6 193.64C226.52 197.64 226.44 201.08 226.36 203.96C226.28 206.8 226.16 209.16 226 211.04C225.84 212.88 225.64 214.34 225.4 215.42C225.2 216.46 224.92 217.22 224.56 217.7C224.08 218.38 223.56 218.88 223 219.2C222.48 219.52 221.84 219.74 221.08 219.86C220.44 220.02 219.66 220.12 218.74 220.16C217.82 220.16 216.84 220.14 215.8 220.1C215.76 219.26 215.6 218.28 215.32 217.16C215.08 216.04 214.74 215.1 214.3 214.34C215.06 214.42 215.74 214.48 216.34 214.52C216.94 214.52 217.42 214.52 217.78 214.52C218.1 214.52 218.38 214.48 218.62 214.4C218.86 214.28 219.08 214.06 219.28 213.74C219.52 213.34 219.72 212.42 219.88 210.98C220.04 209.54 220.18 207.32 220.3 204.32C220.42 201.32 220.52 197.3 220.6 192.26V191.12ZM230.02 179H247.36V184.88H230.02V179ZM227.92 200.48H247.72V206.12H227.92V200.48ZM229.48 188.54H242.8V193.82H229.48V188.54ZM231.28 172.7L237.28 174.08C236.56 177.16 235.54 180.16 234.22 183.08C232.9 186 231.44 188.46 229.84 190.46C229.52 190.1 229.06 189.68 228.46 189.2C227.86 188.68 227.24 188.18 226.6 187.7C226 187.22 225.46 186.84 224.98 186.56C226.46 184.84 227.74 182.76 228.82 180.32C229.9 177.84 230.72 175.3 231.28 172.7ZM234.58 196.82H240.7V213.38C240.7 214.74 240.54 215.88 240.22 216.8C239.94 217.68 239.3 218.36 238.3 218.84C237.38 219.32 236.28 219.62 235 219.74C233.76 219.82 232.28 219.86 230.56 219.86C230.48 219.02 230.24 218.04 229.84 216.92C229.44 215.8 229.02 214.82 228.58 213.98C229.7 214.02 230.74 214.04 231.7 214.04C232.7 214.04 233.36 214.02 233.68 213.98C234.28 213.98 234.58 213.74 234.58 213.26V196.82ZM241 188.54H242.38L243.64 188.18L247.36 191C246.24 192.8 244.92 194.68 243.4 196.64C241.92 198.56 240.48 200.2 239.08 201.56C238.68 200.96 238.12 200.32 237.4 199.64C236.72 198.92 236.14 198.36 235.66 197.96C236.7 196.8 237.72 195.42 238.72 193.82C239.72 192.22 240.48 190.82 241 189.62V188.54ZM211.36 183.56H217.18V194.12C217.18 196.04 217.1 198.12 216.94 200.36C216.78 202.6 216.44 204.86 215.92 207.14C215.44 209.42 214.72 211.62 213.76 213.74C212.8 215.86 211.52 217.8 209.92 219.56C209.48 218.92 208.82 218.18 207.94 217.34C207.1 216.46 206.36 215.8 205.72 215.36C207.4 213.36 208.64 211.12 209.44 208.64C210.24 206.12 210.76 203.58 211 201.02C211.24 198.46 211.36 196.14 211.36 194.06V183.56ZM302.62 218.9L307.9 215.36C309.46 216.12 311.1 217.04 312.82 218.12C314.54 219.2 316.2 220.28 317.8 221.36C319.4 222.44 320.74 223.46 321.82 224.42L316.06 228.44C315.14 227.52 313.92 226.5 312.4 225.38C310.92 224.26 309.32 223.14 307.6 222.02C305.88 220.86 304.22 219.82 302.62 218.9ZM275.02 201.08H315.04V206.54H275.02V201.08ZM267.88 209.06H322.3V214.7H267.88V209.06ZM268.72 174.98H321.1V180.68H268.72V174.98ZM291.4 210.08H298.66V222.5C298.66 224.1 298.46 225.36 298.06 226.28C297.7 227.2 296.96 227.9 295.84 228.38C294.72 228.86 293.4 229.16 291.88 229.28C290.4 229.4 288.66 229.46 286.66 229.46C286.54 228.5 286.26 227.4 285.82 226.16C285.38 224.96 284.94 223.92 284.5 223.04C285.7 223.08 286.88 223.12 288.04 223.16C289.2 223.16 289.98 223.14 290.38 223.1C290.78 223.1 291.04 223.04 291.16 222.92C291.32 222.8 291.4 222.58 291.4 222.26V210.08ZM279.76 215.18L286.36 217.46C285.24 218.94 283.92 220.4 282.4 221.84C280.88 223.28 279.28 224.62 277.6 225.86C275.96 227.1 274.36 228.18 272.8 229.1C272.4 228.66 271.88 228.12 271.24 227.48C270.6 226.88 269.94 226.28 269.26 225.68C268.58 225.12 267.98 224.66 267.46 224.3C269.82 223.22 272.1 221.88 274.3 220.28C276.54 218.64 278.36 216.94 279.76 215.18ZM278.86 188.96V193.46H310.78V188.96H278.86ZM272.2 183.86H317.92V198.62H272.2V183.86ZM284.92 177.2H291.52V196.52H284.92V177.2ZM297.76 177.2H304.54V196.52H297.76V177.2Z" fill="#DD2629" fill-opacity="0.5" shape-rendering="crispEdges"/>
</g>
<g filter="url(#filter2_d_1504_334)">
<path d="M145.59 272H141.462V252.64H134.934V249.152H152.118V252.64H145.59V272ZM162.567 254.336C162.887 254.336 163.228 254.357 163.591 254.4C163.975 254.421 164.284 254.464 164.519 254.528L164.103 258.304C163.847 258.261 163.548 258.219 163.207 258.176C162.887 258.133 162.535 258.112 162.151 258.112C161.596 258.112 161.042 258.208 160.487 258.4C159.954 258.592 159.463 258.891 159.015 259.296C158.588 259.701 158.247 260.213 157.991 260.832C157.735 261.429 157.607 262.155 157.607 263.008V272H153.543V254.656H156.679L157.255 257.664H157.447C157.788 257.045 158.215 256.48 158.727 255.968C159.239 255.456 159.815 255.061 160.455 254.784C161.116 254.485 161.82 254.336 162.567 254.336ZM174.089 254.336C176.244 254.336 177.865 254.837 178.953 255.84C180.062 256.821 180.617 258.325 180.617 260.352V272H177.737L176.969 269.6H176.841C176.35 270.219 175.838 270.731 175.305 271.136C174.793 271.541 174.196 271.84 173.513 272.032C172.83 272.224 172.009 272.32 171.049 272.32C170.025 272.32 169.097 272.128 168.265 271.744C167.454 271.36 166.814 270.773 166.345 269.984C165.876 269.195 165.641 268.192 165.641 266.976C165.641 265.205 166.302 263.861 167.625 262.944C168.969 262.005 170.985 261.493 173.673 261.408L176.585 261.312V260.576C176.585 259.381 176.318 258.549 175.785 258.08C175.252 257.611 174.516 257.376 173.577 257.376C172.745 257.376 171.913 257.515 171.081 257.792C170.27 258.048 169.481 258.347 168.713 258.688L167.497 255.872C168.35 255.403 169.332 255.029 170.441 254.752C171.572 254.475 172.788 254.336 174.089 254.336ZM174.473 263.872C172.724 263.957 171.508 264.256 170.825 264.768C170.142 265.259 169.801 265.963 169.801 266.88C169.801 267.691 170.046 268.299 170.537 268.704C171.028 269.088 171.657 269.28 172.425 269.28C173.598 269.28 174.58 268.939 175.369 268.256C176.18 267.573 176.585 266.581 176.585 265.28V263.808L174.473 263.872ZM189.608 272L183.016 254.656H187.304L190.696 264.896C190.824 265.216 190.952 265.589 191.08 266.016C191.208 266.443 191.325 266.869 191.432 267.296C191.56 267.701 191.634 268.064 191.656 268.384H191.784C191.826 268.064 191.901 267.701 192.008 267.296C192.136 266.869 192.274 266.443 192.424 266.016C192.573 265.589 192.69 265.216 192.776 264.896L196.232 254.656H200.52L193.896 272H189.608ZM210.148 254.336C211.705 254.336 213.049 254.645 214.18 255.264C215.31 255.883 216.174 256.779 216.772 257.952C217.39 259.125 217.7 260.544 217.7 262.208V264.288H206.276C206.318 265.845 206.756 267.051 207.588 267.904C208.42 268.757 209.604 269.184 211.14 269.184C212.228 269.184 213.209 269.077 214.084 268.864C214.958 268.651 215.854 268.341 216.772 267.936V271.136C215.918 271.541 215.033 271.84 214.116 272.032C213.198 272.224 212.089 272.32 210.788 272.32C209.102 272.32 207.598 272 206.276 271.36C204.974 270.699 203.95 269.707 203.204 268.384C202.478 267.061 202.116 265.419 202.116 263.456C202.116 261.472 202.446 259.808 203.108 258.464C203.79 257.099 204.729 256.075 205.924 255.392C207.14 254.688 208.548 254.336 210.148 254.336ZM210.212 257.344C209.102 257.344 208.206 257.696 207.524 258.4C206.862 259.104 206.478 260.117 206.372 261.44H213.764C213.764 260.629 213.636 259.925 213.38 259.328C213.124 258.709 212.729 258.229 212.196 257.888C211.684 257.525 211.022 257.344 210.212 257.344ZM225.794 272H221.73V247.68H225.794V272ZM246.209 249.152C249.175 249.152 251.351 249.76 252.737 250.976C254.145 252.171 254.849 253.867 254.849 256.064C254.849 257.045 254.689 257.984 254.369 258.88C254.071 259.776 253.569 260.587 252.865 261.312C252.183 262.016 251.265 262.581 250.113 263.008C248.961 263.413 247.553 263.616 245.889 263.616H243.617V272H239.457V249.152H246.209ZM246.017 252.576H243.617V260.16H245.505C246.593 260.16 247.521 260.032 248.289 259.776C249.057 259.52 249.644 259.104 250.049 258.528C250.455 257.931 250.657 257.163 250.657 256.224C250.657 255.029 250.284 254.123 249.537 253.504C248.791 252.885 247.617 252.576 246.017 252.576ZM266.089 254.336C268.244 254.336 269.865 254.837 270.953 255.84C272.062 256.821 272.617 258.325 272.617 260.352V272H269.737L268.969 269.6H268.841C268.35 270.219 267.838 270.731 267.305 271.136C266.793 271.541 266.196 271.84 265.513 272.032C264.83 272.224 264.009 272.32 263.049 272.32C262.025 272.32 261.097 272.128 260.265 271.744C259.454 271.36 258.814 270.773 258.345 269.984C257.876 269.195 257.641 268.192 257.641 266.976C257.641 265.205 258.302 263.861 259.625 262.944C260.969 262.005 262.985 261.493 265.673 261.408L268.585 261.312V260.576C268.585 259.381 268.318 258.549 267.785 258.08C267.252 257.611 266.516 257.376 265.577 257.376C264.745 257.376 263.913 257.515 263.081 257.792C262.27 258.048 261.481 258.347 260.713 258.688L259.497 255.872C260.35 255.403 261.332 255.029 262.441 254.752C263.572 254.475 264.788 254.336 266.089 254.336ZM266.473 263.872C264.724 263.957 263.508 264.256 262.825 264.768C262.142 265.259 261.801 265.963 261.801 266.88C261.801 267.691 262.046 268.299 262.537 268.704C263.028 269.088 263.657 269.28 264.425 269.28C265.598 269.28 266.58 268.939 267.369 268.256C268.18 267.573 268.585 266.581 268.585 265.28V263.808L266.473 263.872ZM289.416 267.008C289.416 268.117 289.149 269.067 288.616 269.856C288.082 270.645 287.293 271.253 286.248 271.68C285.202 272.107 283.901 272.32 282.344 272.32C281.128 272.32 280.061 272.235 279.144 272.064C278.226 271.893 277.373 271.627 276.584 271.264V267.808C277.437 268.213 278.376 268.555 279.4 268.832C280.445 269.088 281.405 269.216 282.28 269.216C283.432 269.216 284.264 269.045 284.776 268.704C285.288 268.363 285.544 267.904 285.544 267.328C285.544 266.965 285.426 266.645 285.192 266.368C284.978 266.069 284.573 265.771 283.976 265.472C283.4 265.173 282.578 264.811 281.512 264.384C280.445 263.957 279.538 263.531 278.792 263.104C278.066 262.656 277.512 262.123 277.128 261.504C276.744 260.864 276.552 260.075 276.552 259.136C276.552 257.579 277.17 256.395 278.408 255.584C279.645 254.752 281.277 254.336 283.304 254.336C284.392 254.336 285.405 254.443 286.344 254.656C287.304 254.869 288.242 255.189 289.16 255.616L287.944 258.496C287.154 258.155 286.344 257.877 285.512 257.664C284.68 257.429 283.901 257.312 283.176 257.312C282.301 257.312 281.618 257.451 281.128 257.728C280.658 258.005 280.424 258.389 280.424 258.88C280.424 259.264 280.541 259.595 280.776 259.872C281.01 260.128 281.426 260.395 282.024 260.672C282.621 260.949 283.453 261.291 284.52 261.696C285.565 262.101 286.45 262.528 287.176 262.976C287.922 263.424 288.477 263.968 288.84 264.608C289.224 265.227 289.416 266.027 289.416 267.008ZM305.197 267.008C305.197 268.117 304.93 269.067 304.397 269.856C303.864 270.645 303.074 271.253 302.029 271.68C300.984 272.107 299.682 272.32 298.125 272.32C296.909 272.32 295.842 272.235 294.925 272.064C294.008 271.893 293.154 271.627 292.365 271.264V267.808C293.218 268.213 294.157 268.555 295.181 268.832C296.226 269.088 297.186 269.216 298.061 269.216C299.213 269.216 300.045 269.045 300.557 268.704C301.069 268.363 301.325 267.904 301.325 267.328C301.325 266.965 301.208 266.645 300.973 266.368C300.76 266.069 300.354 265.771 299.757 265.472C299.181 265.173 298.36 264.811 297.293 264.384C296.226 263.957 295.32 263.531 294.573 263.104C293.848 262.656 293.293 262.123 292.909 261.504C292.525 260.864 292.333 260.075 292.333 259.136C292.333 257.579 292.952 256.395 294.189 255.584C295.426 254.752 297.058 254.336 299.085 254.336C300.173 254.336 301.186 254.443 302.125 254.656C303.085 254.869 304.024 255.189 304.941 255.616L303.725 258.496C302.936 258.155 302.125 257.877 301.293 257.664C300.461 257.429 299.682 257.312 298.957 257.312C298.082 257.312 297.4 257.451 296.909 257.728C296.44 258.005 296.205 258.389 296.205 258.88C296.205 259.264 296.322 259.595 296.557 259.872C296.792 260.128 297.208 260.395 297.805 260.672C298.402 260.949 299.234 261.291 300.301 261.696C301.346 262.101 302.232 262.528 302.957 262.976C303.704 263.424 304.258 263.968 304.621 264.608C305.005 265.227 305.197 266.027 305.197 267.008Z" fill="#DD2629" fill-opacity="0.5" shape-rendering="crispEdges"/>
</g>
<path d="M145.59 272H141.462V252.64H134.934V249.152H152.118V252.64H145.59V272ZM162.567 254.336C162.887 254.336 163.228 254.357 163.591 254.4C163.975 254.421 164.284 254.464 164.519 254.528L164.103 258.304C163.847 258.261 163.548 258.219 163.207 258.176C162.887 258.133 162.535 258.112 162.151 258.112C161.596 258.112 161.042 258.208 160.487 258.4C159.954 258.592 159.463 258.891 159.015 259.296C158.588 259.701 158.247 260.213 157.991 260.832C157.735 261.429 157.607 262.155 157.607 263.008V272H153.543V254.656H156.679L157.255 257.664H157.447C157.788 257.045 158.215 256.48 158.727 255.968C159.239 255.456 159.815 255.061 160.455 254.784C161.116 254.485 161.82 254.336 162.567 254.336ZM174.089 254.336C176.244 254.336 177.865 254.837 178.953 255.84C180.062 256.821 180.617 258.325 180.617 260.352V272H177.737L176.969 269.6H176.841C176.35 270.219 175.838 270.731 175.305 271.136C174.793 271.541 174.196 271.84 173.513 272.032C172.83 272.224 172.009 272.32 171.049 272.32C170.025 272.32 169.097 272.128 168.265 271.744C167.454 271.36 166.814 270.773 166.345 269.984C165.876 269.195 165.641 268.192 165.641 266.976C165.641 265.205 166.302 263.861 167.625 262.944C168.969 262.005 170.985 261.493 173.673 261.408L176.585 261.312V260.576C176.585 259.381 176.318 258.549 175.785 258.08C175.252 257.611 174.516 257.376 173.577 257.376C172.745 257.376 171.913 257.515 171.081 257.792C170.27 258.048 169.481 258.347 168.713 258.688L167.497 255.872C168.35 255.403 169.332 255.029 170.441 254.752C171.572 254.475 172.788 254.336 174.089 254.336ZM174.473 263.872C172.724 263.957 171.508 264.256 170.825 264.768C170.142 265.259 169.801 265.963 169.801 266.88C169.801 267.691 170.046 268.299 170.537 268.704C171.028 269.088 171.657 269.28 172.425 269.28C173.598 269.28 174.58 268.939 175.369 268.256C176.18 267.573 176.585 266.581 176.585 265.28V263.808L174.473 263.872ZM189.608 272L183.016 254.656H187.304L190.696 264.896C190.824 265.216 190.952 265.589 191.08 266.016C191.208 266.443 191.325 266.869 191.432 267.296C191.56 267.701 191.634 268.064 191.656 268.384H191.784C191.826 268.064 191.901 267.701 192.008 267.296C192.136 266.869 192.274 266.443 192.424 266.016C192.573 265.589 192.69 265.216 192.776 264.896L196.232 254.656H200.52L193.896 272H189.608ZM210.148 254.336C211.705 254.336 213.049 254.645 214.18 255.264C215.31 255.883 216.174 256.779 216.772 257.952C217.39 259.125 217.7 260.544 217.7 262.208V264.288H206.276C206.318 265.845 206.756 267.051 207.588 267.904C208.42 268.757 209.604 269.184 211.14 269.184C212.228 269.184 213.209 269.077 214.084 268.864C214.958 268.651 215.854 268.341 216.772 267.936V271.136C215.918 271.541 215.033 271.84 214.116 272.032C213.198 272.224 212.089 272.32 210.788 272.32C209.102 272.32 207.598 272 206.276 271.36C204.974 270.699 203.95 269.707 203.204 268.384C202.478 267.061 202.116 265.419 202.116 263.456C202.116 261.472 202.446 259.808 203.108 258.464C203.79 257.099 204.729 256.075 205.924 255.392C207.14 254.688 208.548 254.336 210.148 254.336ZM210.212 257.344C209.102 257.344 208.206 257.696 207.524 258.4C206.862 259.104 206.478 260.117 206.372 261.44H213.764C213.764 260.629 213.636 259.925 213.38 259.328C213.124 258.709 212.729 258.229 212.196 257.888C211.684 257.525 211.022 257.344 210.212 257.344ZM225.794 272H221.73V247.68H225.794V272ZM246.209 249.152C249.175 249.152 251.351 249.76 252.737 250.976C254.145 252.171 254.849 253.867 254.849 256.064C254.849 257.045 254.689 257.984 254.369 258.88C254.071 259.776 253.569 260.587 252.865 261.312C252.183 262.016 251.265 262.581 250.113 263.008C248.961 263.413 247.553 263.616 245.889 263.616H243.617V272H239.457V249.152H246.209ZM246.017 252.576H243.617V260.16H245.505C246.593 260.16 247.521 260.032 248.289 259.776C249.057 259.52 249.644 259.104 250.049 258.528C250.455 257.931 250.657 257.163 250.657 256.224C250.657 255.029 250.284 254.123 249.537 253.504C248.791 252.885 247.617 252.576 246.017 252.576ZM266.089 254.336C268.244 254.336 269.865 254.837 270.953 255.84C272.062 256.821 272.617 258.325 272.617 260.352V272H269.737L268.969 269.6H268.841C268.35 270.219 267.838 270.731 267.305 271.136C266.793 271.541 266.196 271.84 265.513 272.032C264.83 272.224 264.009 272.32 263.049 272.32C262.025 272.32 261.097 272.128 260.265 271.744C259.454 271.36 258.814 270.773 258.345 269.984C257.876 269.195 257.641 268.192 257.641 266.976C257.641 265.205 258.302 263.861 259.625 262.944C260.969 262.005 262.985 261.493 265.673 261.408L268.585 261.312V260.576C268.585 259.381 268.318 258.549 267.785 258.08C267.252 257.611 266.516 257.376 265.577 257.376C264.745 257.376 263.913 257.515 263.081 257.792C262.27 258.048 261.481 258.347 260.713 258.688L259.497 255.872C260.35 255.403 261.332 255.029 262.441 254.752C263.572 254.475 264.788 254.336 266.089 254.336ZM266.473 263.872C264.724 263.957 263.508 264.256 262.825 264.768C262.142 265.259 261.801 265.963 261.801 266.88C261.801 267.691 262.046 268.299 262.537 268.704C263.028 269.088 263.657 269.28 264.425 269.28C265.598 269.28 266.58 268.939 267.369 268.256C268.18 267.573 268.585 266.581 268.585 265.28V263.808L266.473 263.872ZM289.416 267.008C289.416 268.117 289.149 269.067 288.616 269.856C288.082 270.645 287.293 271.253 286.248 271.68C285.202 272.107 283.901 272.32 282.344 272.32C281.128 272.32 280.061 272.235 279.144 272.064C278.226 271.893 277.373 271.627 276.584 271.264V267.808C277.437 268.213 278.376 268.555 279.4 268.832C280.445 269.088 281.405 269.216 282.28 269.216C283.432 269.216 284.264 269.045 284.776 268.704C285.288 268.363 285.544 267.904 285.544 267.328C285.544 266.965 285.426 266.645 285.192 266.368C284.978 266.069 284.573 265.771 283.976 265.472C283.4 265.173 282.578 264.811 281.512 264.384C280.445 263.957 279.538 263.531 278.792 263.104C278.066 262.656 277.512 262.123 277.128 261.504C276.744 260.864 276.552 260.075 276.552 259.136C276.552 257.579 277.17 256.395 278.408 255.584C279.645 254.752 281.277 254.336 283.304 254.336C284.392 254.336 285.405 254.443 286.344 254.656C287.304 254.869 288.242 255.189 289.16 255.616L287.944 258.496C287.154 258.155 286.344 257.877 285.512 257.664C284.68 257.429 283.901 257.312 283.176 257.312C282.301 257.312 281.618 257.451 281.128 257.728C280.658 258.005 280.424 258.389 280.424 258.88C280.424 259.264 280.541 259.595 280.776 259.872C281.01 260.128 281.426 260.395 282.024 260.672C282.621 260.949 283.453 261.291 284.52 261.696C285.565 262.101 286.45 262.528 287.176 262.976C287.922 263.424 288.477 263.968 288.84 264.608C289.224 265.227 289.416 266.027 289.416 267.008ZM305.197 267.008C305.197 268.117 304.93 269.067 304.397 269.856C303.864 270.645 303.074 271.253 302.029 271.68C300.984 272.107 299.682 272.32 298.125 272.32C296.909 272.32 295.842 272.235 294.925 272.064C294.008 271.893 293.154 271.627 292.365 271.264V267.808C293.218 268.213 294.157 268.555 295.181 268.832C296.226 269.088 297.186 269.216 298.061 269.216C299.213 269.216 300.045 269.045 300.557 268.704C301.069 268.363 301.325 267.904 301.325 267.328C301.325 266.965 301.208 266.645 300.973 266.368C300.76 266.069 300.354 265.771 299.757 265.472C299.181 265.173 298.36 264.811 297.293 264.384C296.226 263.957 295.32 263.531 294.573 263.104C293.848 262.656 293.293 262.123 292.909 261.504C292.525 260.864 292.333 260.075 292.333 259.136C292.333 257.579 292.952 256.395 294.189 255.584C295.426 254.752 297.058 254.336 299.085 254.336C300.173 254.336 301.186 254.443 302.125 254.656C303.085 254.869 304.024 255.189 304.941 255.616L303.725 258.496C302.936 258.155 302.125 257.877 301.293 257.664C300.461 257.429 299.682 257.312 298.957 257.312C298.082 257.312 297.4 257.451 296.909 257.728C296.44 258.005 296.205 258.389 296.205 258.88C296.205 259.264 296.322 259.595 296.557 259.872C296.792 260.128 297.208 260.395 297.805 260.672C298.402 260.949 299.234 261.291 300.301 261.696C301.346 262.101 302.232 262.528 302.957 262.976C303.704 263.424 304.258 263.968 304.621 264.608C305.005 265.227 305.197 266.027 305.197 267.008Z" fill="#DD2629" fill-opacity="0.5"/>
</g>
<g filter="url(#filter4_i_1504_334)">
<path d="M341.089 345.732L324.302 361.662L320.949 358.128L337.735 342.198L341.089 345.732ZM351.06 352.945L330.679 372.286L317.871 358.79L321.801 355.06L331.284 365.053L343.988 352.997L334.477 342.974L338.224 339.418L351.06 352.945ZM359.602 373.905L354.128 376.495C353.622 374.62 353.139 372.666 352.677 370.634C352.214 368.642 351.819 366.7 351.493 364.81C351.185 362.94 350.952 361.231 350.795 359.682L355.357 357.9C355.553 359.49 355.865 361.221 356.291 363.094C356.736 364.987 357.252 366.872 357.836 368.749C358.4 370.645 358.989 372.364 359.602 373.905ZM347.145 375.421L346.274 380.3C344.488 380.451 342.584 380.52 340.565 380.507C338.544 380.533 336.595 380.453 334.718 380.265C332.841 380.117 331.223 379.856 329.867 379.484L330.722 374.04C332.038 374.451 333.625 374.76 335.481 374.967C337.336 375.214 339.283 375.374 341.321 375.447C343.359 375.52 345.3 375.511 347.145 375.421ZM360.421 356.28C358.915 357.785 357.247 359.465 355.416 361.318C353.584 363.211 351.661 365.191 349.646 367.257C347.611 369.343 345.545 371.458 343.449 373.601C341.353 375.745 339.297 377.85 337.282 379.916L334.081 376.238C336.078 374.111 338.104 371.976 340.161 369.831C342.237 367.707 344.262 365.611 346.238 363.543C348.212 361.516 350.084 359.584 351.856 357.749C353.646 355.934 355.264 354.283 356.709 352.796L360.421 356.28Z" fill="#A70B0E"/>
<path d="M317.948 390.452L306.423 395.226L304.511 390.608L316.035 385.835L317.948 390.452ZM302.525 406.887L297.675 408.896L286.086 380.919C285.636 379.833 285.257 379.172 284.947 378.936C284.648 378.727 284.136 378.772 283.412 379.072C283.257 379.136 282.998 379.244 282.636 379.394C282.274 379.544 281.873 379.71 281.433 379.892C280.993 380.074 280.592 380.24 280.23 380.39C279.868 380.54 279.596 380.653 279.415 380.728C278.898 380.942 278.601 381.323 278.524 381.869C278.448 382.416 278.594 383.28 278.962 384.461C279.314 385.679 279.881 387.339 280.66 389.44C280.154 389.317 279.584 389.22 278.949 389.149C278.287 389.09 277.637 389.056 276.997 389.048C276.368 389.066 275.813 389.115 275.33 389.193C274.457 386.646 273.898 384.528 273.654 382.841C273.384 381.165 273.523 379.819 274.072 378.804C274.585 377.773 275.579 376.952 277.053 376.342C277.26 376.256 277.609 376.111 278.101 375.908C278.592 375.704 279.123 375.485 279.692 375.249C280.235 375.024 280.739 374.815 281.205 374.622C281.671 374.429 282.02 374.284 282.253 374.188C283.727 373.577 284.982 373.315 286.018 373.401C287.017 373.472 287.899 373.955 288.664 374.851C289.44 375.772 290.203 377.138 290.953 378.949L302.525 406.887ZM312.304 402.837L307.453 404.846L292.795 369.458L297.645 367.448L312.304 402.837ZM287.325 406.409L282.214 403.617C283.184 402.154 284.232 400.66 285.357 399.133C286.493 397.632 287.66 396.133 288.859 394.636C290.042 393.176 291.221 391.779 292.396 390.444C292.765 390.897 293.289 391.392 293.966 391.93C294.654 392.494 295.255 392.957 295.769 393.32C294.683 394.649 293.621 396.073 292.584 397.594C291.547 399.115 290.585 400.634 289.699 402.153C288.787 403.682 287.996 405.101 287.325 406.409ZM312.064 372.296C311.132 373.045 310.058 373.93 308.844 374.948C307.64 375.992 306.374 377.107 305.047 378.294C303.73 379.506 302.422 380.699 301.12 381.875L298.492 378.054C300.068 376.37 301.701 374.679 303.391 372.979C305.055 371.289 306.583 369.747 307.975 368.352L312.064 372.296Z" fill="#A70B0E"/>
<path d="M254.321 417.713L229.628 420.964L229.112 417.049L253.805 413.798L254.321 417.713ZM239.034 395.875L227.915 397.339L227.406 393.466L238.524 392.003L239.034 395.875ZM253.537 406.293L227.179 409.763L226.669 405.891L253.028 402.421L253.537 406.293ZM251.826 412.28L230.548 415.081L228.525 399.716L249.803 396.914L250.291 400.62L233.635 402.813L234.671 410.683L251.327 408.49L251.826 412.28ZM245.196 422.091L240.574 422.7L235.75 386.056L240.723 388.112L245.196 422.091ZM249.935 396.304L245.319 396.319C245.348 393.321 245.689 390.551 246.343 388.008C246.973 385.496 247.974 383.345 249.348 381.554C249.659 381.768 250.074 382.024 250.593 382.322C251.085 382.625 251.603 382.91 252.146 383.177C252.662 383.448 253.113 383.657 253.5 383.804C252.172 385.306 251.241 387.137 250.707 389.297C250.172 391.458 249.915 393.793 249.935 396.304ZM246.137 393.203C245.134 391.584 243.935 390.415 242.541 389.695C241.147 388.974 239.611 388.569 237.933 388.48C236.227 388.394 234.414 388.463 232.495 388.687C232.19 388.727 231.69 388.793 230.996 388.884C230.302 388.976 229.539 389.076 228.706 389.186C227.845 389.299 227.04 389.405 226.291 389.504C225.545 389.63 224.952 389.737 224.511 389.823C224.662 389.464 224.799 389.008 224.924 388.455C225.049 387.902 225.146 387.353 225.216 386.807C225.285 386.261 225.334 385.775 225.362 385.348L227.028 385.128L232.275 384.438C234.745 384.112 237.027 384.066 239.119 384.299C241.18 384.508 243.06 385.164 244.758 386.268C246.461 387.399 248.014 389.115 249.418 391.416L246.137 393.203ZM266.049 398.037C264.431 398.618 262.51 399.365 260.286 400.279C258.035 401.197 255.773 402.144 253.501 403.121L252.284 398.706C254.338 397.786 256.419 396.862 258.528 395.935C260.609 395.012 262.545 394.164 264.336 393.391L266.049 398.037ZM267.099 411.159L254.356 412.836L253.753 408.256L266.495 406.578L267.099 411.159ZM263.762 419.604L259.182 420.207L254.73 386.395C254.581 385.257 254.587 384.338 254.749 383.639C254.88 382.916 255.239 382.318 255.826 381.845C256.385 381.376 257.128 381.01 258.054 380.747C258.951 380.488 260.096 380.281 261.488 380.126C261.624 380.729 261.877 381.472 262.247 382.356C262.614 383.211 262.994 383.952 263.387 384.578C262.606 384.652 261.895 384.718 261.253 384.774C260.586 384.862 260.13 384.936 259.884 384.997C259.634 385.029 259.473 385.093 259.401 385.187C259.304 385.313 259.274 385.515 259.311 385.792L263.762 419.604Z" fill="#A70B0E"/>
<path d="M203.128 406.521L205.151 391.156L209.939 391.786L208.525 402.529L213.23 403.149L212.622 407.771L203.128 406.521ZM204.887 393.154C204.265 391.66 203.262 390.483 201.879 389.623C200.491 388.791 198.748 388.195 196.649 387.834C195.408 387.614 193.914 387.375 192.169 387.117C190.392 386.883 188.544 386.654 186.625 386.429C184.678 386.201 182.785 385.994 180.945 385.809C179.075 385.647 177.394 385.539 175.905 385.484C176.147 385.149 176.419 384.69 176.721 384.109C176.992 383.551 177.265 382.98 177.54 382.395C177.787 381.806 177.983 381.281 178.128 380.82C179.416 380.905 180.895 381.043 182.564 381.235C184.234 381.426 185.957 381.639 187.733 381.873C189.514 382.079 191.235 382.306 192.897 382.553C194.562 382.772 196.03 382.993 197.3 383.217C199.783 383.657 201.854 384.339 203.512 385.263C205.169 386.188 206.517 387.537 207.554 389.312C208.469 388.585 209.437 387.879 210.459 387.195C211.457 386.479 212.542 385.746 213.714 384.997L215.435 390.264C214.47 390.73 213.454 391.26 212.387 391.854C211.293 392.444 210.236 393.068 209.218 393.725L204.887 393.154ZM210.832 420.075L206.67 422.407C205.946 421.691 205.204 420.887 204.446 419.996C203.688 419.106 202.999 418.224 202.38 417.352C201.76 416.48 201.274 415.667 200.921 414.915L205.46 412.293C205.758 413.038 206.2 413.859 206.788 414.755C207.345 415.676 207.987 416.593 208.713 417.508C209.437 418.451 210.143 419.306 210.832 420.075ZM189.279 415.5L184.449 414.864L188.029 387.673L192.859 388.309L189.279 415.5ZM195.451 401.444L195.67 399.778L182.178 398.002L181.959 399.667L195.451 401.444ZM194.864 405.899L195.078 404.275L181.586 402.499L181.373 404.123L194.864 405.899ZM198.706 409.54L176.47 406.612L178.087 394.328L200.323 397.256L198.706 409.54ZM199.208 421.171L172.933 417.712L173.684 412.007L178.306 412.615L178.021 414.781L195.302 417.056L195.587 414.89L199.959 415.466L199.208 421.171ZM198.886 414.605L175.151 411.48L175.601 408.065L199.336 411.19L198.886 414.605ZM202.894 396.069L175.786 392.5L176.263 388.878L203.371 392.446L202.894 396.069Z" fill="#A70B0E"/>
<path d="M145.352 393.83L140.366 390.174C141.608 388.93 142.931 387.675 144.335 386.408C145.713 385.13 147.106 383.889 148.515 382.684C149.923 381.479 151.304 380.339 152.659 379.263C153.977 378.203 155.229 377.267 156.414 376.454L160.197 379.613C159.006 380.513 157.753 381.525 156.44 382.648C155.115 383.796 153.801 384.995 152.496 386.242C151.154 387.505 149.883 388.782 148.682 390.072C147.444 391.378 146.334 392.631 145.352 393.83ZM164.065 382.897C162.222 382.224 160.146 381.455 157.837 380.59C155.518 379.751 153.069 378.858 150.492 377.911C147.903 376.99 145.275 376.053 142.609 375.101C139.917 374.137 137.263 373.189 134.649 372.258L136.701 367.744C140.098 368.908 143.533 370.089 147.008 371.286C150.482 372.482 153.804 373.646 156.972 374.777C160.126 375.871 162.976 376.854 165.524 377.728L164.065 382.897ZM141.361 382.175L136.008 382.367C135.448 380.499 134.931 378.527 134.457 376.452C133.983 374.377 133.589 372.365 133.275 370.416C132.924 368.483 132.701 366.754 132.605 365.229L138.516 364.677C138.509 366.159 138.651 367.9 138.944 369.9C139.226 371.926 139.575 374.011 139.991 376.153C140.407 378.295 140.863 380.303 141.361 382.175ZM143.953 408.843L139.247 405.167C140.922 403.466 142.748 401.874 144.726 400.39C146.679 398.895 148.656 397.562 150.656 396.391C152.646 395.245 154.558 394.325 156.391 393.629C156.552 394.12 156.831 394.69 157.229 395.34C157.59 396.005 157.982 396.667 158.406 397.328C158.792 398.003 159.139 398.556 159.446 398.986C157.662 399.489 155.856 400.227 154.029 401.198C152.177 402.158 150.387 403.295 148.661 404.611C146.934 405.926 145.364 407.337 143.953 408.843ZM128.347 402.288C128.249 400.914 128.064 399.459 127.792 397.921C127.494 396.373 127.125 394.812 126.687 393.236C126.212 391.675 125.716 390.167 125.198 388.709C124.669 387.278 124.137 385.967 123.6 384.775C124.142 384.636 124.761 384.422 125.456 384.134C126.141 383.872 126.823 383.579 127.503 383.254C128.172 382.956 128.74 382.645 129.207 382.324C129.731 383.692 130.233 385.188 130.712 386.811C131.181 388.46 131.628 390.161 132.054 391.913C132.443 393.68 132.801 395.45 133.128 397.222C133.429 398.983 133.663 400.687 133.83 402.332L128.347 402.288Z" fill="#A70B0E"/>
<path d="M102.046 384.361L78.2532 364.04L81.3628 360.399L105.156 380.72L102.046 384.361ZM106.773 378.18L87.8665 362.032L90.7305 358.679L109.637 374.827L106.773 378.18ZM79.6265 365.213L75.6663 361.831L95.4966 338.612C96.424 337.526 97.2791 336.784 98.062 336.385C98.8417 335.946 99.7177 335.847 100.69 336.088C101.641 336.312 102.674 336.826 103.791 337.632C104.907 338.438 106.179 339.47 107.609 340.727C107.324 341.147 107.028 341.667 106.719 342.287C106.428 342.886 106.15 343.513 105.884 344.17C105.618 344.826 105.426 345.417 105.309 345.943C104.727 345.373 104.137 344.814 103.538 344.265C102.921 343.738 102.367 343.265 101.877 342.847C101.369 342.45 101.009 342.16 100.796 341.979C100.498 341.724 100.25 341.605 100.053 341.62C99.8555 341.636 99.6295 341.792 99.375 342.09L79.6265 365.213ZM110.027 371.072L106.29 367.881L117.556 354.691L121.292 357.882L110.027 371.072ZM106.705 368.235L94.4417 357.761L103.716 346.903L115.98 357.377L113.17 360.666L104.675 353.411L101.02 357.69L109.515 364.946L106.705 368.235Z" fill="#A70B0E"/>
</g>
<path d="M225.705 52.756L227.699 25.673L218.57 25.0174L218.968 19.618L243.783 21.4002L243.385 26.7996L234.171 26.1378L232.177 53.2208L225.705 52.756Z" fill="#8B0B0D"/>
<path d="M251.536 56.6616C249.409 56.1985 247.837 55.1527 246.821 53.5243C245.805 51.8959 245.528 50.0473 245.99 47.9784C246.564 45.4062 248.098 43.6589 250.594 42.7363C253.123 41.7919 256.868 41.5812 261.829 42.1043C262.335 39.3121 261.286 37.6326 258.683 37.0659C256.836 36.6637 254.456 36.9371 251.544 37.8862L250.204 33.2408C254.121 31.8656 257.703 31.5314 260.949 32.2383C264 32.9026 266.096 34.2969 267.236 36.4214C268.404 38.552 268.598 41.3647 267.818 44.8594L264.682 58.9083L259.56 57.7931L259.627 55.1252L259.501 55.0978C256.598 56.6644 253.943 57.1857 251.536 56.6616ZM254.688 52.2029C256.2 52.532 257.931 52.0734 259.882 50.8272L260.959 46.0045C255.603 45.5419 252.666 46.4709 252.148 48.7914C251.742 50.6087 252.589 51.7459 254.688 52.2029Z" fill="#8B0B0D"/>
<path d="M275.276 62.0827L284.075 39.0877L290.073 41.3268L281.274 64.3217L275.276 62.0827ZM288.563 36.4976C287.516 36.1069 286.762 35.4737 286.299 34.5979C285.874 33.7053 285.841 32.7909 286.199 31.8545C286.568 30.8913 287.2 30.2407 288.096 29.9026C289.029 29.5477 290.019 29.5656 291.066 29.9563C292.113 30.347 292.854 30.9753 293.289 31.841C293.735 32.6801 293.773 33.5812 293.405 34.5443C293.047 35.4807 292.396 36.1397 291.452 36.5213C290.546 36.8862 289.583 36.8783 288.563 36.4976Z" fill="#8B0B0D"/>
<path d="M289.408 71.894L307.768 43.1894L312.252 45.9871L311.25 48.3502L311.396 48.4412C314.653 47.9747 317.278 48.3632 319.27 49.6066C321.822 51.1988 323.21 53.415 323.433 56.2554C323.672 59.0716 322.765 62.0845 320.712 65.294C318.52 68.7207 315.901 70.9016 312.855 71.8369C309.833 72.7874 307.107 72.5044 304.676 70.988C302.854 69.8508 301.594 68.0185 300.899 65.4912L298.868 68.9847L294.84 75.2831L289.408 71.894ZM303.476 61.7814C304.027 63.5773 304.971 64.8922 306.308 65.7262C307.644 66.5602 309.089 66.6679 310.64 66.0493C312.192 65.4307 313.663 64.0354 315.052 61.8636C317.676 57.7612 317.603 54.8457 314.832 53.117C313.52 52.2982 311.671 52.1578 309.287 52.6959L303.476 61.7814Z" fill="#8B0B0D"/>
<path d="M326.387 86.6008C323.696 84.3264 322.224 81.5635 321.971 78.3121C321.719 75.0607 322.887 71.9411 325.475 68.9534C327.989 66.0524 330.898 64.4229 334.202 64.0651C337.528 63.7258 340.372 64.5546 342.735 66.5517C345.251 68.6781 346.474 71.1373 346.405 73.9291C346.358 76.7394 345.181 79.4761 342.873 82.139C342.029 83.1132 341.315 83.7846 340.73 84.1531L329.113 74.3344C328.016 75.9947 327.57 77.6245 327.776 79.2238C328.023 80.82 328.857 82.219 330.279 83.4209C331.723 84.6413 333.51 85.401 335.638 85.6999L334.723 90.1022C331.572 89.8019 328.794 88.6348 326.387 86.6008ZM331.833 71.0639L339.512 77.5543C340.638 76.2553 341.204 74.9897 341.21 73.7575C341.257 72.5221 340.69 71.4052 339.509 70.4067C338.48 69.5376 337.274 69.1367 335.889 69.204C334.504 69.2712 333.152 69.8912 331.833 71.0639Z" fill="#8B0B0D"/>
<path d="M340.65 98.5672L357.18 80.3207L361.976 84.5622L345.445 102.809L340.65 98.5672ZM362.31 79.5227C361.473 78.7826 360.997 77.9217 360.881 76.94C360.806 75.9561 361.105 75.0926 361.778 74.3496C362.471 73.5853 363.297 73.2069 364.256 73.2143C365.257 73.2194 366.175 73.5921 367.012 74.3322C367.849 75.0723 368.314 75.9237 368.408 76.8864C368.522 77.8279 368.232 78.6808 367.54 79.445C366.867 80.188 366.02 80.5676 365.001 80.5837C364.022 80.5975 363.125 80.2439 362.31 79.5227Z" fill="#8B0B0D"/>
<path d="M84.4028 115.604L60.3653 93.6261L65.2363 88.2985L80.2343 94.5007C81.289 94.9604 83.2768 95.8852 86.198 97.2752L86.3429 97.1166C86.0343 96.5627 85.507 95.6536 84.761 94.3893C83.9939 93.1057 83.4225 92.1175 83.0468 91.4247L75.4424 77.136L80.3135 71.8084L104.351 93.7862L100.35 98.1624L90.3288 89.0002C89.1872 87.9564 86.7387 85.349 82.9835 81.178L82.8385 81.3366C84.4488 84.2451 87.9715 90.9204 93.4065 101.363L90.884 104.121L77.3783 98.6432L69.994 95.3849L69.878 95.5117C74.3678 98.8793 77.1835 101.085 78.3251 102.129L88.346 111.291L84.4028 115.604Z" fill="#8B0B0D"/>
<path d="M119.078 83.1669C116.351 85.3981 113.355 86.3505 110.09 86.0241C106.825 85.6976 103.94 84.0046 101.437 80.9451C99.0063 77.9743 97.9048 74.8412 98.1325 71.5458C98.3823 68.2323 99.7045 65.596 102.099 63.6369C104.648 61.5508 107.3 60.7878 110.053 61.3481C112.828 61.8903 115.332 63.5248 117.563 66.2518C118.379 67.2494 118.918 68.0667 119.18 68.7036L107.408 78.3359C108.859 79.7024 110.395 80.426 112.015 80.5066C113.64 80.5468 115.173 79.9774 116.614 78.7983C118.077 77.6011 119.144 75.9877 119.815 73.958L124.015 75.6299C123.162 78.6592 121.517 81.1715 119.078 83.1669ZM104.648 75.098L112.429 68.7309C111.341 67.4007 110.187 66.6237 108.968 66.4C107.752 66.136 106.546 66.4938 105.349 67.4733C104.307 68.3259 103.697 69.4355 103.52 70.802C103.343 72.1685 103.718 73.6005 104.648 75.098Z" fill="#8B0B0D"/>
<path d="M141.334 70.2908C136.694 73.0806 132.788 71.8365 129.614 66.5583L123.99 57.2048L121.044 58.9762L118.586 54.8886L121.672 52.6824L118.888 46.635L123.528 43.8451L126.938 49.5161L132.13 46.3941L134.743 50.7394L129.551 53.8614L135.175 63.2149C136.606 65.5962 138.28 66.2112 140.195 65.0598C140.759 64.7203 141.351 64.1474 141.969 63.3411L145.325 66.8383C144.039 68.3133 142.709 69.4641 141.334 70.2908Z" fill="#8B0B0D"/>
<path d="M153.178 62.9453L143.659 40.2388L148.533 38.1954L150.607 42.0317L150.766 41.9652C150.976 40.1689 151.482 38.6363 152.286 37.3675C153.105 36.0613 154.109 35.1589 155.298 34.6606C156.249 34.2618 157.219 34.057 158.209 34.046L159.298 39.6461C158.342 39.7364 157.494 39.9365 156.755 40.2466C155.777 40.6564 154.968 41.4305 154.327 42.5689C153.675 43.6809 153.366 45.1304 153.401 46.9174L159.083 60.47L153.178 62.9453Z" fill="#8B0B0D"/>
<path d="M191.21 46.3124C189.55 49.1667 187.153 50.9983 184.019 51.8073C180.885 52.6162 177.887 52.177 175.025 50.4896C172.192 48.795 170.288 46.0616 169.314 42.2894C168.334 38.4895 168.673 35.1623 170.333 32.308C172.013 29.4189 174.42 27.5698 177.555 26.7609C180.689 25.9519 183.673 26.3947 186.506 28.0893C189.34 29.7838 191.251 32.545 192.239 36.3727C193.213 40.1449 192.87 43.4581 191.21 46.3124ZM178.449 45.7008C179.673 46.7754 181.089 47.105 182.698 46.6898C184.307 46.2746 185.373 45.3042 185.896 43.7787C186.44 42.2182 186.419 40.3008 185.832 38.0263C185.238 35.7242 184.325 34.022 183.094 32.9197C181.89 31.8102 180.484 31.4631 178.875 31.8783C177.267 32.2935 176.19 33.2814 175.646 34.8418C175.102 36.4023 175.127 38.3336 175.722 40.6357C176.309 42.9102 177.218 44.5985 178.449 45.7008Z" fill="#8B0B0D"/>
<defs>
<filter id="filter0_i_1504_334" x="69" y="70" width="301" height="302.7" filterUnits="userSpaceOnUse" color-interpolation-filters="sRGB">
<feFlood flood-opacity="0" result="BackgroundImageFix"/>
<feBlend mode="normal" in="SourceGraphic" in2="BackgroundImageFix" result="shape"/>
<feColorMatrix in="SourceAlpha" type="matrix" values="0 0 0 0 0 0 0 0 0 0 0 0 0 0 0 0 0 0 127 0" result="hardAlpha"/>
<feMorphology radius="2" operator="dilate" in="SourceAlpha" result="effect1_innerShadow_1504_334"/>
<feOffset dx="-1" dy="2.7"/>
<feGaussianBlur stdDeviation="7.5"/>
<feComposite in2="hardAlpha" operator="arithmetic" k2="-1" k3="1"/>
<feColorMatrix type="matrix" values="0 0 0 0 0.336369 0 0 0 0 0.0556531 0 0 0 0 0.0556531 0 0 0 0.8 0"/>
<feBlend mode="normal" in2="shape" result="effect1_innerShadow_1504_334"/>
</filter>
<filter id="filter1_d_1504_334" x="112.14" y="166.7" width="216.16" height="66.8799" filterUnits="userSpaceOnUse" color-interpolation-filters="sRGB">
<feFlood flood-opacity="0" result="BackgroundImageFix"/>
<feColorMatrix in="SourceAlpha" type="matrix" values="0 0 0 0 0 0 0 0 0 0 0 0 0 0 0 0 0 0 127 0" result="hardAlpha"/>
<feOffset dx="1" dy="-1"/>
<feGaussianBlur stdDeviation="2.5"/>
<feComposite in2="hardAlpha" operator="out"/>
<feColorMatrix type="matrix" values="0 0 0 0 0 0 0 0 0 0 0 0 0 0 0 0 0 0 0.45 0"/>
<feBlend mode="normal" in2="BackgroundImageFix" result="effect1_dropShadow_1504_334"/>
<feBlend mode="normal" in="BackgroundImageFix" in2="effect1_dropShadow_1504_334" result="BackgroundImageFix"/>
<feBlend mode="normal" in="SourceGraphic" in2="BackgroundImageFix" result="shape"/>
</filter>
<filter id="filter2_d_1504_334" x="129.934" y="242.68" width="180.264" height="34.6406" filterUnits="userSpaceOnUse" color-interpolation-filters="sRGB">
<feFlood flood-opacity="0" result="BackgroundImageFix"/>
<feColorMatrix in="SourceAlpha" type="matrix" values="0 0 0 0 0 0 0 0 0 0 0 0 0 0 0 0 0 0 127 0" result="hardAlpha"/>
<feOffset/>
<feGaussianBlur stdDeviation="2.5"/>
<feComposite in2="hardAlpha" operator="out"/>
<feColorMatrix type="matrix" values="0 0 0 0 0 0 0 0 0 0 0 0 0 0 0 0 0 0 0.45 0"/>
<feBlend mode="normal" in2="BackgroundImageFix" result="effect1_dropShadow_1504_334"/>
<feBlend mode="normal" in="SourceGraphic" in2="effect1_dropShadow_1504_334" result="shape"/>
</filter>
<filter id="filter4_i_1504_334" x="75.666" y="333.821" width="293.168" height="92.3965" filterUnits="userSpaceOnUse" color-interpolation-filters="sRGB">
<feFlood flood-opacity="0" result="BackgroundImageFix"/>
<feBlend mode="normal" in="SourceGraphic" in2="BackgroundImageFix" result="shape"/>
<feColorMatrix in="SourceAlpha" type="matrix" values="0 0 0 0 0 0 0 0 0 0 0 0 0 0 0 0 0 0 127 0" result="hardAlpha"/>
<feOffset dy="2"/>
<feGaussianBlur stdDeviation="2"/>
<feComposite in2="hardAlpha" operator="arithmetic" k2="-1" k3="1"/>
<feColorMatrix type="matrix" values="0 0 0 0 0 0 0 0 0 0 0 0 0 0 0 0 0 0 0.26 0"/>
<feBlend mode="normal" in2="shape" result="effect1_innerShadow_1504_334"/>
</filter>
</defs>
</svg>
