<svg width="440" height="440" viewBox="0 0 440 440" fill="none" xmlns="http://www.w3.org/2000/svg">
<rect width="440" height="440" rx="220" fill="#406299"/>
<g filter="url(#filter0_i_1503_622)">
<rect x="50" y="50" width="340" height="340" rx="170" fill="#406299"/>
<path d="M115.84 167.56H123.6V215.72H115.84V167.56ZM99.68 181.32V187.08H140.72V181.32H99.68ZM99.68 170.04V175.72H140.72V170.04H99.68ZM92.32 164.04H148.48V193.08H92.32V164.04ZM84.48 198.36H155.76V204.92H84.48V198.36ZM96.64 149.4V155.64H110.16V149.4H96.64ZM89.84 144.6H117.28V160.44H89.84V144.6ZM129.76 149.4V155.64H143.52V149.4H129.76ZM123.04 144.6H150.72V160.44H123.04V144.6ZM230.88 179.56H238.4V211.64H230.88V179.56ZM214.08 176.76H255.52V183.32H214.08V176.76ZM210.72 207.08H257.28V213.8H210.72V207.08ZM215.92 191.64H253.68V198.12H215.92V191.64ZM223.92 151.08V164.28H245.68V151.08H223.92ZM216.88 144.68H253.04V170.68H216.88V144.68ZM196 148.44H203.36V215.64H196V148.44ZM183.6 163.96H212.8V171.08H183.6V163.96ZM196.4 166.76L200.96 168.76C200.16 171.587 199.2 174.547 198.08 177.64C196.96 180.68 195.733 183.693 194.4 186.68C193.12 189.667 191.733 192.467 190.24 195.08C188.747 197.693 187.227 199.933 185.68 201.8C185.307 200.733 184.747 199.533 184 198.2C183.253 196.813 182.587 195.667 182 194.76C183.44 193.16 184.853 191.267 186.24 189.08C187.627 186.84 188.96 184.467 190.24 181.96C191.573 179.4 192.747 176.813 193.76 174.2C194.827 171.587 195.707 169.107 196.4 166.76ZM208.16 142.44L213.36 148.28C210.747 149.293 207.84 150.227 204.64 151.08C201.493 151.88 198.24 152.6 194.88 153.24C191.52 153.827 188.267 154.36 185.12 154.84C184.96 153.987 184.667 153 184.24 151.88C183.813 150.76 183.387 149.8 182.96 149C185.947 148.52 188.987 147.96 192.08 147.32C195.227 146.627 198.187 145.88 200.96 145.08C203.787 144.227 206.187 143.347 208.16 142.44ZM203.2 174.68C203.68 175.053 204.427 175.773 205.44 176.84C206.453 177.853 207.547 178.947 208.72 180.12C209.947 181.293 211.04 182.413 212 183.48C212.96 184.493 213.627 185.24 214 185.72L209.6 191.64C209.12 190.787 208.453 189.72 207.6 188.44C206.8 187.16 205.893 185.853 204.88 184.52C203.92 183.133 202.987 181.827 202.08 180.6C201.173 179.373 200.4 178.387 199.76 177.64L203.2 174.68ZM331.04 201.24L336.48 197.4C338.613 198.52 340.88 199.827 343.28 201.32C345.68 202.76 347.947 204.227 350.08 205.72C352.267 207.16 354.08 208.493 355.52 209.72L349.6 214.12C348.32 212.893 346.613 211.507 344.48 209.96C342.4 208.467 340.187 206.947 337.84 205.4C335.493 203.853 333.227 202.467 331.04 201.24ZM293.76 179.24H346.4V185.08H293.76V179.24ZM284.08 189.64H356.08V195.8H284.08V189.64ZM285.12 144.44H354.56V150.52H285.12V144.44ZM316.24 190.84H323.84V208.12C323.84 209.933 323.6 211.347 323.12 212.36C322.693 213.373 321.813 214.147 320.48 214.68C319.2 215.213 317.573 215.533 315.6 215.64C313.627 215.747 311.253 215.8 308.48 215.8C308.32 214.787 308 213.64 307.52 212.36C307.04 211.08 306.56 209.987 306.08 209.08C308.053 209.133 309.867 209.16 311.52 209.16C313.173 209.213 314.293 209.213 314.88 209.16C315.413 209.107 315.76 209 315.92 208.84C316.133 208.68 316.24 208.36 316.24 207.88V190.84ZM300.8 197.16L307.76 199.56C306.267 201.533 304.453 203.48 302.32 205.4C300.24 207.267 298.053 209 295.76 210.6C293.52 212.253 291.307 213.667 289.12 214.84C288.747 214.413 288.187 213.853 287.44 213.16C286.747 212.52 286.053 211.88 285.36 211.24C284.667 210.653 284.027 210.173 283.44 209.8C286.747 208.307 289.973 206.467 293.12 204.28C296.267 202.04 298.827 199.667 300.8 197.16ZM296.88 161.4V169.24H343.04V161.4H296.88ZM289.84 155.8H350.48V174.84H289.84V155.8ZM307.2 146.76H314.16V172.44H307.2V146.76ZM325.04 146.76H332.08V172.44H325.04V146.76Z" fill="#2A4672"/>
<path d="M89.0668 239.525C89.1056 238.175 88.6931 237.142 87.8292 236.423C86.9751 235.705 85.7472 235.346 84.1456 235.346C83.0197 235.346 82.0248 235.516 81.1609 235.855C80.3067 236.185 79.6176 236.647 79.0934 237.239C78.5693 237.821 78.2441 238.486 78.1179 239.233C78.0112 239.845 78.0646 240.379 78.2781 240.835C78.4916 241.291 78.8168 241.679 79.2536 242C79.7001 242.32 80.2048 242.587 80.7678 242.8C81.3405 243.014 81.9229 243.194 82.515 243.339L85.1939 244.038C86.2616 244.3 87.2808 244.654 88.2515 245.101C89.2221 245.538 90.0617 246.101 90.7703 246.79C91.4886 247.469 92.0127 248.289 92.3427 249.25C92.6727 250.211 92.7261 251.337 92.5029 252.628C92.2117 254.375 91.508 255.914 90.3917 257.244C89.2852 258.564 87.8292 259.597 86.0238 260.345C84.2281 261.083 82.1364 261.451 79.7486 261.451C77.4385 261.451 75.4875 261.092 73.8956 260.374C72.3038 259.646 71.139 258.593 70.4013 257.214C69.6733 255.836 69.4404 254.162 69.7025 252.191H75.0167C74.91 253.23 75.0798 254.094 75.5263 254.783C75.9825 255.472 76.6377 255.987 77.4919 256.326C78.346 256.666 79.3361 256.836 80.462 256.836C81.6365 256.836 82.6994 256.661 83.6506 256.312C84.6018 255.953 85.3784 255.458 85.9802 254.827C86.5917 254.186 86.9654 253.439 87.1013 252.585C87.2371 251.818 87.1255 251.177 86.7664 250.663C86.4072 250.148 85.8491 249.721 85.092 249.381C84.3446 249.032 83.4516 248.721 82.413 248.45L79.1808 247.576C76.8415 246.935 75.0653 245.974 73.852 244.693C72.6484 243.412 72.2213 241.704 72.5707 239.568C72.8619 237.802 73.5947 236.263 74.7692 234.953C75.9437 233.633 77.4142 232.609 79.1808 231.881C80.9474 231.143 82.879 230.774 84.9755 230.774C87.0915 230.774 88.8824 231.143 90.3481 231.881C91.8234 232.618 92.9008 233.647 93.5803 234.967C94.2695 236.278 94.4976 237.797 94.2646 239.525H89.0668ZM95.7024 261L99.4296 238.636H104.7L100.973 261H95.7024ZM102.837 235.433C101.992 235.433 101.293 235.152 100.74 234.589C100.187 234.026 99.9441 233.351 100.012 232.565C100.08 231.779 100.434 231.104 101.075 230.541C101.725 229.978 102.468 229.697 103.303 229.697C104.147 229.697 104.841 229.978 105.385 230.541C105.938 231.104 106.18 231.779 106.113 232.565C106.054 233.351 105.7 234.026 105.05 234.589C104.409 235.152 103.671 235.433 102.837 235.433ZM113.847 247.896L111.693 261H106.407L110.135 238.636H115.187L114.546 242.436H114.823C115.522 241.184 116.502 240.189 117.764 239.452C119.026 238.714 120.496 238.345 122.175 238.345C123.699 238.345 124.981 238.675 126.019 239.335C127.058 239.986 127.795 240.942 128.232 242.203C128.669 243.456 128.737 244.975 128.436 246.761L126.048 261H120.778L123.005 247.576C123.258 246.091 123.068 244.926 122.438 244.082C121.816 243.228 120.817 242.8 119.438 242.8C118.516 242.8 117.667 243.004 116.89 243.412C116.114 243.81 115.459 244.387 114.925 245.145C114.401 245.902 114.041 246.819 113.847 247.896ZM139.705 269.852C137.803 269.852 136.216 269.595 134.944 269.081C133.673 268.576 132.692 267.896 132.003 267.042C131.314 266.188 130.887 265.242 130.722 264.203L135.672 263.053C135.818 263.49 136.051 263.922 136.371 264.349C136.701 264.786 137.186 265.145 137.827 265.426C138.468 265.717 139.322 265.863 140.39 265.863C141.884 265.863 143.19 265.499 144.306 264.771C145.422 264.043 146.112 262.859 146.374 261.218L147.043 256.982H146.781C146.432 257.525 145.951 258.083 145.34 258.656C144.738 259.229 143.976 259.709 143.054 260.097C142.142 260.486 141.045 260.68 139.764 260.68C138.045 260.68 136.556 260.277 135.294 259.471C134.032 258.656 133.124 257.443 132.571 255.831C132.028 254.21 131.96 252.182 132.367 249.745C132.765 247.29 133.513 245.217 134.609 243.528C135.716 241.83 137.041 240.544 138.584 239.67C140.128 238.787 141.758 238.345 143.476 238.345C144.787 238.345 145.83 238.568 146.607 239.015C147.383 239.452 147.97 239.981 148.368 240.602C148.766 241.213 149.057 241.791 149.242 242.335H149.519L150.13 238.636H155.328L151.571 261.364C151.261 263.276 150.547 264.858 149.431 266.11C148.315 267.372 146.912 268.309 145.223 268.92C143.544 269.542 141.705 269.852 139.705 269.852ZM141.86 256.545C142.976 256.545 143.976 256.273 144.859 255.729C145.743 255.186 146.48 254.404 147.072 253.385C147.665 252.366 148.077 251.143 148.31 249.716C148.543 248.309 148.533 247.076 148.281 246.018C148.038 244.96 147.568 244.14 146.869 243.558C146.17 242.965 145.257 242.669 144.131 242.669C142.957 242.669 141.928 242.975 141.045 243.587C140.171 244.198 139.453 245.038 138.89 246.105C138.337 247.163 137.948 248.367 137.725 249.716C137.512 251.085 137.512 252.284 137.725 253.312C137.948 254.332 138.4 255.128 139.079 255.7C139.768 256.263 140.695 256.545 141.86 256.545ZM167.223 231.182L162.273 261H157.002L161.952 231.182H167.223ZM177.535 261.437C175.293 261.437 173.439 260.971 171.973 260.039C170.507 259.098 169.479 257.768 168.886 256.05C168.304 254.322 168.207 252.288 168.595 249.949C168.974 247.649 169.746 245.63 170.91 243.892C172.075 242.145 173.531 240.786 175.278 239.816C177.035 238.835 178.976 238.345 181.102 238.345C182.48 238.345 183.747 238.568 184.902 239.015C186.057 239.452 187.033 240.131 187.829 241.053C188.625 241.975 189.173 243.15 189.474 244.577C189.775 245.994 189.76 247.683 189.43 249.643L189.183 251.26H170.837L171.405 247.707H184.684C184.858 246.698 184.8 245.8 184.509 245.013C184.218 244.218 183.732 243.592 183.053 243.135C182.374 242.679 181.524 242.451 180.505 242.451C179.467 242.451 178.496 242.718 177.593 243.252C176.7 243.776 175.948 244.455 175.336 245.29C174.725 246.125 174.337 247.003 174.172 247.925L173.575 251.332C173.361 252.73 173.41 253.871 173.72 254.754C174.031 255.637 174.574 256.288 175.351 256.705C176.128 257.122 177.108 257.331 178.292 257.331C179.069 257.331 179.787 257.224 180.447 257.011C181.107 256.797 181.694 256.477 182.209 256.05C182.733 255.613 183.17 255.079 183.519 254.448L188.338 255.001C187.804 256.302 187.023 257.438 185.994 258.408C184.965 259.369 183.732 260.117 182.296 260.651C180.869 261.175 179.282 261.437 177.535 261.437ZM208.008 246.411L207.295 250.75H193.885L194.599 246.411H208.008ZM228.082 231.182H233.44L229.946 252.221C229.635 254.133 228.975 255.778 227.966 257.156C226.966 258.525 225.695 259.578 224.151 260.316C222.618 261.044 220.88 261.408 218.939 261.408C217.182 261.408 215.648 261.097 214.338 260.476C213.028 259.845 212.062 258.913 211.441 257.68C210.82 256.438 210.659 254.904 210.96 253.08H216.26C216.144 253.905 216.202 254.608 216.435 255.191C216.677 255.773 217.066 256.215 217.599 256.516C218.143 256.817 218.813 256.967 219.609 256.967C220.492 256.967 221.273 256.778 221.953 256.399C222.642 256.021 223.215 255.467 223.671 254.739C224.127 254.011 224.447 253.123 224.632 252.075L228.082 231.182ZM243.931 261.437C241.727 261.437 239.893 260.951 238.427 259.981C236.971 259.01 235.947 257.646 235.355 255.89C234.763 254.133 234.656 252.094 235.035 249.775C235.413 247.484 236.17 245.479 237.306 243.761C238.451 242.043 239.893 240.714 241.63 239.772C243.377 238.821 245.333 238.345 247.498 238.345C249.701 238.345 251.531 238.835 252.987 239.816C254.443 240.786 255.467 242.15 256.059 243.907C256.661 245.664 256.772 247.712 256.394 250.051C256.025 252.332 255.263 254.327 254.108 256.035C252.962 257.743 251.521 259.073 249.784 260.025C248.046 260.966 246.095 261.437 243.931 261.437ZM244.367 257.214C245.59 257.214 246.663 256.884 247.585 256.224C248.517 255.555 249.279 254.657 249.871 253.531C250.473 252.395 250.89 251.133 251.123 249.745C251.337 248.406 251.341 247.193 251.138 246.105C250.934 245.009 250.497 244.14 249.827 243.499C249.167 242.849 248.25 242.524 247.076 242.524C245.852 242.524 244.77 242.864 243.829 243.543C242.897 244.213 242.135 245.115 241.543 246.251C240.951 247.377 240.543 248.634 240.32 250.022C240.097 251.362 240.087 252.575 240.291 253.662C240.495 254.749 240.931 255.613 241.601 256.254C242.271 256.894 243.193 257.214 244.367 257.214ZM274.874 251.594L277.043 238.636H282.314L278.586 261H273.476L274.146 257.025H273.913C273.214 258.277 272.214 259.301 270.913 260.097C269.622 260.893 268.137 261.291 266.458 261.291C264.992 261.291 263.755 260.966 262.745 260.316C261.736 259.656 261.018 258.7 260.591 257.447C260.173 256.186 260.11 254.662 260.401 252.876L262.789 238.636H268.06L265.817 252.06C265.594 253.478 265.798 254.603 266.429 255.438C267.07 256.273 268.021 256.69 269.283 256.69C270.059 256.69 270.841 256.501 271.627 256.123C272.423 255.744 273.117 255.181 273.709 254.434C274.301 253.676 274.689 252.73 274.874 251.594ZM284.006 261L287.733 238.636H292.844L292.218 242.364H292.451C293.062 241.073 293.926 240.078 295.042 239.379C296.168 238.67 297.372 238.316 298.653 238.316C298.954 238.316 299.279 238.331 299.629 238.36C299.978 238.379 300.279 238.413 300.531 238.462L299.716 243.31C299.493 243.232 299.143 243.164 298.668 243.106C298.202 243.038 297.741 243.004 297.284 243.004C296.324 243.004 295.431 243.213 294.606 243.63C293.79 244.038 293.101 244.606 292.538 245.334C291.975 246.062 291.611 246.901 291.446 247.853L289.277 261H284.006ZM307.757 247.896L305.602 261H300.317L304.044 238.636H309.096L308.455 242.436H308.732C309.431 241.184 310.411 240.189 311.673 239.452C312.935 238.714 314.405 238.345 316.085 238.345C317.609 238.345 318.89 238.675 319.928 239.335C320.967 239.986 321.705 240.942 322.141 242.203C322.578 243.456 322.646 244.975 322.345 246.761L319.958 261H314.687L316.915 247.576C317.167 246.091 316.978 244.926 316.347 244.082C315.726 243.228 314.726 242.8 313.347 242.8C312.425 242.8 311.576 243.004 310.799 243.412C310.023 243.81 309.368 244.387 308.834 245.145C308.31 245.902 307.951 246.819 307.757 247.896ZM335.129 261.437C332.886 261.437 331.033 260.971 329.567 260.039C328.101 259.098 327.072 257.768 326.48 256.05C325.898 254.322 325.801 252.288 326.189 249.949C326.568 247.649 327.339 245.63 328.504 243.892C329.669 242.145 331.125 240.786 332.872 239.816C334.629 238.835 336.57 238.345 338.696 238.345C340.074 238.345 341.341 238.568 342.496 239.015C343.651 239.452 344.626 240.131 345.422 241.053C346.218 241.975 346.767 243.15 347.068 244.577C347.369 245.994 347.354 247.683 347.024 249.643L346.776 251.26H328.431L328.999 247.707H342.277C342.452 246.698 342.394 245.8 342.103 245.013C341.812 244.218 341.326 243.592 340.647 243.135C339.967 242.679 339.118 242.451 338.099 242.451C337.06 242.451 336.09 242.718 335.187 243.252C334.294 243.776 333.542 244.455 332.93 245.29C332.319 246.125 331.93 247.003 331.765 247.925L331.168 251.332C330.955 252.73 331.003 253.871 331.314 254.754C331.625 255.637 332.168 256.288 332.945 256.705C333.721 257.122 334.702 257.331 335.886 257.331C336.662 257.331 337.381 257.224 338.041 257.011C338.701 256.797 339.288 256.477 339.802 256.05C340.326 255.613 340.763 255.079 341.113 254.448L345.932 255.001C345.398 256.302 344.617 257.438 343.588 258.408C342.559 259.369 341.326 260.117 339.89 260.651C338.463 261.175 336.876 261.437 335.129 261.437ZM350.897 269.386C350.179 269.386 349.523 269.328 348.931 269.212C348.349 269.105 347.888 268.979 347.548 268.833L349.47 264.727C350.198 264.951 350.853 265.048 351.436 265.018C352.028 264.999 352.571 264.8 353.066 264.422C353.571 264.053 354.066 263.446 354.551 262.602L355.221 261.393L350.94 238.636H356.328L358.657 255.555H358.89L366.883 238.636H372.693L359.603 263.679C358.973 264.892 358.24 265.921 357.405 266.766C356.57 267.62 355.614 268.27 354.537 268.717C353.469 269.163 352.256 269.386 350.897 269.386Z" fill="#223A65"/>
<path d="M162.08 279.71L162.837 275.182H186.627L185.87 279.71H176.654L172.461 305H167.103L171.296 279.71H162.08ZM186.03 305L189.758 282.636H195.028L191.301 305H186.03ZM193.165 279.433C192.32 279.433 191.621 279.152 191.068 278.589C190.515 278.026 190.272 277.351 190.34 276.565C190.408 275.779 190.762 275.104 191.403 274.541C192.053 273.978 192.796 273.697 193.631 273.697C194.475 273.697 195.169 273.978 195.713 274.541C196.266 275.104 196.509 275.779 196.441 276.565C196.382 277.351 196.028 278.026 195.378 278.589C194.737 279.152 193.999 279.433 193.165 279.433ZM206.418 305.437C204.185 305.437 202.351 304.947 200.914 303.966C199.478 302.986 198.473 301.632 197.9 299.904C197.337 298.167 197.245 296.167 197.624 293.906C197.992 291.634 198.754 289.63 199.909 287.892C201.074 286.145 202.54 284.786 204.307 283.816C206.073 282.835 208.048 282.345 210.232 282.345C212.047 282.345 213.596 282.68 214.877 283.35C216.168 284.01 217.129 284.946 217.76 286.16C218.4 287.363 218.648 288.771 218.502 290.382H213.45C213.431 289.305 213.096 288.407 212.445 287.689C211.795 286.961 210.844 286.597 209.592 286.597C208.505 286.597 207.505 286.888 206.592 287.47C205.68 288.043 204.908 288.868 204.277 289.945C203.646 291.023 203.21 292.314 202.967 293.818C202.715 295.342 202.72 296.652 202.982 297.749C203.253 298.836 203.744 299.676 204.452 300.268C205.17 300.85 206.078 301.142 207.175 301.142C207.951 301.142 208.674 300.996 209.344 300.705C210.014 300.404 210.601 299.972 211.106 299.409C211.62 298.846 212.023 298.162 212.314 297.356H217.352C216.954 298.938 216.245 300.341 215.226 301.564C214.217 302.777 212.965 303.728 211.47 304.418C209.975 305.097 208.291 305.437 206.418 305.437ZM226.339 297.982L227.373 291.62H228.217L237.783 282.636H243.942L232.236 293.643H231.158L226.339 297.982ZM220.384 305L225.334 275.182H230.605L225.655 305H220.384ZM234.42 305L228.829 294.823L233.007 291.11L240.724 305H234.42ZM252.648 305.437C250.406 305.437 248.552 304.971 247.086 304.039C245.621 303.098 244.592 301.768 244 300.05C243.417 298.322 243.32 296.288 243.709 293.949C244.087 291.649 244.859 289.63 246.024 287.892C247.188 286.145 248.644 284.786 250.391 283.816C252.148 282.835 254.09 282.345 256.215 282.345C257.594 282.345 258.86 282.568 260.015 283.015C261.17 283.452 262.146 284.131 262.942 285.053C263.738 285.975 264.286 287.15 264.587 288.577C264.888 289.994 264.873 291.683 264.543 293.643L264.296 295.26H245.951L246.519 291.707H259.797C259.972 290.698 259.913 289.8 259.622 289.013C259.331 288.218 258.846 287.592 258.166 287.135C257.487 286.679 256.638 286.451 255.618 286.451C254.58 286.451 253.609 286.718 252.706 287.252C251.813 287.776 251.061 288.455 250.45 289.29C249.838 290.125 249.45 291.003 249.285 291.925L248.688 295.332C248.474 296.73 248.523 297.871 248.834 298.754C249.144 299.637 249.688 300.288 250.464 300.705C251.241 301.122 252.221 301.331 253.405 301.331C254.182 301.331 254.9 301.224 255.56 301.011C256.22 300.797 256.807 300.477 257.322 300.05C257.846 299.613 258.283 299.079 258.632 298.448L263.451 299.001C262.918 300.302 262.136 301.438 261.107 302.408C260.078 303.369 258.846 304.117 257.409 304.651C255.982 305.175 254.395 305.437 252.648 305.437ZM282.044 282.636L281.36 286.713H268.518L269.188 282.636H282.044ZM273.236 277.278H278.506L275.012 298.273C274.905 298.982 274.924 299.526 275.07 299.904C275.225 300.273 275.473 300.525 275.813 300.661C276.162 300.797 276.555 300.865 276.992 300.865C277.312 300.865 277.613 300.841 277.895 300.792C278.176 300.734 278.399 300.69 278.564 300.661L278.797 304.782C278.477 304.879 278.045 304.985 277.502 305.102C276.968 305.218 276.327 305.286 275.58 305.306C274.24 305.335 273.075 305.131 272.085 304.694C271.105 304.248 270.387 303.563 269.931 302.641C269.484 301.71 269.382 300.545 269.625 299.147L273.236 277.278Z" fill="#223A65"/>
</g>
<path d="M184.351 428V424.739L194.441 414.285C195.518 413.149 196.406 412.154 197.105 411.3C197.814 410.436 198.343 409.616 198.692 408.839C199.041 408.063 199.216 407.238 199.216 406.364C199.216 405.374 198.983 404.52 198.517 403.802C198.051 403.074 197.416 402.516 196.61 402.127C195.804 401.73 194.897 401.531 193.887 401.531C192.82 401.531 191.888 401.749 191.092 402.186C190.296 402.623 189.684 403.239 189.257 404.035C188.83 404.831 188.617 405.763 188.617 406.83H184.322C184.322 405.015 184.739 403.428 185.574 402.069C186.408 400.71 187.554 399.657 189.01 398.91C190.466 398.153 192.121 397.774 193.975 397.774C195.848 397.774 197.498 398.148 198.925 398.895C200.361 399.633 201.483 400.642 202.288 401.924C203.094 403.195 203.497 404.632 203.497 406.233C203.497 407.34 203.288 408.422 202.871 409.48C202.463 410.538 201.749 411.717 200.73 413.018C199.711 414.309 198.294 415.877 196.479 417.721L190.553 423.923V424.142H203.977V428H184.351ZM219.338 428.408C217.513 428.408 215.872 428.058 214.416 427.359C212.97 426.651 211.815 425.68 210.951 424.447C210.087 423.215 209.626 421.807 209.568 420.225H213.936C214.043 421.506 214.61 422.56 215.639 423.385C216.668 424.21 217.901 424.622 219.338 424.622C220.483 424.622 221.497 424.36 222.381 423.836C223.273 423.302 223.972 422.569 224.477 421.637C224.992 420.706 225.249 419.643 225.249 418.449C225.249 417.236 224.987 416.153 224.463 415.202C223.938 414.251 223.215 413.503 222.293 412.96C221.381 412.416 220.332 412.14 219.148 412.13C218.246 412.13 217.338 412.285 216.426 412.596C215.513 412.906 214.776 413.314 214.213 413.819L210.092 413.207L211.767 398.182H228.161V402.04H215.508L214.562 410.383H214.737C215.319 409.82 216.091 409.349 217.052 408.971C218.022 408.592 219.061 408.403 220.167 408.403C221.983 408.403 223.599 408.835 225.016 409.699C226.443 410.562 227.564 411.742 228.379 413.237C229.204 414.722 229.612 416.43 229.602 418.362C229.612 420.293 229.175 422.016 228.292 423.53C227.418 425.044 226.205 426.238 224.652 427.112C223.108 427.976 221.337 428.408 219.338 428.408ZM245.301 428.495C243.001 428.485 241.035 427.879 239.404 426.675C237.774 425.471 236.526 423.719 235.663 421.419C234.799 419.119 234.367 416.347 234.367 413.105C234.367 409.873 234.799 407.112 235.663 404.821C236.536 402.53 237.788 400.783 239.419 399.58C241.059 398.376 243.02 397.774 245.301 397.774C247.582 397.774 249.538 398.381 251.169 399.594C252.799 400.798 254.047 402.545 254.91 404.836C255.784 407.117 256.221 409.873 256.221 413.105C256.221 416.357 255.789 419.133 254.925 421.434C254.061 423.724 252.814 425.476 251.183 426.69C249.552 427.893 247.592 428.495 245.301 428.495ZM245.301 424.608C247.32 424.608 248.897 423.622 250.033 421.652C251.178 419.682 251.751 416.833 251.751 413.105C251.751 410.63 251.489 408.539 250.965 406.83C250.45 405.112 249.708 403.812 248.737 402.928C247.776 402.035 246.631 401.589 245.301 401.589C243.292 401.589 241.715 402.579 240.569 404.559C239.424 406.539 238.846 409.388 238.837 413.105C238.837 415.59 239.094 417.692 239.608 419.41C240.132 421.118 240.875 422.414 241.836 423.297C242.797 424.171 243.952 424.608 245.301 424.608Z" fill="#223A65"/>
<defs>
<filter id="filter0_i_1503_622" x="50" y="50" width="340" height="343.7" filterUnits="userSpaceOnUse" color-interpolation-filters="sRGB">
<feFlood flood-opacity="0" result="BackgroundImageFix"/>
<feBlend mode="normal" in="SourceGraphic" in2="BackgroundImageFix" result="shape"/>
<feColorMatrix in="SourceAlpha" type="matrix" values="0 0 0 0 0 0 0 0 0 0 0 0 0 0 0 0 0 0 127 0" result="hardAlpha"/>
<feOffset dy="3.7"/>
<feGaussianBlur stdDeviation="7.5"/>
<feComposite in2="hardAlpha" operator="arithmetic" k2="-1" k3="1"/>
<feColorMatrix type="matrix" values="0 0 0 0 0 0 0 0 0 0 0 0 0 0 0 0 0 0 0.8 0"/>
<feBlend mode="normal" in2="shape" result="effect1_innerShadow_1503_622"/>
</filter>
</defs>
</svg>
