<svg width="440" height="440" viewBox="0 0 440 440" fill="none" xmlns="http://www.w3.org/2000/svg">
<rect width="440" height="440" rx="220" fill="#3D9872"/>
<g filter="url(#filter0_i_1505_870)">
<rect x="50" y="50" width="340" height="340" rx="170" fill="#3D9872"/>
<path d="M115.84 167.56H123.6V215.72H115.84V167.56ZM99.68 181.32V187.08H140.72V181.32H99.68ZM99.68 170.04V175.72H140.72V170.04H99.68ZM92.32 164.04H148.48V193.08H92.32V164.04ZM84.48 198.36H155.76V204.92H84.48V198.36ZM96.64 149.4V155.64H110.16V149.4H96.64ZM89.84 144.6H117.28V160.44H89.84V144.6ZM129.76 149.4V155.64H143.52V149.4H129.76ZM123.04 144.6H150.72V160.44H123.04V144.6ZM230.88 179.56H238.4V211.64H230.88V179.56ZM214.08 176.76H255.52V183.32H214.08V176.76ZM210.72 207.08H257.28V213.8H210.72V207.08ZM215.92 191.64H253.68V198.12H215.92V191.64ZM223.92 151.08V164.28H245.68V151.08H223.92ZM216.88 144.68H253.04V170.68H216.88V144.68ZM196 148.44H203.36V215.64H196V148.44ZM183.6 163.96H212.8V171.08H183.6V163.96ZM196.4 166.76L200.96 168.76C200.16 171.587 199.2 174.547 198.08 177.64C196.96 180.68 195.733 183.693 194.4 186.68C193.12 189.667 191.733 192.467 190.24 195.08C188.747 197.693 187.227 199.933 185.68 201.8C185.307 200.733 184.747 199.533 184 198.2C183.253 196.813 182.587 195.667 182 194.76C183.44 193.16 184.853 191.267 186.24 189.08C187.627 186.84 188.96 184.467 190.24 181.96C191.573 179.4 192.747 176.813 193.76 174.2C194.827 171.587 195.707 169.107 196.4 166.76ZM208.16 142.44L213.36 148.28C210.747 149.293 207.84 150.227 204.64 151.08C201.493 151.88 198.24 152.6 194.88 153.24C191.52 153.827 188.267 154.36 185.12 154.84C184.96 153.987 184.667 153 184.24 151.88C183.813 150.76 183.387 149.8 182.96 149C185.947 148.52 188.987 147.96 192.08 147.32C195.227 146.627 198.187 145.88 200.96 145.08C203.787 144.227 206.187 143.347 208.16 142.44ZM203.2 174.68C203.68 175.053 204.427 175.773 205.44 176.84C206.453 177.853 207.547 178.947 208.72 180.12C209.947 181.293 211.04 182.413 212 183.48C212.96 184.493 213.627 185.24 214 185.72L209.6 191.64C209.12 190.787 208.453 189.72 207.6 188.44C206.8 187.16 205.893 185.853 204.88 184.52C203.92 183.133 202.987 181.827 202.08 180.6C201.173 179.373 200.4 178.387 199.76 177.64L203.2 174.68ZM331.04 201.24L336.48 197.4C338.613 198.52 340.88 199.827 343.28 201.32C345.68 202.76 347.947 204.227 350.08 205.72C352.267 207.16 354.08 208.493 355.52 209.72L349.6 214.12C348.32 212.893 346.613 211.507 344.48 209.96C342.4 208.467 340.187 206.947 337.84 205.4C335.493 203.853 333.227 202.467 331.04 201.24ZM293.76 179.24H346.4V185.08H293.76V179.24ZM284.08 189.64H356.08V195.8H284.08V189.64ZM285.12 144.44H354.56V150.52H285.12V144.44ZM316.24 190.84H323.84V208.12C323.84 209.933 323.6 211.347 323.12 212.36C322.693 213.373 321.813 214.147 320.48 214.68C319.2 215.213 317.573 215.533 315.6 215.64C313.627 215.747 311.253 215.8 308.48 215.8C308.32 214.787 308 213.64 307.52 212.36C307.04 211.08 306.56 209.987 306.08 209.08C308.053 209.133 309.867 209.16 311.52 209.16C313.173 209.213 314.293 209.213 314.88 209.16C315.413 209.107 315.76 209 315.92 208.84C316.133 208.68 316.24 208.36 316.24 207.88V190.84ZM300.8 197.16L307.76 199.56C306.267 201.533 304.453 203.48 302.32 205.4C300.24 207.267 298.053 209 295.76 210.6C293.52 212.253 291.307 213.667 289.12 214.84C288.747 214.413 288.187 213.853 287.44 213.16C286.747 212.52 286.053 211.88 285.36 211.24C284.667 210.653 284.027 210.173 283.44 209.8C286.747 208.307 289.973 206.467 293.12 204.28C296.267 202.04 298.827 199.667 300.8 197.16ZM296.88 161.4V169.24H343.04V161.4H296.88ZM289.84 155.8H350.48V174.84H289.84V155.8ZM307.2 146.76H314.16V172.44H307.2V146.76ZM325.04 146.76H332.08V172.44H325.04V146.76Z" fill="#247056"/>
<path d="M97.1376 239.961C97.0117 238.782 96.4809 237.865 95.5453 237.208C94.6187 236.551 93.4132 236.223 91.9288 236.223C90.8852 236.223 89.9901 236.38 89.2434 236.695C88.4967 237.01 87.9255 237.437 87.5297 237.977C87.1338 238.517 86.9314 239.133 86.9224 239.826C86.9224 240.402 87.0529 240.901 87.3137 241.324C87.5836 241.747 87.948 242.107 88.4068 242.403C88.8656 242.691 89.3739 242.934 89.9316 243.132C90.4894 243.33 91.0517 243.496 91.6184 243.631L94.2093 244.279C95.2529 244.522 96.256 244.85 97.2186 245.264C98.1902 245.678 99.0583 246.2 99.823 246.83C100.597 247.459 101.208 248.219 101.658 249.11C102.108 250.001 102.333 251.044 102.333 252.241C102.333 253.86 101.919 255.286 101.091 256.518C100.264 257.742 99.0673 258.7 97.502 259.393C95.9456 260.076 94.0609 260.418 91.8478 260.418C89.6977 260.418 87.831 260.085 86.2477 259.42C84.6734 258.754 83.4409 257.782 82.5502 256.505C81.6686 255.228 81.1918 253.671 81.1199 251.836H86.0453C86.1172 252.799 86.4141 253.599 86.9359 254.238C87.4577 254.877 88.1369 255.353 88.9735 255.668C89.8192 255.983 90.7638 256.141 91.8074 256.141C92.8959 256.141 93.8495 255.979 94.6681 255.655C95.4958 255.322 96.1435 254.863 96.6113 254.278C97.0791 253.685 97.3175 252.992 97.3265 252.2C97.3175 251.481 97.1061 250.887 96.6923 250.419C96.2785 249.942 95.6982 249.546 94.9515 249.232C94.2138 248.908 93.3502 248.62 92.3606 248.368L89.2164 247.558C86.9404 246.973 85.1412 246.087 83.8187 244.9C82.5053 243.703 81.8485 242.116 81.8485 240.136C81.8485 238.508 82.2894 237.082 83.171 235.859C84.0616 234.635 85.2716 233.686 86.801 233.011C88.3303 232.328 90.0621 231.986 91.9963 231.986C93.9574 231.986 95.6757 232.328 97.1511 233.011C98.6355 233.686 99.8005 234.626 100.646 235.832C101.492 237.028 101.928 238.405 101.955 239.961H97.1376ZM106.58 260V239.273H111.465V260H106.58ZM109.036 236.331C108.263 236.331 107.597 236.075 107.039 235.562C106.481 235.04 106.202 234.415 106.202 233.686C106.202 232.948 106.481 232.323 107.039 231.81C107.597 231.289 108.263 231.028 109.036 231.028C109.819 231.028 110.485 231.289 111.033 231.81C111.591 232.323 111.87 232.948 111.87 233.686C111.87 234.415 111.591 235.04 111.033 235.562C110.485 236.075 109.819 236.331 109.036 236.331ZM121.373 247.855V260H116.488V239.273H121.157V242.795H121.4C121.877 241.634 122.637 240.712 123.681 240.028C124.733 239.345 126.033 239.003 127.581 239.003C129.011 239.003 130.257 239.309 131.319 239.92C132.389 240.532 133.217 241.418 133.802 242.579C134.395 243.739 134.688 245.147 134.679 246.803V260H129.794V247.558C129.794 246.173 129.434 245.089 128.714 244.306C128.004 243.523 127.019 243.132 125.759 243.132C124.904 243.132 124.144 243.321 123.479 243.699C122.822 244.068 122.305 244.603 121.927 245.305C121.558 246.006 121.373 246.857 121.373 247.855ZM148.659 268.205C146.905 268.205 145.398 267.966 144.138 267.489C142.879 267.022 141.867 266.392 141.102 265.6C140.337 264.808 139.807 263.931 139.51 262.969L143.909 261.903C144.107 262.308 144.395 262.708 144.773 263.104C145.15 263.509 145.659 263.841 146.297 264.102C146.945 264.372 147.759 264.507 148.74 264.507C150.125 264.507 151.272 264.17 152.181 263.495C153.09 262.829 153.544 261.732 153.544 260.202V256.276H153.301C153.049 256.779 152.68 257.297 152.194 257.827C151.718 258.358 151.083 258.804 150.292 259.163C149.509 259.523 148.524 259.703 147.336 259.703C145.744 259.703 144.3 259.33 143.005 258.583C141.718 257.827 140.693 256.703 139.928 255.21C139.172 253.707 138.795 251.827 138.795 249.569C138.795 247.293 139.172 245.372 139.928 243.807C140.693 242.232 141.723 241.04 143.018 240.231C144.314 239.412 145.758 239.003 147.35 239.003C148.564 239.003 149.563 239.21 150.346 239.624C151.137 240.028 151.767 240.519 152.235 241.094C152.703 241.661 153.058 242.196 153.301 242.7H153.571V239.273H158.388V260.337C158.388 262.11 157.965 263.576 157.12 264.737C156.274 265.897 155.118 266.765 153.652 267.341C152.185 267.917 150.521 268.205 148.659 268.205ZM148.699 255.871C149.734 255.871 150.616 255.619 151.344 255.115C152.073 254.611 152.626 253.887 153.004 252.942C153.382 251.998 153.571 250.864 153.571 249.542C153.571 248.237 153.382 247.095 153.004 246.114C152.635 245.134 152.086 244.374 151.358 243.834C150.638 243.285 149.752 243.011 148.699 243.011C147.611 243.011 146.702 243.294 145.974 243.861C145.245 244.428 144.696 245.206 144.327 246.195C143.958 247.176 143.774 248.291 143.774 249.542C143.774 250.81 143.958 251.921 144.327 252.875C144.705 253.82 145.258 254.557 145.987 255.088C146.725 255.61 147.629 255.871 148.699 255.871ZM168.28 232.364V260H163.395V232.364H168.28ZM182.479 260.405C180.401 260.405 178.606 259.973 177.095 259.109C175.592 258.237 174.436 257.004 173.627 255.412C172.817 253.811 172.412 251.926 172.412 249.758C172.412 247.626 172.817 245.754 173.627 244.144C174.445 242.525 175.588 241.265 177.054 240.366C178.521 239.457 180.243 239.003 182.223 239.003C183.5 239.003 184.706 239.21 185.839 239.624C186.982 240.028 187.989 240.658 188.862 241.513C189.743 242.367 190.436 243.456 190.94 244.778C191.444 246.092 191.696 247.657 191.696 249.474V250.972H174.706V247.68H187.013C187.004 246.744 186.802 245.912 186.406 245.183C186.01 244.446 185.457 243.865 184.746 243.442C184.044 243.02 183.226 242.808 182.29 242.808C181.292 242.808 180.414 243.051 179.659 243.537C178.903 244.014 178.314 244.643 177.891 245.426C177.477 246.2 177.266 247.05 177.257 247.977V250.851C177.257 252.056 177.477 253.091 177.918 253.955C178.359 254.809 178.975 255.466 179.767 255.925C180.558 256.375 181.485 256.599 182.547 256.599C183.257 256.599 183.9 256.5 184.476 256.303C185.052 256.096 185.551 255.794 185.974 255.398C186.397 255.003 186.716 254.512 186.932 253.928L191.493 254.44C191.205 255.646 190.657 256.698 189.847 257.598C189.046 258.489 188.021 259.181 186.77 259.676C185.52 260.162 184.089 260.405 182.479 260.405ZM208.392 246.479V250.5H195.95V246.479H208.392ZM224.649 232.364H229.615V251.795C229.606 253.577 229.228 255.111 228.481 256.397C227.734 257.674 226.691 258.66 225.35 259.352C224.019 260.036 222.467 260.378 220.695 260.378C219.076 260.378 217.618 260.09 216.323 259.514C215.036 258.929 214.015 258.066 213.26 256.923C212.504 255.781 212.126 254.359 212.126 252.659H217.105C217.114 253.406 217.276 254.049 217.591 254.589C217.915 255.129 218.36 255.542 218.927 255.83C219.494 256.118 220.146 256.262 220.884 256.262C221.685 256.262 222.364 256.096 222.922 255.763C223.479 255.421 223.902 254.917 224.19 254.251C224.487 253.586 224.64 252.767 224.649 251.795V232.364ZM243.871 260.405C241.847 260.405 240.093 259.96 238.609 259.069C237.124 258.178 235.973 256.932 235.154 255.331C234.344 253.73 233.94 251.858 233.94 249.717C233.94 247.576 234.344 245.701 235.154 244.09C235.973 242.48 237.124 241.229 238.609 240.339C240.093 239.448 241.847 239.003 243.871 239.003C245.896 239.003 247.65 239.448 249.134 240.339C250.619 241.229 251.766 242.48 252.575 244.09C253.394 245.701 253.803 247.576 253.803 249.717C253.803 251.858 253.394 253.73 252.575 255.331C251.766 256.932 250.619 258.178 249.134 259.069C247.65 259.96 245.896 260.405 243.871 260.405ZM243.898 256.491C244.996 256.491 245.914 256.19 246.651 255.587C247.389 254.976 247.938 254.157 248.298 253.131C248.666 252.106 248.851 250.963 248.851 249.704C248.851 248.435 248.666 247.288 248.298 246.263C247.938 245.228 247.389 244.405 246.651 243.793C245.914 243.182 244.996 242.876 243.898 242.876C242.774 242.876 241.838 243.182 241.092 243.793C240.354 244.405 239.801 245.228 239.432 246.263C239.072 247.288 238.892 248.435 238.892 249.704C238.892 250.963 239.072 252.106 239.432 253.131C239.801 254.157 240.354 254.976 241.092 255.587C241.838 256.19 242.774 256.491 243.898 256.491ZM271.16 251.283V239.273H276.045V260H271.309V256.316H271.093C270.625 257.477 269.856 258.426 268.785 259.163C267.724 259.901 266.415 260.27 264.858 260.27C263.5 260.27 262.299 259.969 261.256 259.366C260.221 258.754 259.411 257.868 258.827 256.707C258.242 255.538 257.949 254.125 257.949 252.47V239.273H262.834V251.714C262.834 253.028 263.194 254.071 263.914 254.845C264.634 255.619 265.578 256.006 266.748 256.006C267.467 256.006 268.165 255.83 268.839 255.479C269.514 255.129 270.067 254.607 270.499 253.914C270.94 253.212 271.16 252.335 271.16 251.283ZM281.069 260V239.273H285.805V242.727H286.021C286.399 241.531 287.047 240.609 287.964 239.961C288.891 239.304 289.948 238.976 291.135 238.976C291.405 238.976 291.707 238.989 292.039 239.016C292.381 239.034 292.665 239.066 292.89 239.111V243.604C292.683 243.532 292.354 243.469 291.904 243.415C291.464 243.353 291.036 243.321 290.623 243.321C289.732 243.321 288.931 243.514 288.221 243.901C287.519 244.279 286.966 244.805 286.561 245.48C286.156 246.155 285.953 246.933 285.953 247.815V260H281.069ZM301.02 247.855V260H296.135V239.273H300.804V242.795H301.047C301.524 241.634 302.284 240.712 303.327 240.028C304.38 239.345 305.68 239.003 307.227 239.003C308.658 239.003 309.904 239.309 310.965 239.92C312.036 240.532 312.863 241.418 313.448 242.579C314.042 243.739 314.334 245.147 314.325 246.803V260H309.44V247.558C309.44 246.173 309.08 245.089 308.361 244.306C307.65 243.523 306.665 243.132 305.406 243.132C304.551 243.132 303.791 243.321 303.125 243.699C302.468 244.068 301.951 244.603 301.573 245.305C301.204 246.006 301.02 246.857 301.02 247.855ZM328.467 260.405C326.389 260.405 324.594 259.973 323.083 259.109C321.581 258.237 320.425 257.004 319.615 255.412C318.805 253.811 318.401 251.926 318.401 249.758C318.401 247.626 318.805 245.754 319.615 244.144C320.434 242.525 321.576 241.265 323.043 240.366C324.509 239.457 326.232 239.003 328.211 239.003C329.488 239.003 330.694 239.21 331.827 239.624C332.97 240.028 333.978 240.658 334.85 241.513C335.732 242.367 336.424 243.456 336.928 244.778C337.432 246.092 337.684 247.657 337.684 249.474V250.972H320.695V247.68H333.001C332.992 246.744 332.79 245.912 332.394 245.183C331.998 244.446 331.445 243.865 330.734 243.442C330.033 243.02 329.214 242.808 328.278 242.808C327.28 242.808 326.403 243.051 325.647 243.537C324.891 244.014 324.302 244.643 323.879 245.426C323.465 246.2 323.254 247.05 323.245 247.977V250.851C323.245 252.056 323.465 253.091 323.906 253.955C324.347 254.809 324.963 255.466 325.755 255.925C326.547 256.375 327.473 256.599 328.535 256.599C329.246 256.599 329.889 256.5 330.464 256.303C331.04 256.096 331.54 255.794 331.962 255.398C332.385 255.003 332.705 254.512 332.92 253.928L337.482 254.44C337.194 255.646 336.645 256.698 335.835 257.598C335.035 258.489 334.009 259.181 332.759 259.676C331.508 260.162 330.078 260.405 328.467 260.405ZM344.259 267.773C343.593 267.773 342.977 267.719 342.41 267.611C341.853 267.512 341.407 267.395 341.074 267.26L342.208 263.455C342.919 263.661 343.553 263.76 344.111 263.751C344.668 263.742 345.159 263.567 345.581 263.225C346.013 262.892 346.378 262.335 346.675 261.552L347.093 260.432L339.577 239.273H344.758L349.535 254.926H349.751L354.542 239.273H359.737L351.438 262.51C351.051 263.607 350.538 264.548 349.9 265.33C349.261 266.122 348.478 266.725 347.552 267.138C346.634 267.561 345.537 267.773 344.259 267.773Z" fill="#247056"/>
<path d="M164.677 280.56V276.364H186.727V280.56H178.185V304H173.219V280.56H164.677ZM190.762 304V283.273H195.647V304H190.762ZM193.218 280.331C192.444 280.331 191.778 280.075 191.221 279.562C190.663 279.04 190.384 278.415 190.384 277.686C190.384 276.948 190.663 276.323 191.221 275.81C191.778 275.289 192.444 275.028 193.218 275.028C194.001 275.028 194.666 275.289 195.215 275.81C195.773 276.323 196.052 276.948 196.052 277.686C196.052 278.415 195.773 279.04 195.215 279.562C194.666 280.075 194.001 280.331 193.218 280.331ZM209.711 304.405C207.642 304.405 205.865 303.951 204.381 303.042C202.906 302.133 201.768 300.878 200.967 299.277C200.175 297.667 199.779 295.813 199.779 293.717C199.779 291.612 200.184 289.754 200.994 288.144C201.804 286.525 202.946 285.265 204.422 284.366C205.906 283.457 207.66 283.003 209.684 283.003C211.367 283.003 212.855 283.313 214.151 283.934C215.455 284.546 216.494 285.414 217.268 286.538C218.042 287.654 218.483 288.958 218.591 290.452H213.922C213.733 289.453 213.283 288.621 212.572 287.955C211.87 287.281 210.93 286.943 209.752 286.943C208.753 286.943 207.876 287.213 207.12 287.753C206.365 288.284 205.775 289.048 205.353 290.047C204.939 291.045 204.732 292.242 204.732 293.636C204.732 295.049 204.939 296.263 205.353 297.28C205.766 298.287 206.347 299.066 207.093 299.614C207.849 300.154 208.735 300.424 209.752 300.424C210.471 300.424 211.115 300.289 211.681 300.019C212.257 299.74 212.739 299.34 213.125 298.818C213.512 298.296 213.778 297.662 213.922 296.915H218.591C218.474 298.382 218.042 299.682 217.295 300.815C216.548 301.94 215.532 302.821 214.245 303.46C212.959 304.09 211.448 304.405 209.711 304.405ZM227.055 297.496L227.041 291.599H227.824L235.273 283.273H240.981L231.818 293.474H230.806L227.055 297.496ZM222.602 304V276.364H227.487V304H222.602ZM235.61 304L228.863 294.567L232.156 291.126L241.453 304H235.61ZM252.559 304.405C250.481 304.405 248.686 303.973 247.175 303.109C245.673 302.237 244.517 301.004 243.707 299.412C242.897 297.811 242.492 295.926 242.492 293.758C242.492 291.626 242.897 289.754 243.707 288.144C244.526 286.525 245.668 285.265 247.134 284.366C248.601 283.457 250.324 283.003 252.303 283.003C253.58 283.003 254.786 283.21 255.919 283.624C257.062 284.028 258.069 284.658 258.942 285.513C259.824 286.367 260.516 287.456 261.02 288.778C261.524 290.092 261.776 291.657 261.776 293.474V294.972H244.786V291.68H257.093C257.084 290.744 256.882 289.912 256.486 289.183C256.09 288.446 255.537 287.865 254.826 287.442C254.124 287.02 253.306 286.808 252.37 286.808C251.372 286.808 250.494 287.051 249.739 287.537C248.983 288.014 248.394 288.643 247.971 289.426C247.557 290.2 247.346 291.05 247.337 291.977V294.851C247.337 296.056 247.557 297.091 247.998 297.955C248.439 298.809 249.055 299.466 249.847 299.925C250.638 300.375 251.565 300.599 252.627 300.599C253.337 300.599 253.981 300.5 254.556 300.303C255.132 300.096 255.631 299.794 256.054 299.398C256.477 299.003 256.796 298.512 257.012 297.928L261.573 298.44C261.285 299.646 260.737 300.698 259.927 301.598C259.126 302.489 258.101 303.181 256.85 303.676C255.6 304.162 254.169 304.405 252.559 304.405ZM276.259 283.273V287.051H264.343V283.273H276.259ZM267.285 278.307H272.17V297.766C272.17 298.422 272.269 298.926 272.467 299.277C272.674 299.619 272.943 299.853 273.276 299.979C273.609 300.105 273.978 300.168 274.383 300.168C274.689 300.168 274.968 300.145 275.219 300.1C275.48 300.055 275.678 300.015 275.813 299.979L276.636 303.798C276.375 303.888 276.002 303.987 275.516 304.094C275.04 304.202 274.455 304.265 273.762 304.283C272.539 304.319 271.437 304.135 270.456 303.73C269.475 303.316 268.697 302.678 268.121 301.814C267.555 300.95 267.276 299.871 267.285 298.575V278.307Z" fill="#247056"/>
</g>
<defs>
<filter id="filter0_i_1505_870" x="50" y="50" width="340" height="343.7" filterUnits="userSpaceOnUse" color-interpolation-filters="sRGB">
<feFlood flood-opacity="0" result="BackgroundImageFix"/>
<feBlend mode="normal" in="SourceGraphic" in2="BackgroundImageFix" result="shape"/>
<feColorMatrix in="SourceAlpha" type="matrix" values="0 0 0 0 0 0 0 0 0 0 0 0 0 0 0 0 0 0 127 0" result="hardAlpha"/>
<feOffset dy="3.7"/>
<feGaussianBlur stdDeviation="7.5"/>
<feComposite in2="hardAlpha" operator="arithmetic" k2="-1" k3="1"/>
<feColorMatrix type="matrix" values="0 0 0 0 0 0 0 0 0 0 0 0 0 0 0 0 0 0 0.8 0"/>
<feBlend mode="normal" in2="shape" result="effect1_innerShadow_1505_870"/>
</filter>
</defs>
</svg>
