<svg width="440" height="440" viewBox="0 0 440 440" fill="none" xmlns="http://www.w3.org/2000/svg">
<rect width="440" height="440" rx="220" fill="#C42C2C"/>
<g filter="url(#filter0_i_1504_267)">
<rect x="70" y="70" width="300" height="300" rx="150" fill="#C42C2C"/>
<g filter="url(#filter1_d_1504_267)">
<path d="M87.0186 233.19L100.676 216.792C106.014 210.433 113.863 206.754 122.079 206.754H131.027C139.295 206.754 147.144 203.075 152.429 196.715L179.745 163.971C185.083 157.612 192.932 153.932 201.2 153.932H293.141L279.431 170.383C274.146 176.743 266.297 180.422 257.976 180.422H249.081C240.813 180.422 233.016 184.101 227.678 190.461L200.31 223.204C195.077 229.511 187.176 233.19 178.96 233.19H87.0186Z" fill="#DD2629" fill-opacity="0.2" shape-rendering="crispEdges"/>
</g>
<g filter="url(#filter2_d_1504_267)">
<path d="M147.892 285.995L161.549 269.597C166.887 263.237 174.684 259.558 182.952 259.558H191.9C200.168 259.558 208.017 255.879 213.302 249.52L240.67 216.776C246.008 210.416 253.805 206.737 262.073 206.737H354.014L340.357 223.135C335.019 229.495 327.17 233.174 318.902 233.174H309.954C301.686 233.174 293.889 236.853 288.551 243.213L261.183 275.956C255.898 282.316 248.049 285.995 239.781 285.995H147.892Z" fill="#DD2629" fill-opacity="0.2" shape-rendering="crispEdges"/>
</g>
</g>
<path d="M99.2108 94.4184L115.997 78.4885L119.351 82.0225L102.564 97.9524L99.2108 94.4184ZM89.2393 87.2055L109.621 67.8641L122.428 81.3604L118.498 85.0899L109.016 75.0971L96.3114 87.153L105.823 97.1762L102.076 100.732L89.2393 87.2055ZM80.6973 66.2451L86.1721 63.6553C86.6776 65.5303 87.1612 67.4839 87.6229 69.5162C88.0857 71.5089 88.4805 73.4503 88.8073 75.3404C89.1148 77.2102 89.3474 78.9196 89.5049 80.4686L84.9425 82.2504C84.7464 80.6608 84.4353 78.9296 84.009 77.0567C83.5634 75.1635 83.0483 73.2783 82.4637 71.4013C81.8993 69.505 81.3106 67.7862 80.6973 66.2451ZM93.1552 64.7294L94.0257 59.8503C95.8122 59.699 97.7154 59.63 99.7352 59.6433C101.756 59.617 103.705 59.6977 105.581 59.8855C107.459 60.0337 109.076 60.2939 110.433 60.6661L109.578 66.1101C108.261 65.6994 106.675 65.3904 104.819 65.1834C102.964 64.9368 101.017 64.7768 98.9788 64.7037C96.9407 64.6305 94.9996 64.6391 93.1552 64.7294ZM79.8793 83.8707C81.3843 82.3652 83.0524 80.6858 84.8834 78.8324C86.7155 76.9394 88.639 74.9597 90.6539 72.8932C92.6891 70.8075 94.7548 68.6929 96.8509 66.5493C98.947 64.4057 101.003 62.3007 103.017 60.2343L106.219 63.9129C104.222 66.0392 102.195 68.1747 100.139 70.3193C98.0631 72.4436 96.0376 74.5394 94.0623 76.6069C92.088 78.6348 90.2153 80.5664 88.4441 82.4016C86.6537 84.2164 85.0359 85.8674 83.5908 87.3546L79.8793 83.8707Z" fill="#8B0B0D"/>
<path d="M122.352 49.6983L133.877 44.9247L135.789 49.5423L124.265 54.3159L122.352 49.6983ZM137.775 33.2633L142.625 31.2542L154.213 59.2311C154.663 60.3176 155.043 60.9786 155.353 61.214C155.652 61.4235 156.164 61.3783 156.888 61.0783C157.043 61.014 157.302 60.9068 157.664 60.7568C158.026 60.6068 158.427 60.4407 158.867 60.2586C159.307 60.0764 159.708 59.9103 160.07 59.7603C160.432 59.6103 160.703 59.4978 160.885 59.4228C161.402 59.2085 161.699 58.8279 161.775 58.281C161.852 57.734 161.706 56.87 161.338 55.689C160.985 54.4713 160.419 52.8116 159.64 50.71C160.145 50.8338 160.716 50.9309 161.351 51.0011C162.012 51.0607 162.663 51.0943 163.302 51.1021C163.931 51.0841 164.487 51.0357 164.97 50.957C165.843 53.5047 166.402 55.622 166.646 57.309C166.916 58.9853 166.777 60.3311 166.227 61.3466C165.715 62.3772 164.721 63.1979 163.247 63.8087C163.04 63.8944 162.691 64.039 162.199 64.2426C161.708 64.4462 161.177 64.6659 160.608 64.9016C160.065 65.1266 159.56 65.3356 159.095 65.5284C158.629 65.7213 158.28 65.866 158.047 65.9624C156.573 66.5732 155.317 66.8355 154.282 66.7493C153.282 66.6783 152.4 66.1951 151.635 65.2996C150.86 64.3783 150.097 63.0122 149.347 61.2014L137.775 33.2633ZM127.996 37.3136L132.847 35.3045L147.505 70.6928L142.655 72.7019L127.996 37.3136ZM152.974 33.741L158.086 36.5333C157.116 37.9959 156.068 39.4907 154.943 41.0175C153.807 42.5186 152.64 44.0174 151.441 45.5139C150.258 46.9739 149.079 48.3715 147.904 49.7065C147.535 49.2535 147.011 48.758 146.334 48.2203C145.646 47.6567 145.045 47.1935 144.531 46.8305C145.617 45.5017 146.679 44.077 147.716 42.5564C148.753 41.0358 149.714 39.5161 150.601 37.9974C151.513 36.4679 152.304 35.0491 152.974 33.741ZM128.236 67.8547C129.168 67.1049 130.241 66.2209 131.456 65.2025C132.66 64.1582 133.926 63.043 135.253 61.8569C136.569 60.6448 137.878 59.4511 139.179 58.2757L141.808 62.0967C140.232 63.7799 138.599 65.4716 136.909 67.1717C135.245 68.8612 133.717 70.4034 132.324 71.7983L128.236 67.8547Z" fill="#8B0B0D"/>
<path d="M185.98 22.4377L210.673 19.1869L211.188 23.1011L186.495 26.352L185.98 22.4377ZM201.267 44.2752L212.385 42.8115L212.895 46.6841L201.777 48.1478L201.267 44.2752ZM186.763 33.8572L213.122 30.387L213.632 34.2596L187.273 37.7298L186.763 33.8572ZM188.475 27.8706L209.753 25.0693L211.776 40.4347L190.498 43.236L190.01 39.53L206.666 37.3372L205.63 29.4671L188.973 31.6599L188.475 27.8706ZM195.105 18.0593L199.727 17.4508L204.551 54.0946L199.578 52.0381L195.105 18.0593ZM190.366 43.8464L194.982 43.8318C194.953 46.8293 194.611 49.5995 193.958 52.1426C193.328 54.6543 192.326 56.8054 190.952 58.5961C190.642 58.3828 190.227 58.1268 189.707 57.828C189.216 57.5256 188.698 57.2407 188.155 56.9734C187.639 56.7024 187.188 56.4935 186.801 56.3467C188.128 54.8446 189.059 53.0134 189.594 50.8531C190.129 48.6929 190.386 46.3573 190.366 43.8464ZM194.163 46.9473C195.167 48.5661 196.366 49.7356 197.76 50.4559C199.154 51.1761 200.69 51.581 202.368 51.6708C204.074 51.7569 205.886 51.6877 207.805 51.4633C208.111 51.4231 208.611 51.3573 209.305 51.2659C209.999 51.1746 210.762 51.0741 211.595 50.9644C212.455 50.8511 213.26 50.7451 214.01 50.6464C214.756 50.52 215.349 50.4137 215.789 50.3274C215.639 50.6861 215.501 51.142 215.376 51.695C215.252 52.2481 215.154 52.7975 215.085 53.3432C215.016 53.8889 214.967 54.3754 214.938 54.8028L213.273 55.0221L208.026 55.7128C205.555 56.0381 203.274 56.0843 201.182 55.8514C199.121 55.6426 197.241 54.9864 195.542 53.8826C193.84 52.7511 192.287 51.0352 190.883 48.7348L194.163 46.9473ZM174.252 42.1129C175.87 41.5327 177.791 40.7856 180.015 39.8715C182.266 38.9538 184.528 38.0065 186.8 37.0296L188.016 41.4446C185.963 42.3645 183.882 43.288 181.773 44.2152C179.691 45.1388 177.756 45.9867 175.965 46.759L174.252 42.1129ZM173.202 28.9917L185.944 27.3141L186.547 31.8946L173.805 33.5721L173.202 28.9917ZM176.538 20.5459L181.119 19.9429L185.57 53.7551C185.72 54.8933 185.714 55.812 185.552 56.5111C185.421 57.2344 185.062 57.8324 184.475 58.3051C183.915 58.7741 183.173 59.1402 182.247 59.4032C181.349 59.6626 180.205 59.8698 178.813 60.0248C178.677 59.4214 178.424 58.6781 178.053 57.7949C177.687 56.9394 177.307 56.1987 176.914 55.5726C177.694 55.4981 178.406 55.4326 179.048 55.3763C179.714 55.2886 180.171 55.2144 180.417 55.1538C180.667 55.1209 180.828 55.0573 180.9 54.9631C180.997 54.8374 181.026 54.6358 180.99 54.3582L176.538 20.5459Z" fill="#8B0B0D"/>
<path d="M237.173 33.6293L235.15 48.9947L230.362 48.3643L231.776 37.621L227.071 37.0015L227.679 32.3794L237.173 33.6293ZM235.413 46.996C236.036 48.49 237.039 49.6669 238.422 50.5269C239.809 51.3591 241.552 51.9557 243.651 52.3167C244.893 52.5367 246.387 52.7757 248.132 53.0337C249.909 53.2676 251.757 53.4968 253.676 53.7212C255.623 53.9493 257.516 54.1562 259.355 54.3419C261.226 54.5034 262.907 54.6117 264.396 54.6666C264.154 55.0019 263.882 55.4603 263.58 56.0418C263.309 56.5992 263.036 57.1704 262.761 57.7556C262.514 58.3444 262.318 58.8693 262.172 59.3302C260.884 59.2454 259.406 59.1072 257.736 58.9157C256.067 58.7242 254.344 58.5114 252.568 58.2775C250.787 58.0714 249.066 57.8448 247.404 57.5978C245.738 57.3785 244.271 57.157 243.001 56.9334C240.517 56.4934 238.447 55.8113 236.789 54.887C235.132 53.9628 233.784 52.6134 232.747 50.8388C231.832 51.5656 230.864 52.2713 229.842 52.9557C228.844 53.6716 227.759 54.4042 226.587 55.1537L224.866 49.886C225.831 49.4199 226.847 48.89 227.913 48.2961C229.008 47.7059 230.064 47.0825 231.083 46.4258L235.413 46.996ZM229.468 20.0757L233.63 17.743C234.355 18.4597 235.096 19.2633 235.855 20.1539C236.613 21.0445 237.302 21.926 237.921 22.7983C238.541 23.6706 239.027 24.483 239.38 25.2355L234.841 27.8574C234.543 27.1123 234.101 26.2915 233.513 25.3951C232.956 24.4745 232.314 23.5569 231.587 22.6422C230.864 21.6998 230.158 20.8442 229.468 20.0757ZM251.022 24.6501L255.852 25.286L252.272 52.4774L247.442 51.8414L251.022 24.6501ZM244.85 38.7068L244.631 40.3724L258.122 42.1486L258.342 40.483L244.85 38.7068ZM245.437 34.2512L245.223 35.8752L258.714 37.6514L258.928 36.0274L245.437 34.2512ZM241.595 30.6106L263.831 33.5381L262.214 45.8221L239.978 42.8946L241.595 30.6106ZM241.093 18.9796L267.368 22.4388L266.617 28.1436L261.995 27.5351L262.28 25.3697L244.999 23.0947L244.714 25.26L240.342 24.6844L241.093 18.9796ZM241.414 25.5457L265.15 28.6705L264.7 32.0851L240.965 28.9603L241.414 25.5457ZM237.407 44.0812L264.515 47.6501L264.038 51.2728L236.93 47.704L237.407 44.0812Z" fill="#8B0B0D"/>
<path d="M294.948 46.3203L299.935 49.9768C298.692 51.22 297.369 52.4752 295.966 53.7425C294.588 55.0205 293.194 56.2618 291.786 57.4666C290.378 58.6714 288.997 59.8115 287.642 60.887C286.324 61.9473 285.072 62.8836 283.887 63.6959L280.104 60.5377C281.295 59.637 282.548 58.6253 283.861 57.5026C285.186 56.354 286.5 55.1558 287.805 53.9082C289.146 52.6454 290.418 51.3687 291.619 50.0782C292.857 48.7725 293.967 47.5199 294.948 46.3203ZM276.236 57.2536C278.079 57.9261 280.155 58.695 282.463 59.5603C284.783 60.3997 287.231 61.2928 289.809 62.2394C292.398 63.1601 295.025 64.0969 297.692 65.0498C300.384 66.0134 303.037 66.961 305.652 67.8924L303.6 72.4069C300.203 71.2423 296.768 70.0616 293.293 68.8649C289.818 67.6681 286.497 66.5045 283.328 65.3739C280.175 64.2799 277.325 63.2961 274.777 62.4227L276.236 57.2536ZM298.94 57.975L304.293 57.7829C304.853 59.6513 305.37 61.6231 305.843 63.6985C306.317 65.7738 306.711 67.7857 307.026 69.7343C307.376 71.6677 307.6 73.3968 307.696 74.9215L301.784 75.4734C301.792 73.9916 301.649 72.2505 301.357 70.2502C301.075 68.224 300.726 66.1398 300.31 63.9976C299.894 61.8554 299.437 59.8479 298.94 57.975ZM296.348 31.3072L301.054 34.9836C299.379 36.6844 297.553 38.2767 295.574 39.7605C293.622 41.2551 291.645 42.5881 289.645 43.7597C287.655 44.9054 285.743 45.8259 283.909 46.5211C283.749 46.0303 283.47 45.4601 283.072 44.8105C282.711 44.1457 282.319 43.4832 281.895 42.8228C281.508 42.1473 281.161 41.5945 280.855 41.1644C282.639 40.661 284.445 39.9238 286.271 38.9529C288.124 37.9927 289.913 36.855 291.64 35.5396C293.367 34.2243 294.936 32.8135 296.348 31.3072ZM311.954 37.8621C312.051 39.236 312.236 40.6917 312.509 42.2289C312.807 43.7769 313.176 45.3388 313.614 46.9145C314.089 48.475 314.585 49.9838 315.103 51.4409C315.632 52.8721 316.164 54.1838 316.701 55.3759C316.158 55.5149 315.54 55.7283 314.844 56.0162C314.16 56.2783 313.478 56.5716 312.798 56.896C312.129 57.1947 311.561 57.5049 311.094 57.8268C310.57 56.4581 310.068 54.9622 309.589 53.3392C309.12 51.6903 308.673 49.9897 308.247 48.2374C307.858 46.4699 307.5 44.7002 307.173 42.9282C306.872 41.167 306.638 39.4638 306.471 37.8186L311.954 37.8621Z" fill="#8B0B0D"/>
<path d="M338.253 55.7892L362.047 76.1104L358.937 79.7512L335.144 59.43L338.253 55.7892ZM333.527 61.9703L352.433 78.1182L349.569 81.4716L330.663 65.3237L333.527 61.9703ZM360.673 74.9375L364.633 78.3198L344.803 101.538C343.876 102.624 343.021 103.366 342.238 103.766C341.458 104.204 340.582 104.303 339.61 104.062C338.659 103.839 337.625 103.324 336.509 102.519C335.393 101.713 334.12 100.681 332.691 99.4229C332.976 99.0033 333.272 98.4835 333.581 97.8634C333.871 97.2645 334.15 96.6369 334.416 95.9804C334.682 95.324 334.874 94.7329 334.991 94.2073C335.572 94.7772 336.163 95.3365 336.762 95.8852C337.379 96.4125 337.933 96.8853 338.423 97.3036C338.93 97.7005 339.291 97.9899 339.504 98.1718C339.802 98.4264 340.05 98.5459 340.247 98.5303C340.444 98.5148 340.67 98.358 340.925 98.0599L360.673 74.9375ZM330.273 69.0781L334.009 72.2695L322.744 85.4595L319.008 82.2681L330.273 69.0781ZM333.594 71.9149L345.858 82.3892L336.584 93.2478L324.32 82.7735L327.13 79.484L335.625 86.7397L339.28 82.4601L330.785 75.2045L333.594 71.9149Z" fill="#8B0B0D"/>
<path d="M209.627 385.512L207.633 412.595L216.762 413.25L216.364 418.65L191.549 416.867L191.947 411.468L201.161 412.13L203.155 385.047L209.627 385.512Z" fill="#8B0B0D"/>
<path d="M183.796 381.606C185.923 382.069 187.495 383.115 188.511 384.743C189.527 386.372 189.804 388.22 189.342 390.289C188.768 392.861 187.234 394.609 184.738 395.531C182.209 396.476 178.464 396.686 173.503 396.163C172.997 398.955 174.046 400.635 176.649 401.202C178.496 401.604 180.876 401.33 183.788 400.381L185.128 405.027C181.211 406.402 177.63 406.736 174.383 406.029C171.332 405.365 169.236 403.971 168.096 401.846C166.928 399.716 166.734 396.903 167.514 393.408L170.65 379.359L175.772 380.475L175.705 383.142L175.831 383.17C178.734 381.603 181.389 381.082 183.796 381.606ZM180.644 386.065C179.132 385.736 177.401 386.194 175.45 387.44L174.373 392.263C179.729 392.726 182.666 391.797 183.184 389.476C183.59 387.659 182.743 386.522 180.644 386.065Z" fill="#8B0B0D"/>
<path d="M160.056 374.185L151.257 397.18L145.259 394.941L154.058 371.946L160.056 374.185ZM146.769 399.77C147.816 400.161 148.57 400.794 149.033 401.67C149.458 402.562 149.491 403.477 149.133 404.413C148.764 405.376 148.132 406.027 147.236 406.365C146.303 406.72 145.313 406.702 144.266 406.311C143.219 405.921 142.478 405.292 142.043 404.427C141.597 403.587 141.559 402.686 141.927 401.723C142.285 400.787 142.936 400.128 143.88 399.746C144.786 399.381 145.749 399.389 146.769 399.77Z" fill="#8B0B0D"/>
<path d="M145.924 366.373L127.564 395.077L123.08 392.279L124.082 389.916L123.936 389.825C120.679 390.292 118.054 389.903 116.062 388.66C113.51 387.068 112.122 384.852 111.899 382.011C111.66 379.195 112.567 376.182 114.62 372.973C116.812 369.546 119.431 367.365 122.477 366.43C125.499 365.479 128.225 365.762 130.656 367.279C132.478 368.416 133.738 370.248 134.433 372.775L136.464 369.282L140.492 362.983L145.924 366.373ZM131.856 376.485C131.305 374.689 130.361 373.374 129.024 372.54C127.688 371.706 126.243 371.599 124.692 372.217C123.14 372.836 121.669 374.231 120.28 376.403C117.656 380.505 117.729 383.421 120.5 385.15C121.812 385.968 123.661 386.109 126.045 385.571L131.856 376.485Z" fill="#8B0B0D"/>
<path d="M108.945 351.667C111.636 353.941 113.108 356.704 113.361 359.955C113.613 363.207 112.445 366.326 109.857 369.314C107.343 372.215 104.434 373.845 101.13 374.202C97.8044 374.542 94.96 373.713 92.5971 371.716C90.0811 369.589 88.8577 367.13 88.9268 364.338C88.9741 361.528 90.1513 358.792 92.4586 356.129C93.3027 355.154 94.017 354.483 94.6016 354.114L106.219 363.933C107.316 362.273 107.762 360.643 107.556 359.044C107.309 357.448 106.475 356.049 105.053 354.847C103.609 353.626 101.823 352.867 99.6938 352.568L100.609 348.165C103.76 348.466 106.538 349.633 108.945 351.667ZM103.499 367.204L95.8198 360.713C94.6943 362.012 94.1284 363.278 94.1219 364.51C94.0749 365.745 94.6421 366.862 95.8235 367.861C96.8518 368.73 98.0583 369.131 99.4431 369.064C100.828 368.996 102.18 368.376 103.499 367.204Z" fill="#8B0B0D"/>
<path d="M97.3729 338.455L77.6651 353.213L73.7665 348.134L93.4743 333.376L97.3729 338.455ZM72.4779 353.018C73.1582 353.904 73.4615 354.84 73.3876 355.826C73.2734 356.806 72.815 357.596 72.0125 358.197C71.187 358.815 70.304 359.029 69.3635 358.839C68.3826 358.643 67.552 358.102 66.8717 357.216C66.1914 356.33 65.8969 355.405 65.9882 354.442C66.0565 353.496 66.5034 352.715 67.3289 352.096C68.1314 351.495 69.0346 351.284 70.0384 351.463C71.0019 351.636 71.8151 352.154 72.4779 353.018Z" fill="#8B0B0D"/>
<path d="M350.93 320.664L374.968 342.641L370.097 347.969L355.099 341.767C354.044 341.307 352.056 340.382 349.135 338.992L348.99 339.151C349.299 339.705 349.826 340.614 350.572 341.878C351.339 343.162 351.911 344.15 352.286 344.843L359.891 359.132L355.02 364.459L330.982 342.481L334.983 338.105L345.004 347.267C346.146 348.311 348.594 350.919 352.35 355.09L352.494 354.931C350.884 352.023 347.361 345.347 341.926 334.905L344.449 332.146L357.955 337.624L365.339 340.883L365.455 340.756C360.965 337.388 358.15 335.183 357.008 334.139L346.987 324.977L350.93 320.664Z" fill="#8B0B0D"/>
<path d="M316.255 353.101C318.982 350.869 321.978 349.917 325.243 350.244C328.508 350.57 331.393 352.263 333.896 355.322C336.327 358.293 337.428 361.426 337.201 364.722C336.951 368.035 335.629 370.672 333.234 372.631C330.685 374.717 328.033 375.48 325.28 374.919C322.505 374.377 320.001 372.743 317.77 370.016C316.954 369.018 316.415 368.201 316.153 367.564L327.925 357.932C326.474 356.565 324.938 355.842 323.318 355.761C321.693 355.721 320.16 356.29 318.719 357.469C317.256 358.666 316.189 360.28 315.518 362.31L311.318 360.638C312.171 357.608 313.816 355.096 316.255 353.101ZM330.685 361.17L322.904 367.537C323.992 368.867 325.146 369.644 326.365 369.868C327.581 370.132 328.787 369.774 329.984 368.794C331.026 367.942 331.636 366.832 331.813 365.466C331.99 364.099 331.615 362.667 330.685 361.17Z" fill="#8B0B0D"/>
<path d="M293.999 365.977C298.639 363.187 302.545 364.431 305.719 369.709L311.343 379.063L314.289 377.291L316.747 381.379L313.661 383.585L316.445 389.633L311.805 392.422L308.395 386.751L303.203 389.873L300.59 385.528L305.782 382.406L300.158 373.053C298.727 370.671 297.053 370.056 295.138 371.208C294.574 371.547 293.982 372.12 293.364 372.926L290.008 369.429C291.294 367.954 292.624 366.803 293.999 365.977Z" fill="#8B0B0D"/>
<path d="M282.155 373.322L291.674 396.029L286.8 398.072L284.726 394.236L284.567 394.302C284.357 396.099 283.851 397.631 283.047 398.9C282.228 400.206 281.224 401.109 280.035 401.607C279.084 402.006 278.114 402.211 277.124 402.222L276.035 396.621C276.991 396.531 277.839 396.331 278.578 396.021C279.556 395.611 280.365 394.837 281.006 393.699C281.658 392.587 281.967 391.137 281.932 389.35L276.25 375.798L282.155 373.322Z" fill="#8B0B0D"/>
<path d="M244.123 389.955C245.783 387.101 248.18 385.269 251.314 384.46C254.448 383.651 257.446 384.091 260.308 385.778C263.141 387.473 265.045 390.206 266.019 393.978C266.999 397.778 266.66 401.105 265 403.96C263.32 406.849 260.913 408.698 257.778 409.507C254.644 410.316 251.66 409.873 248.827 408.178C245.993 406.484 244.082 403.723 243.094 399.895C242.12 396.123 242.464 392.809 244.123 389.955ZM256.884 390.567C255.66 389.492 254.244 389.163 252.635 389.578C251.026 389.993 249.96 390.963 249.437 392.489C248.893 394.049 248.914 395.967 249.501 398.241C250.095 400.543 251.008 402.246 252.239 403.348C253.443 404.457 254.849 404.804 256.458 404.389C258.066 403.974 259.143 402.986 259.687 401.426C260.231 399.865 260.206 397.934 259.611 395.632C259.024 393.357 258.115 391.669 256.884 390.567Z" fill="#8B0B0D"/>
<defs>
<filter id="filter0_i_1504_267" x="70" y="70" width="300" height="302.7" filterUnits="userSpaceOnUse" color-interpolation-filters="sRGB">
<feFlood flood-opacity="0" result="BackgroundImageFix"/>
<feBlend mode="normal" in="SourceGraphic" in2="BackgroundImageFix" result="shape"/>
<feColorMatrix in="SourceAlpha" type="matrix" values="0 0 0 0 0 0 0 0 0 0 0 0 0 0 0 0 0 0 127 0" result="hardAlpha"/>
<feMorphology radius="3" operator="dilate" in="SourceAlpha" result="effect1_innerShadow_1504_267"/>
<feOffset dy="2.7"/>
<feGaussianBlur stdDeviation="7.5"/>
<feComposite in2="hardAlpha" operator="arithmetic" k2="-1" k3="1"/>
<feColorMatrix type="matrix" values="0 0 0 0 0.336369 0 0 0 0 0.0556531 0 0 0 0 0.0556531 0 0 0 0.8 0"/>
<feBlend mode="normal" in2="shape" result="effect1_innerShadow_1504_267"/>
</filter>
<filter id="filter1_d_1504_267" x="77.0186" y="145.933" width="226.123" height="99.2578" filterUnits="userSpaceOnUse" color-interpolation-filters="sRGB">
<feFlood flood-opacity="0" result="BackgroundImageFix"/>
<feColorMatrix in="SourceAlpha" type="matrix" values="0 0 0 0 0 0 0 0 0 0 0 0 0 0 0 0 0 0 127 0" result="hardAlpha"/>
<feOffset dy="2"/>
<feGaussianBlur stdDeviation="5"/>
<feComposite in2="hardAlpha" operator="out"/>
<feColorMatrix type="matrix" values="0 0 0 0 0 0 0 0 0 0 0 0 0 0 0 0 0 0 0.25 0"/>
<feBlend mode="normal" in2="BackgroundImageFix" result="effect1_dropShadow_1504_267"/>
<feBlend mode="normal" in="BackgroundImageFix" in2="effect1_dropShadow_1504_267" result="BackgroundImageFix"/>
<feBlend mode="normal" in="SourceGraphic" in2="BackgroundImageFix" result="shape"/>
</filter>
<filter id="filter2_d_1504_267" x="137.892" y="198.737" width="226.123" height="99.2578" filterUnits="userSpaceOnUse" color-interpolation-filters="sRGB">
<feFlood flood-opacity="0" result="BackgroundImageFix"/>
<feColorMatrix in="SourceAlpha" type="matrix" values="0 0 0 0 0 0 0 0 0 0 0 0 0 0 0 0 0 0 127 0" result="hardAlpha"/>
<feOffset dy="2"/>
<feGaussianBlur stdDeviation="5"/>
<feComposite in2="hardAlpha" operator="out"/>
<feColorMatrix type="matrix" values="0 0 0 0 0 0 0 0 0 0 0 0 0 0 0 0 0 0 0.25 0"/>
<feBlend mode="normal" in2="BackgroundImageFix" result="effect1_dropShadow_1504_267"/>
<feBlend mode="normal" in="BackgroundImageFix" in2="effect1_dropShadow_1504_267" result="BackgroundImageFix"/>
<feBlend mode="normal" in="SourceGraphic" in2="BackgroundImageFix" result="shape"/>
</filter>
</defs>
</svg>
