<svg width="440" height="440" viewBox="0 0 440 440" fill="none" xmlns="http://www.w3.org/2000/svg">
<rect width="440" height="440" rx="220" fill="#406299"/>
<g filter="url(#filter0_i_1503_373)">
<rect x="50" y="50" width="340" height="340" rx="170" fill="#406299"/>
<g clip-path="url(#clip0_1503_373)">
<mask id="mask0_1503_373" style="mask-type:luminance" maskUnits="userSpaceOnUse" x="-1056" y="-1765" width="3065" height="4315">
<path d="M-1055.9 -1764.83H2008.5V2549.4H-1055.9V-1764.83Z" fill="white"/>
</mask>
<g mask="url(#mask0_1503_373)">
<path fill-rule="evenodd" clip-rule="evenodd" d="M236.861 178.282H243.522L235.502 186.409L226.246 195.756L225.505 196.125L224.887 196.617L224.146 196.986H223.898H223.775V197.109L223.528 197.36H223.034H222.787H222.663V197.478L221.927 197.724L220.197 197.97H202.174H185.64L188.723 204.985H199.585H220.074H232.665L233.649 204.857L234.143 204.739H234.76L235.749 204.493L236.979 204.124L237.968 203.51L239.079 202.766L240.068 201.905L240.562 201.419L240.809 201.173V201.045H240.933H241.18L252.165 190.217L261.668 180.619L263.027 179.266L264.505 178.405L266.111 177.918L267.964 178.041H274.131H278.327L301.286 155.15H288.818H264.752H249.571H246.976L244.758 155.765L242.657 156.754L240.933 158.476L230.441 168.935L220.197 179.143L219.703 179.394L219.456 179.517L219.332 179.763L218.591 180.378L217.114 181.239L215.384 181.731L213.654 181.854H201.804H182.427H172.307L177.243 193.174H194.401H213.901L215.878 192.922L216.861 192.682L217.973 192.436L219.95 191.201L220.938 190.468L222.05 189.725L230.812 180.619L232.289 179.394L233.031 178.902L233.896 178.656L235.378 178.164L236.861 178.282Z" fill="#2A4672"/>
<path fill-rule="evenodd" clip-rule="evenodd" d="M303.752 158.844L285.611 176.929L284.128 179.639L283.392 180.992L282.769 182.463L281.168 185.179L279.686 188.002L276.231 193.173L274.378 195.633L272.654 198.221L270.553 200.429L268.577 202.766L266.481 204.985L265.864 205.477L265.369 206.092L264.381 207.322L263.145 208.306L262.528 208.797L262.039 209.412L259.815 211.631L257.467 213.599L256.237 214.583L255.619 215.075L255.125 215.69L249.941 219.257L244.757 222.454L239.326 225.16L236.613 226.267L234.019 227.497L228.341 229.347L225.504 230.085L222.786 230.822L219.826 231.314L216.99 231.806L214.025 232.18L212.542 232.298L211.188 232.544H208.717L203.41 232.18L198.596 231.437L196.125 230.822L193.907 230.207L189.588 228.732L187.364 227.743L185.387 226.764L181.562 224.427L177.984 221.593L176.26 219.994L174.777 218.519L171.689 214.829L170.335 212.856L169.223 211.016L167.987 208.921L166.999 206.83L165.398 202.52L164.039 197.724L163.545 195.264L163.298 192.804L162.927 187.516V184.805L163.174 182.222H133.677L133.43 185.666L133.553 189.109L133.677 192.435L134.047 195.756L134.418 198.836L135.159 202.033L135.895 205.103L136.884 208.183L137.872 211.016L139.108 213.84L140.338 216.551L141.944 219.257L143.55 221.721L145.398 224.299L147.252 226.764L149.476 229.218L151.571 231.314L153.918 233.405L156.26 235.378L158.855 237.223L161.449 238.816L164.162 240.297L169.964 243.003L176.013 244.976L179.22 245.837L182.551 246.57L185.886 247.067L189.464 247.554L193.165 247.928L196.99 248.174L205.386 247.677L209.582 247.185L213.778 246.57L217.726 245.709L221.927 244.725L225.875 243.5L230.07 242.142L234.019 240.538L237.967 238.816L245.869 234.881L249.571 232.544L253.519 230.085L257.225 227.497L261.174 224.791L262.903 223.197L264.752 221.721L266.481 220.117L268.329 218.642L269.935 216.92L271.665 215.316L273.266 213.599L274.996 211.995L278.079 208.306L281.045 204.616L283.881 200.675L286.723 196.74L289.189 192.435L291.659 188.131L292.154 186.901L292.401 186.276L292.766 185.789L294.002 183.575L296.226 179.019L298.202 174.1L300.174 169.18L302.027 164.01L303.752 158.844Z" fill="#2A4672"/>
<path fill-rule="evenodd" clip-rule="evenodd" d="M137.625 177.303H150.211H174.036H189.217L189.711 177.18H190.324L191.559 177.052L192.671 176.806L193.907 176.56L195.883 175.33L196.748 174.592L197.731 173.854L208.223 163.395L218.467 153.182L219.826 151.706L221.551 150.845L223.28 150.353H225.257H236.979H256.36H266.481L261.421 139.033H244.51H225.01H222.662L220.567 139.771L218.591 140.878L216.99 142.605L207.852 151.706L206.251 152.813L204.769 153.551L203.286 153.925H201.803H195.266L203.286 145.921L212.665 136.574L213.777 135.467L215.136 134.729L216.614 134.237H218.467H236.737H253.272L250.065 127.467H239.203H218.591H206.128H203.78L201.561 128.205L199.461 129.558L197.484 131.526L186.622 142.231L176.996 151.952L175.513 152.936L174.036 153.674H173.542H173.294H173.171V153.802L172.43 154.043L170.7 154.166H164.656H160.584L137.625 177.303Z" fill="#2A4672"/>
<path fill-rule="evenodd" clip-rule="evenodd" d="M134.907 173.977L153.053 155.764L155.771 149.984L158.855 144.444L162.186 139.156L163.915 136.573L165.887 134.236L169.835 129.435L174.16 125.007L178.726 120.703L183.663 116.885L188.599 113.195L193.783 109.998L199.091 107.169L204.645 104.95L210.076 102.982L215.754 101.63L221.551 100.646L227.6 100.154H229.947L235.007 100.277L237.478 100.523L239.944 101.015L244.51 102.121L249.076 103.72L253.148 105.565L255.002 106.672L256.978 108.025L260.556 110.859L264.01 114.179L265.493 115.778L266.976 117.628L269.441 121.441L271.542 125.499L272.401 127.59L273.266 129.927L274.502 134.482L274.872 136.819L275.243 139.402L275.49 144.695V150.23H305.111V143.22L304.864 139.771L304.617 136.573L304.123 133.252L303.505 130.173L302.769 127.098L301.904 124.146L300.792 121.195L299.556 118.366L298.202 115.655L296.72 113.072L293.266 108.025L291.412 105.565L289.436 103.351L287.093 101.015L284.869 98.9239L282.404 96.8278L279.933 95.106L277.22 93.3842L274.502 91.9084L271.665 90.4326L268.824 89.3257L265.74 88.0959L262.651 87.1119L259.321 86.246L256.114 85.6361L252.531 85.0212L249.076 84.6471L245.375 84.2832H241.674L233.154 84.6471L224.887 85.7592L216.614 87.6039L208.594 90.1866L200.573 93.3842L192.795 97.4479L185.022 102.244L177.614 107.784L173.789 110.613L170.211 113.81L166.752 117.008L163.545 120.58L160.338 124.023L157.372 127.836L154.412 131.649L151.818 135.835L149.105 139.894L146.634 144.321L144.292 148.754L142.191 153.55L140.096 158.352L138.243 163.395L136.39 168.56L134.907 173.977Z" fill="#2A4672"/>
</g>
</g>
<path fill-rule="evenodd" clip-rule="evenodd" d="M169.596 289.456L169.925 288.007L170.254 286.692L170.845 284.127L171.174 281.692L171.503 279.522L171.306 277.878L171.108 276.363L170.78 274.982L170.319 273.864L169.596 272.747L168.876 271.76L168.021 270.905L167.035 270.245L165.854 269.588L164.736 269.062L163.489 268.536L162.306 268.207L160.928 267.878L159.613 267.681L158.232 267.549H156.854H155.476L153.177 267.615L151.073 267.812L148.972 268.141L147.068 268.601L145.161 269.127L143.454 269.851L141.813 270.705L140.301 271.694L139.512 271.034L138.66 270.445L137.739 269.851L136.756 269.39L134.523 268.536L133.273 268.141L131.958 267.812L126.312 267.418H124.142L122.238 267.615L120.465 267.878L118.953 268.338H105.619L105.685 268.47L105.816 268.799V269.262L105.882 269.985L105.816 270.311V270.774V271.826L105.751 272.352V273.01V274.39L103.518 284.85L99.8383 301.691L98 310.505H113.435L113.304 310.11L113.238 309.65L113.172 309.056V308.467V307.609V306.757V305.768L113.304 304.716L115.537 294.256L117.444 285.179L117.638 283.138L117.838 282.218L118.164 281.429L118.822 279.916L119.874 278.667L121.057 277.547L122.567 276.757L124.208 276.103L126.18 275.771L127.23 275.837L128.216 276.103L129.002 276.429L129.726 277.023L130.186 277.615L130.58 278.336L130.712 279.193L130.778 280.311L130.58 281.56L130.383 282.944L130.054 284.456L129.66 286.231L124.734 310.505H140.169L139.972 309.716L139.84 309.187V308.595L139.777 307.875V307.086V305.242L142.073 294.716L144.046 285.311L144.375 283.533L144.901 281.889L145.492 280.311L146.344 278.864L146.739 278.141L147.328 277.547L147.92 277.023L148.709 276.626L149.432 276.231L150.35 275.968L151.27 275.771H152.388L153.503 275.837L154.489 276.166L155.279 276.497L155.999 277.086L156.459 277.681L156.92 278.536L157.117 279.456L157.248 280.574L157.117 281.692L156.92 283.072L156.657 284.587L156.331 286.231L151.205 310.505H166.509L166.38 310.176L166.314 309.716L166.248 309.187V308.595L166.182 307.875V307.017V306.097L166.248 305.11L168.087 296.56L169.596 289.456Z" fill="#2A4672"/>
<path fill-rule="evenodd" clip-rule="evenodd" d="M199.883 275.889L200.274 276.02H201.132L201.984 276.152L202.77 276.349L203.493 276.678L204.085 277.009L204.677 277.467L205.137 277.927L205.597 278.522L205.926 279.113L206.187 279.837L206.387 280.56L206.581 281.48V282.335V283.324L206.518 284.373L206.45 285.56H189.765L190.028 283.39L190.294 282.401L190.685 281.546L191.54 279.968L192.066 279.245L192.721 278.653L194.036 277.533L194.825 277.072L195.743 276.744L197.647 276.152L198.699 275.954L199.883 275.889ZM180.962 276.217L179.587 278.193L178.403 280.165L177.417 282.141L176.697 284.245L176.039 286.217L175.644 288.19L175.447 290.165V292.269L175.513 294.242L175.579 295.162L175.776 296.149L176.168 297.992L176.76 299.771L177.483 301.412L178.466 302.99L179.587 304.439L180.899 305.886L182.277 307.072L183.921 308.19L185.694 309.11L186.614 309.502L187.666 309.962L189.702 310.557L192 311.083L194.428 311.346L195.68 311.411L197.055 311.543L198.636 311.477H200.408L202.181 311.346L204.085 311.214L205.989 310.951L208.093 310.688L210.195 310.359L212.493 310.031L216.696 301.543L213.871 302.003L212.559 302.201L211.378 302.466L210.129 302.598L209.014 302.792L206.91 303.058L204.94 303.19L203.23 303.321H201.655H200.408L198.896 303.121L197.584 302.927L196.335 302.661L195.22 302.401L194.102 301.94L193.181 301.543L192.329 301.02L191.606 300.491L190.885 299.834L190.357 299.176L189.833 298.387L189.505 297.598L189.176 296.677L189.044 295.757L188.913 294.702L188.979 293.65H218.932L219.784 287.072V285.757L219.852 284.573L219.721 282.269L219.392 280.1L218.932 278.193L218.142 276.415L217.682 275.56L217.225 274.837L216.633 274.048L216.041 273.39L214.729 272.141L213.148 271.02L211.573 270.037L209.932 269.179L208.225 268.587L206.387 268.061L204.48 267.733L202.51 267.535H200.54L197.124 267.733L194.036 268.259L192.524 268.522L191.146 268.916L189.833 269.376L188.65 269.971L187.401 270.497L186.285 271.155L184.25 272.601L182.409 274.245L181.623 275.165L180.962 276.217Z" fill="#2A4672"/>
<path fill-rule="evenodd" clip-rule="evenodd" d="M248.818 258L231.739 262.668L231.87 262.866L232.002 263.326L232.068 263.786L232.199 264.509V265.235L232.265 266.222V267.208V268.457L229.901 279.904L225.698 299.835L223.396 310.492H239.095L238.963 310.163L238.832 309.769L238.703 309.309V308.714L238.635 307.994V307.136V306.216L238.703 305.229L240.476 296.81L243.298 283.586L244.747 276.813H256.043L257.423 268.326H246.517L248.818 258Z" fill="#2A4672"/>
<path fill-rule="evenodd" clip-rule="evenodd" d="M263.923 268.338L264.055 268.536L264.186 268.864L264.249 269.325L264.381 270.051V270.774L264.446 271.76L264.381 272.878V274.127L262.151 284.587L258.534 301.557L256.564 310.505H272.266L272.068 310.305L271.937 309.976L271.805 309.516V308.927L271.74 308.204V307.346V306.36L271.868 305.242L273.972 295.242L275.745 286.494L276.008 285.048L276.402 283.733L277.255 281.429L278.244 279.522L278.767 278.667L279.424 278.009L280.671 276.892L281.331 276.429L282.117 276.166L282.838 275.903L283.693 275.837L285.465 275.903L286.715 276.034L287.898 276.231L289.013 276.497L290.065 276.892L290.986 277.22L291.838 277.681L292.627 278.141L293.347 278.733L297.947 269.588L295.452 268.536L294.205 268.075L293.021 267.812L290.526 267.418L288.03 267.286L278.175 268.338H263.923Z" fill="#2A4672"/>
<path fill-rule="evenodd" clip-rule="evenodd" d="M307.937 292.269V290.691L308.132 289.242L308.723 286.415L309.712 283.719L311.219 281.152L312.008 279.902L312.929 278.85L313.847 277.927L314.899 277.206L315.951 276.612L317.134 276.152L318.315 275.823L319.63 275.757L321.468 276.089L322.321 276.349L323.178 276.744L323.899 277.072L324.556 277.533L325.145 278.061L325.737 278.719L326.131 279.311L326.526 280.034L326.852 280.757L327.183 281.612L327.381 282.467L327.578 283.456L327.644 284.442L327.709 285.56L327.578 286.546L327.512 287.598L327.312 289.571L327.183 289.965L327.118 290.165V290.425L326.986 291.349L326.852 291.743L326.789 291.941V292.203L326.657 293.124L326.394 293.847L326.197 294.639L325.674 296.149L325.477 296.414L325.345 296.743L325.082 297.398L324.425 298.65L323.638 299.636L323.373 299.834L323.178 300.097L322.781 300.623L321.863 301.349L320.942 302.069H320.745L320.614 302.138L320.351 302.269L319.827 302.529H319.63L319.499 302.598L319.236 302.729L318.71 302.99L317.526 303.255L316.871 303.321L316.28 303.45H316.148L315.162 303.321L314.244 303.121L313.389 302.861L312.666 302.529L311.943 302.069L311.288 301.543L310.17 300.36L309.184 298.779L308.792 297.858L308.529 296.94L308.069 294.702L307.937 293.519V292.269ZM300.647 274.376L298.874 276.089L297.428 277.995L296.178 280.034L295.195 282.204L294.34 284.508L293.748 286.941L293.354 289.508L293.288 292.269V294.242L293.485 296.149L293.88 297.992L294.472 299.771L294.735 300.56L295.126 301.412L296.047 302.99L297.099 304.439L298.346 305.886L298.937 306.477L299.661 307.072L301.302 308.19L303.077 309.11L305.113 309.962L307.28 310.557L309.712 311.083L312.271 311.346L313.652 311.411L315.162 311.543L315.819 311.477H316.543L317.986 311.411L319.367 311.28L320.811 311.148L322.126 310.885L323.438 310.622L323.701 310.491L323.833 310.425H324.03L324.685 310.291L326 310.031L326.526 309.768L326.789 309.636L326.92 309.57H327.118L328.301 309.11L329.416 308.581L329.94 308.321L330.205 308.19L330.337 308.121H330.531L331.52 307.464L332.567 306.872L333.027 306.477L333.556 306.148L334.608 305.491L335 305.031L335.46 304.636L336.315 303.847L337.035 302.927L337.824 302.003L338.416 300.951L339.071 299.897L339.597 298.779L339.86 298.19L340.189 297.664L340.583 296.349L340.978 295.099L341.109 294.373L341.307 293.716L341.633 292.401L341.698 291.612L341.83 290.888L342.027 289.442L342.093 287.861L342.224 286.349L342.093 284.311L341.83 282.467L341.37 280.626L340.846 278.982L339.991 277.272L339.071 275.757L337.956 274.311L336.707 272.996L335.194 271.746L333.556 270.626L332.635 270.103L331.715 269.705L329.811 268.982L328.693 268.587L327.644 268.324L325.408 267.864L324.162 267.667L322.978 267.601L320.416 267.535L317.332 267.601L315.819 267.733L314.438 267.996L312.995 268.193L311.68 268.522L310.367 268.85L309.184 269.311L306.754 270.231L305.573 270.76L304.521 271.415L302.485 272.733L300.647 274.376Z" fill="#2A4672"/>
<path fill-rule="evenodd" clip-rule="evenodd" d="M266 332H260.924L257 351H261.922L266 332Z" fill="#2A4672"/>
<path fill-rule="evenodd" clip-rule="evenodd" d="M268 323H262.281L261 327H266.804L268 323Z" fill="#2A4672"/>
<path fill-rule="evenodd" clip-rule="evenodd" d="M213 332H208.497L205 351H209.304L213 332Z" fill="#2A4672"/>
<path fill-rule="evenodd" clip-rule="evenodd" d="M224.773 345.928L224.146 345.697L223.68 345.545L222.822 345.091L222.119 344.56L221.729 343.878L221.498 343.426L221.417 343.044L221.342 342.134L221.417 341.069L221.81 339.935L222.044 338.646L222.432 337.509L222.903 336.52L223.602 335.686L224.302 334.928L225.238 334.397L226.253 333.942L227.502 333.712L228.357 333.942L229.216 334.397L229.762 334.928L230.309 335.686L230.543 336.52L230.621 337.509L230.543 338.646L230.383 339.935L230.074 341.069L229.684 342.134L229.138 343.044L228.826 343.426L228.595 343.878L228.123 344.181L227.892 344.336L227.736 344.56L227.264 344.787L226.877 345.091L225.863 345.545L224.773 345.928ZM223.524 330.3H218.766L213 357H217.908L220.171 347.065L221.183 348.278L222.432 349.188L223.758 349.643L224.536 349.719H225.32L225.785 349.567L225.863 349.491H226.019H226.331L226.799 349.339L226.877 349.264H227.033H227.346L228.282 348.96L229.216 348.657L229.996 348.202L230.774 347.747L231.086 347.444L231.245 347.289L231.32 347.217H231.476L232.257 346.686V346.534L232.335 346.458L232.491 346.307L232.803 346L233.427 345.318L233.892 344.487L234.439 343.726L234.751 342.816L235.141 341.906V341.6V341.451L235.223 341.376L235.376 340.921L235.688 339.935L236 337.736V335.838L235.844 334.928L235.688 334.17L235.223 332.881L234.286 331.741L233.037 330.91L232.257 330.531L231.476 330.3L230.621 330.073L229.762 330H228.595L227.58 330.148L225.785 330.758L224.929 331.137L224.227 331.668L223.056 332.957H222.903L223.524 330.3Z" fill="#2A4672"/>
<path fill-rule="evenodd" clip-rule="evenodd" d="M216 323H211.051L210 327H215.021L216 323Z" fill="#2A4672"/>
<path fill-rule="evenodd" clip-rule="evenodd" d="M196.14 345.367L195.697 345.692L195.476 345.853L195.328 346.091L194.442 346.734L193.928 346.895L193.484 347.136H193.189H193.041H192.967V347.22L192.524 347.381L191.789 347.297L191.195 347.22L190.678 346.979L190.386 346.734L190.09 346.332L189.942 345.93L189.869 345.367L189.942 344.888L190.309 343.839L190.903 343.115L191.49 342.388L192.229 341.989L192.967 341.587L193.854 341.346L194.74 341.262L195.845 341.423H197.91L197.614 342.472L197.393 342.955L197.245 343.517L196.728 344.483L196.14 345.367ZM200.643 350.598L202.781 338.769L202.929 337.643L203 336.598V335.633V334.829L202.852 333.944L202.708 333.22L202.412 332.577L202.117 332.091L201.6 331.528L201.083 331.126L200.495 330.724L199.901 330.486L199.165 330.241L198.356 330.084L197.467 330L196.58 330.084L194.811 330.161L193.189 330.402L191.564 330.804L189.942 331.528L189.204 335.958L190.533 334.986L192.007 334.346L193.558 333.864L195.18 333.703L196.14 333.619L196.95 333.864L197.541 334.105L198.058 334.668L198.279 335.231L198.501 336.115L198.427 337.08L198.356 338.29H195.845L194.223 338.206L192.598 338.451L190.973 338.853L189.499 339.416L187.951 340.22L187.286 340.703L186.769 341.423L186.179 342.15L185.735 343.035L185.071 345.045L185 345.692L185.071 346.332L185.292 347.542L185.665 348.507L185.883 348.909L186.252 349.392L186.548 349.633L186.991 349.954L187.951 350.517L188.468 350.598L189.13 350.759L190.533 351L191.343 350.839L192.229 350.678L192.967 350.437L193.854 350.115L194.589 349.633L194.959 349.311L195.405 349.07L196.14 348.423L196.879 347.699L196.58 350.598H200.643Z" fill="#2A4672"/>
<path fill-rule="evenodd" clip-rule="evenodd" d="M251.389 338.72H242.785L243.099 337.509L243.571 336.54L244.038 335.652L244.742 335.006L245.365 334.441L246.226 334.037L247.087 333.714L248.183 333.633L249.041 333.714L249.826 334.037L250.374 334.441L250.922 335.087L251.154 335.733L251.389 336.621L251.467 337.509L251.389 338.72ZM242.163 342.034H255.377L255.612 340.581L255.843 339.286L255.925 338.074L256 337.025L255.925 335.898L255.768 335.006L255.534 334.118L255.221 333.388L254.673 332.58L254.125 331.938L253.42 331.373L252.716 330.969L251.858 330.565L250.922 330.32L249.826 330.077L248.731 330L246.461 330.239L245.365 330.481L244.429 330.885L242.632 331.776L241.148 333.068L239.814 334.522L239.192 335.329L238.722 336.298L237.861 338.317L237.316 340.742L237.078 341.873L237 343.003V344.053L237.157 345.102L237.316 345.991L237.626 346.879L237.939 347.609L238.487 348.335L238.957 348.901L239.658 349.466L240.362 349.87L241.223 350.273L242.084 350.515L243.18 350.758L244.276 350.838L245.522 351L247.403 350.838L248.261 350.677L249.197 350.596L250.922 350.031L251.702 349.708L252.093 349.547L252.563 349.466L253.345 345.183L252.872 345.345H252.716H252.641V345.429L252.481 345.587L251.702 345.991L250.841 346.314L250.058 346.717L248.339 347.121L246.617 347.366L245.447 347.121L244.429 346.879L243.571 346.475L243.024 345.91L242.476 345.183L242.238 344.298L242.084 343.73V343.245L242.163 342.034Z" fill="#2A4672"/>
<path fill-rule="evenodd" clip-rule="evenodd" d="M172 327.091H179.059L174.355 351H179.206L183.984 327.091H191.264L192 323H172.883L172 327.091Z" fill="#2A4672"/>
</g>
<path d="M15.7415 222.522L12.6272 222.386L13.4374 203.829L16.5517 203.965L16.225 211.447L37.088 212.357L36.9305 215.963L16.0676 215.053L15.7415 222.522Z" fill="#223A65"/>
<path d="M37.7522 203.046L37.2076 206.851L14.6733 194.901L15.2661 190.759L40.2476 185.61L39.703 189.415L19.2992 193.349L19.2726 193.535L37.7522 203.046ZM28.5398 201.076L30.3064 188.733L33.3226 189.165L31.556 201.508L28.5398 201.076Z" fill="#223A65"/>
<path d="M19.3233 171.081L42.6314 176.802L41.7683 180.319L18.4601 174.598L19.3233 171.081Z" fill="#223A65"/>
<path d="M44.7588 168.79L22.1264 160.804L24.9729 152.737C25.5942 150.976 26.4294 149.631 27.4785 148.7C28.5276 147.77 29.7097 147.213 31.025 147.031C32.3328 146.846 33.6793 146.998 35.0644 147.487C36.4568 147.978 37.6065 148.711 38.5136 149.686C39.416 150.65 39.9859 151.829 40.2235 153.222C40.4563 154.605 40.2634 156.173 39.6447 157.926L37.6872 163.474L34.7919 162.452L36.6402 157.214C37.0327 156.102 37.1596 155.132 37.0209 154.304C36.8748 153.474 36.5237 152.778 35.9676 152.217C35.4116 151.657 34.7063 151.225 33.8517 150.924C32.997 150.622 32.181 150.517 31.4036 150.607C30.6261 150.697 29.9261 151.026 29.3034 151.593C28.6833 152.153 28.1731 153 27.7727 154.135L26.2598 158.423L45.9637 165.375L44.7588 168.79Z" fill="#223A65"/>
<path d="M51.16 151.297L29.4229 141.124L35.8012 127.496L38.6245 128.817L33.7811 139.165L40.4042 142.265L44.9147 132.628L47.7273 133.944L43.2168 143.582L49.8717 146.696L54.7746 136.22L57.5979 137.542L51.16 151.297Z" fill="#223A65"/>
<path d="M43.0176 114.975L63.6485 127.237L61.7984 130.35L41.1675 118.088L43.0176 114.975Z" fill="#223A65"/>
<path d="M77.8001 106.81L59.9692 90.7456L65.6952 84.3898C66.9397 83.0084 68.2105 82.0764 69.5074 81.5939C70.8096 81.1056 72.0854 81.0142 73.3349 81.3197C74.5786 81.62 75.749 82.2643 76.846 83.2526C77.9372 84.2357 78.6913 85.3304 79.1082 86.5368C79.5246 87.732 79.5489 88.9948 79.1812 90.325C78.8188 91.6494 78.0153 93.0023 76.7707 94.3837L72.4331 99.1984L70.1172 97.112L74.2352 92.541C75.0196 91.6704 75.5327 90.8498 75.7747 90.0794C76.0219 89.3031 76.0225 88.5729 75.7767 87.8887C75.5308 87.2045 75.0741 86.5617 74.4066 85.9604C73.7333 85.3538 73.0323 84.9588 72.3036 84.7755C71.5802 84.5865 70.8395 84.65 70.0815 84.9661C69.3229 85.2711 68.5436 85.8677 67.7436 86.7557L64.7002 90.1339L80.2239 104.119L77.8001 106.81ZM77.6854 90.7597L89.6992 93.6019L86.9382 96.6666L75.0028 93.7374L77.6854 90.7597Z" fill="#223A65"/>
<path d="M92.7365 89.8539L89.8953 92.4427L80.1151 68.8856L83.2075 66.0679L105.756 77.9912L102.915 80.58L84.671 70.632L84.5324 70.7583L92.7365 89.8539ZM86.883 82.4727L96.0996 74.0749L98.1517 76.3271L88.9351 84.7249L86.883 82.4727Z" fill="#223A65"/>
<path d="M107.347 77.5523L93.0063 58.3081L99.8658 53.1964C101.363 52.0807 102.806 51.4289 104.196 51.2409C105.586 51.053 106.877 51.25 108.071 51.8318C109.26 52.4073 110.293 53.2839 111.171 54.4616C112.053 55.6456 112.599 56.895 112.809 58.2097C113.021 59.5135 112.837 60.8098 112.258 62.0986C111.681 63.3765 110.646 64.571 109.156 65.6821L104.438 69.1972L102.604 66.7353L107.058 63.4162C108.004 62.7113 108.65 61.9766 108.996 61.212C109.337 60.4412 109.433 59.668 109.284 58.8926C109.135 58.1171 108.79 57.366 108.248 56.6394C107.707 55.9127 107.088 55.3702 106.392 55.0118C105.696 54.6534 104.932 54.5362 104.099 54.6602C103.272 54.7795 102.376 55.1986 101.411 55.9175L97.7654 58.6345L110.251 75.3886L107.347 77.5523Z" fill="#223A65"/>
<path d="M113.796 42.968L124.71 64.3427L121.485 65.9894L110.571 44.6148L113.796 42.968Z" fill="#223A65"/>
<path d="M137.354 56.9478L130.336 60.2808L120.041 38.6013L127.281 35.1627C129.405 34.154 131.436 33.7216 133.372 33.8657C135.305 34.0028 137.062 34.6866 138.641 35.9173C140.223 37.1376 141.549 38.8733 142.618 41.1245C143.691 43.3828 144.2 45.5196 144.145 47.5348C144.097 49.5467 143.505 51.3589 142.368 52.9713C141.227 54.5766 139.556 55.9021 137.354 56.9478ZM132.25 55.8693L135.817 54.1751C137.469 53.3909 138.694 52.4285 139.493 51.288C140.288 50.1404 140.676 48.8448 140.657 47.4012C140.634 45.9505 140.215 44.3677 139.4 42.6528C138.593 40.952 137.636 39.6379 136.529 38.7103C135.43 37.7794 134.202 37.2601 132.844 37.1522C131.487 37.0443 130.018 37.3657 128.437 38.1164L124.669 39.9061L132.25 55.8693Z" fill="#223A65"/>
<path d="M155.366 27.2233L154.606 24.2002L172.619 19.6712L173.379 22.6943L166.117 24.5202L171.209 44.7727L167.709 45.6527L162.617 25.4002L155.366 27.2233Z" fill="#223A65"/>
<path d="M178.875 42.9108L175.341 19.1724L183.802 17.9127C185.641 17.6389 187.215 17.7285 188.522 18.1815C189.838 18.6334 190.88 19.3747 191.649 20.4054C192.418 21.4284 192.911 22.6702 193.128 24.1306C193.344 25.5834 193.23 26.9077 192.784 28.1036C192.344 29.2906 191.56 30.2802 190.43 31.0724C189.307 31.8635 187.827 32.396 185.987 32.6698L179.578 33.624L179.119 30.5408L185.204 29.6349C186.363 29.4623 187.281 29.1558 187.958 28.7154C188.643 28.2738 189.108 27.7109 189.353 27.0267C189.599 26.3424 189.656 25.556 189.523 24.6673C189.39 23.7709 189.1 23.0202 188.655 22.4152C188.217 21.809 187.605 21.3866 186.819 21.1482C186.04 20.9009 185.059 20.8652 183.877 21.0412L179.38 21.7108L182.457 42.3775L178.875 42.9108ZM188.999 30.4561L196.459 40.293L192.378 40.9004L185.035 31.0462L188.999 30.4561Z" fill="#223A65"/>
<path d="M201.134 40.3486L197.295 40.5378L204.739 16.1417L208.918 15.9356L218.726 39.4812L214.887 39.6705L207.143 20.3878L206.955 20.3971L201.134 40.3486ZM201.315 30.9298L213.769 30.3158L213.919 33.359L201.465 33.973L201.315 30.9298Z" fill="#223A65"/>
<path d="M240.087 16.5631L238.905 40.534L235.581 40.3701L224.263 22.1892L224.041 22.1782L223.174 39.7584L219.557 39.5801L220.739 15.6092L224.086 15.7743L235.415 33.9792L235.637 33.9902L236.505 16.3865L240.087 16.5631Z" fill="#223A65"/>
<path d="M257.14 25.1262C257.18 24.0105 256.796 23.0846 255.99 22.3484C255.184 21.6045 254.102 21.1313 252.742 20.9288C251.768 20.7839 250.903 20.813 250.146 21.0163C249.39 21.2118 248.775 21.5468 248.302 22.0213C247.837 22.4893 247.555 23.0594 247.455 23.7317C247.371 24.2958 247.43 24.8021 247.631 25.2508C247.841 25.7006 248.141 26.0968 248.533 26.4394C248.933 26.7755 249.37 27.0736 249.845 27.3338C250.321 27.5863 250.782 27.805 251.228 27.99L253.457 28.9378C254.186 29.236 254.926 29.6028 255.674 30.0381C256.423 30.4734 257.099 31.0006 257.702 31.6195C258.305 32.2385 258.758 32.9615 259.061 33.7887C259.372 34.6169 259.449 35.5643 259.29 36.6306C259.09 37.9752 258.564 39.1173 257.713 40.057C256.87 40.9978 255.747 41.6717 254.344 42.0789C252.948 42.4872 251.323 42.5533 249.468 42.2772C247.691 42.0126 246.195 41.5017 244.981 40.7443C243.767 39.9869 242.87 39.0359 242.29 37.8911C241.711 36.7386 241.49 35.4419 241.625 34.0008L245.218 34.5357C245.16 35.4038 245.332 36.16 245.734 36.8043C246.144 37.442 246.711 37.9569 247.435 38.349C248.167 38.7345 248.993 38.9957 249.913 39.1326C250.925 39.2833 251.849 39.2589 252.684 39.0594C253.529 38.8534 254.221 38.4984 254.762 37.9944C255.304 37.4828 255.633 36.8406 255.748 36.0678C255.853 35.3646 255.738 34.759 255.403 34.251C255.075 33.7442 254.593 33.2933 253.957 32.8984C253.328 32.5047 252.606 32.1325 251.789 31.7819L249.098 30.5993C247.274 29.7986 245.881 28.8131 244.918 27.6429C243.962 26.4738 243.607 25.0625 243.854 23.4088C244.057 22.0411 244.606 20.9024 245.5 19.9928C246.393 19.0833 247.516 18.4408 248.867 18.0653C250.219 17.6822 251.692 17.6091 253.283 17.8461C254.891 18.0854 256.267 18.5785 257.411 19.3255C258.564 20.0737 259.422 20.9952 259.985 22.0902C260.55 23.1774 260.753 24.3608 260.594 25.6404L257.14 25.1262Z" fill="#223A65"/>
<path d="M271.505 22.6128L265.653 45.8885L262.141 45.0055L267.993 21.7299L271.505 22.6128Z" fill="#223A65"/>
<path d="M275.674 26.9694L276.728 24.0357L294.208 30.3147L293.155 33.2484L286.107 30.717L279.048 50.3704L275.651 49.1503L282.71 29.4969L275.674 26.9694Z" fill="#223A65"/>
<path d="M327.704 53.8641L324.572 51.9784C324.854 51.2365 324.985 50.5125 324.963 49.8064C324.941 49.1003 324.8 48.4268 324.538 47.786C324.276 47.1452 323.905 46.5571 323.425 46.0218C322.952 45.4905 322.387 45.0274 321.731 44.6326C320.546 43.9194 319.306 43.5786 318.01 43.6101C316.721 43.6458 315.459 44.076 314.224 44.9008C312.996 45.7297 311.882 46.9741 310.882 48.634C309.875 50.3073 309.293 51.8808 309.135 53.3544C308.984 54.832 309.2 56.1474 309.782 57.3005C310.365 58.4536 311.242 59.3827 312.413 60.0879C313.062 60.4787 313.73 60.7624 314.417 60.9389C315.115 61.1128 315.807 61.1688 316.491 61.1068C317.176 61.0448 317.834 60.8616 318.464 60.557C319.105 60.2498 319.686 59.8065 320.208 59.2271L323.334 61.1229C322.559 62.0329 321.674 62.7678 320.68 63.3277C319.697 63.885 318.646 64.2459 317.525 64.4103C316.416 64.5722 315.282 64.5323 314.123 64.2908C312.965 64.0492 311.82 63.588 310.689 62.907C308.908 61.8352 307.576 60.4585 306.691 58.7771C305.811 57.0889 305.444 55.2133 305.592 53.1502C305.747 51.0911 306.483 48.9672 307.8 46.7785C309.122 44.5831 310.658 42.9407 312.408 41.8514C314.162 40.7553 315.989 40.2046 317.889 40.1994C319.793 40.1875 321.632 40.7154 323.405 41.7832C324.496 42.44 325.419 43.2098 326.173 44.0925C326.938 44.9725 327.518 45.9414 327.911 46.9991C328.309 48.0502 328.496 49.1565 328.471 50.3181C328.451 51.473 328.195 52.655 327.704 53.8641Z" fill="#223A65"/>
<path d="M344.084 71.2102C342.553 73.2649 340.861 74.7513 339.007 75.6696C337.159 76.5815 335.283 76.9474 333.381 76.7674C331.49 76.5857 329.714 75.8763 328.054 74.6392C326.388 73.3975 325.194 71.8941 324.473 70.1291C323.763 68.3625 323.583 66.46 323.933 64.4214C324.283 62.3828 325.221 60.3393 326.748 58.2908C328.279 56.2361 329.969 54.7527 331.817 53.8408C333.671 52.9226 335.543 52.5543 337.434 52.736C339.336 52.9161 341.121 53.627 342.787 54.8688C344.447 56.1058 345.632 57.6077 346.342 59.3742C347.063 61.1392 347.249 63.041 346.899 65.0796C346.554 67.1119 345.615 69.1554 344.084 71.2102ZM341.209 69.0674C342.376 67.5013 343.105 65.9936 343.396 64.5443C343.698 63.0933 343.615 61.7655 343.149 60.5606C342.694 59.3542 341.915 58.3402 340.812 57.5186C339.704 56.6923 338.506 56.2335 337.22 56.1422C335.938 56.0445 334.642 56.3454 333.332 57.0447C332.033 57.7425 330.799 58.8744 329.632 60.4405C328.465 62.0066 327.731 63.5151 327.429 64.9661C327.138 66.4154 327.22 67.7433 327.676 68.9497C328.136 70.1499 328.92 71.1631 330.029 71.9894C331.131 72.811 332.323 73.2706 333.605 73.3682C334.897 73.4642 336.193 73.1634 337.493 72.4656C338.803 71.7663 340.042 70.6335 341.209 69.0674Z" fill="#223A65"/>
<path d="M336.197 81.4568L352.361 63.7166L358.685 69.4783C360.059 70.7306 360.984 72.0066 361.459 73.3062C361.94 74.6111 362.024 75.8875 361.712 77.1352C361.404 78.3772 360.753 79.5439 359.759 80.6354C358.77 81.721 357.671 82.4689 356.462 82.879C355.265 83.2886 354.002 83.3059 352.674 82.9307C351.351 82.5608 350.003 81.7497 348.629 80.4974L343.838 76.1327L345.938 73.8286L350.485 77.9723C351.352 78.7615 352.169 79.2793 352.938 79.5256C353.713 79.7772 354.443 79.7819 355.129 79.5399C355.815 79.2979 356.46 78.8448 357.065 78.1807C357.675 77.5109 358.074 76.8121 358.262 76.0845C358.455 75.3621 358.396 74.621 358.084 73.8613C357.783 73.101 357.191 72.3184 356.307 71.5133L352.946 68.4509L338.874 83.8957L336.197 81.4568ZM352.247 81.4325L349.338 93.4301L346.288 90.6519L349.285 78.7332L352.247 81.4325Z" fill="#223A65"/>
<path d="M350.443 94.7342L368.274 78.67L374 85.0258C375.25 86.413 376.033 87.7898 376.349 89.156C376.665 90.5222 376.588 91.8265 376.12 93.0689C375.657 94.306 374.88 95.4161 373.789 96.3992C372.692 97.3875 371.499 98.0472 370.209 98.3783C368.93 98.7099 367.623 98.6473 366.286 98.1904C364.96 97.734 363.674 96.8151 362.43 95.4337L358.492 91.063L360.773 89.0079L364.491 93.1348C365.281 94.0113 366.072 94.5864 366.866 94.8601C367.665 95.1285 368.444 95.1525 369.202 94.932C369.96 94.7116 370.676 94.298 371.349 93.6915C372.023 93.0849 372.506 92.4186 372.798 91.6925C373.09 90.9665 373.136 90.1945 372.935 89.3764C372.74 88.5641 372.239 87.711 371.434 86.8171L368.39 83.439L352.867 97.4245L350.443 94.7342Z" fill="#223A65"/>
<path d="M383.152 117.183C381.089 118.702 379.037 119.631 376.996 119.97C374.962 120.304 373.062 120.107 371.294 119.381C369.538 118.656 368.046 117.46 366.818 115.793C365.586 114.12 364.882 112.334 364.706 110.436C364.542 108.539 364.924 106.666 365.852 104.818C366.781 102.97 368.274 101.288 370.331 99.7734C372.394 98.2538 374.443 97.3271 376.477 96.9932C378.518 96.6548 380.416 96.8479 382.172 97.5726C383.939 98.2989 385.439 99.4987 386.671 101.172C387.899 102.839 388.595 104.621 388.76 106.518C388.936 108.416 388.559 110.29 387.631 112.138C386.708 113.981 385.216 115.663 383.152 117.183ZM381.026 114.295C382.598 113.137 383.735 111.907 384.435 110.605C385.147 109.305 385.455 108.011 385.36 106.723C385.276 105.436 384.826 104.239 384.011 103.132C383.191 102.018 382.179 101.231 380.975 100.768C379.777 100.302 378.45 100.212 376.993 100.499C375.546 100.788 374.037 101.512 372.464 102.67C370.892 103.828 369.75 105.058 369.038 106.358C368.338 107.659 368.03 108.954 368.114 110.24C368.204 111.523 368.659 112.72 369.479 113.834C370.295 114.941 371.301 115.728 372.499 116.194C373.707 116.663 375.035 116.753 376.481 116.464C377.938 116.176 379.453 115.453 381.026 114.295Z" fill="#223A65"/>
<path d="M374.88 124.729L395.511 112.467L399.882 119.821C400.832 121.419 401.345 122.909 401.421 124.291C401.501 125.679 401.21 126.925 400.547 128.027C399.891 129.126 398.929 130.052 397.66 130.807C396.397 131.557 395.128 131.953 393.852 131.993C392.587 132.036 391.374 131.684 390.213 130.939C389.056 130.2 388.002 129.031 387.052 127.433L383.741 121.862L386.421 120.269L389.564 125.558C390.163 126.565 390.794 127.299 391.458 127.758C392.126 128.225 392.823 128.442 393.55 128.41C394.276 128.378 395.025 128.133 395.798 127.674C396.577 127.211 397.162 126.659 397.553 126.017C397.948 125.382 398.107 124.656 398.03 123.839C397.964 123.024 397.625 122.102 397.015 121.075L394.692 117.166L376.73 127.842L374.88 124.729ZM390.242 129.381L383.963 140.011L381.856 136.465L388.194 125.936L390.242 129.381Z" fill="#223A65"/>
<path d="M385.429 144.219L383.8 140.738L409.198 138.386L410.972 142.176L392.895 160.171L391.266 156.69L406.179 142.219L406.099 142.049L385.429 144.219ZM394.215 140.819L399.5 152.112L396.741 153.403L391.455 142.11L394.215 140.819Z" fill="#223A65"/>
<path d="M409.751 149.529L412.69 148.492L418.871 166.007L415.931 167.045L413.439 159.983L393.747 166.932L392.546 163.528L412.238 156.579L409.751 149.529Z" fill="#223A65"/>
<path d="M420.017 173.596L396.709 179.317L395.846 175.801L419.154 170.08L420.017 173.596Z" fill="#223A65"/>
<path d="M413.064 202.289C410.528 202.652 408.28 202.5 406.323 201.833C404.372 201.165 402.79 200.093 401.577 198.617C400.372 197.148 399.623 195.389 399.33 193.34C399.035 191.282 399.26 189.376 400.003 187.62C400.755 185.871 401.977 184.402 403.669 183.212C405.362 182.023 407.472 181.248 410.001 180.886C412.538 180.523 414.781 180.675 416.731 181.343C418.689 182.01 420.271 183.078 421.475 184.547C422.689 186.023 423.443 187.789 423.737 189.846C424.031 191.896 423.801 193.795 423.049 195.544C422.306 197.3 421.089 198.773 419.396 199.962C417.712 201.15 415.601 201.926 413.064 202.289ZM412.556 198.739C414.49 198.462 416.073 197.916 417.306 197.1C418.547 196.291 419.431 195.297 419.957 194.116C420.491 192.943 420.661 191.676 420.466 190.314C420.27 188.946 419.751 187.773 418.909 186.796C418.075 185.819 416.947 185.112 415.528 184.676C414.117 184.247 412.444 184.17 410.511 184.447C408.577 184.724 406.99 185.267 405.748 186.076C404.515 186.891 403.632 187.886 403.097 189.06C402.571 190.232 402.405 191.503 402.601 192.871C402.796 194.233 403.311 195.402 404.145 196.379C404.988 197.364 406.115 198.07 407.526 198.5C408.946 198.936 410.623 199.016 412.556 198.739Z" fill="#223A65"/>
<path d="M426.651 223.745L402.674 224.792L402.529 221.467L419.581 208.512L419.572 208.289L401.987 209.057L401.829 205.44L425.806 204.393L425.952 207.741L408.877 220.709L408.886 220.932L426.494 220.163L426.651 223.745Z" fill="#223A65"/>
<path d="M70.1542 365.328L87.4865 380.662L84.2582 384.311L66.9259 368.977L70.1542 365.328ZM76.4706 354.766L97.5148 373.384L85.1861 387.319L81.1282 383.729L90.2565 373.411L77.1393 361.806L67.9832 372.155L64.1141 368.732L76.4706 354.766ZM96.6067 344.429L99.6638 349.658C97.84 350.324 95.936 350.977 93.9517 351.614C92.0069 352.248 90.1073 352.811 88.2529 353.301C86.417 353.77 84.7344 354.151 83.205 354.443L81.0323 350.053C82.5987 349.719 84.2963 349.259 86.1249 348.671C87.9721 348.062 89.8052 347.384 91.6241 346.638C93.464 345.911 95.1249 345.175 96.6067 344.429ZM99.2024 356.708L104.139 357.15C104.445 358.916 104.68 360.806 104.843 362.819C105.045 364.83 105.134 366.779 105.111 368.664C105.127 370.548 105.009 372.182 104.756 373.566L99.2583 373.188C99.5528 371.841 99.7222 370.234 99.7667 368.367C99.8507 366.497 99.8404 364.544 99.7356 362.507C99.6309 360.47 99.4532 358.537 99.2024 356.708ZM78.9769 345.151C80.6078 346.519 82.4262 348.034 84.4322 349.697C86.4776 351.357 88.6175 353.1 90.8517 354.927C93.1068 356.773 95.3935 358.647 97.7116 360.548C100.03 362.449 102.306 364.313 104.54 366.141L101.154 369.65C98.8621 367.847 96.5582 366.014 94.2425 364.152C91.9454 362.269 89.6809 360.434 87.4492 358.646C85.2569 356.856 83.1695 355.159 81.1869 353.555C79.2229 351.929 77.4372 350.462 75.8297 349.152L78.9769 345.151Z" fill="#34496D"/>
<path d="M123.025 377.93L134.34 383.182L132.235 387.716L120.921 382.464L123.025 377.93ZM145.562 378.158L150.324 380.369L137.574 407.836C137.079 408.903 136.85 409.63 136.886 410.017C136.934 410.379 137.314 410.725 138.025 411.055C138.177 411.126 138.431 411.243 138.787 411.409C139.142 411.574 139.536 411.756 139.968 411.957C140.4 412.157 140.793 412.34 141.149 412.505C141.504 412.67 141.771 412.794 141.949 412.876C142.457 413.112 142.938 413.073 143.392 412.759C143.847 412.445 144.384 411.753 145.004 410.683C145.662 409.599 146.5 408.059 147.52 406.062C147.771 406.519 148.086 407.004 148.464 407.519C148.868 408.046 149.283 408.548 149.71 409.024C150.149 409.475 150.561 409.851 150.946 410.153C149.662 412.521 148.481 414.365 147.405 415.687C146.354 417.02 145.268 417.828 144.149 418.111C143.044 418.432 141.767 418.256 140.319 417.584C140.116 417.489 139.773 417.33 139.291 417.106C138.808 416.882 138.288 416.641 137.729 416.381C137.195 416.134 136.7 415.904 136.243 415.692C135.786 415.479 135.443 415.32 135.214 415.214C133.767 414.542 132.724 413.796 132.086 412.975C131.462 412.191 131.221 411.215 131.362 410.046C131.516 408.851 132.005 407.365 132.83 405.587L145.562 378.158ZM135.962 373.702L140.724 375.913L124.597 410.656L119.835 408.446L135.962 373.702ZM155.499 389.67L156.903 395.323C155.17 395.599 153.361 395.839 151.475 396.045C149.601 396.224 147.708 396.38 145.795 396.51C143.919 396.627 142.093 396.706 140.315 396.745C140.398 396.166 140.409 395.445 140.346 394.583C140.295 393.695 140.229 392.939 140.148 392.315C141.862 392.215 143.629 392.032 145.45 391.766C147.272 391.5 149.041 391.18 150.759 390.804C152.502 390.44 154.082 390.062 155.499 389.67ZM113.643 394.551C114.826 394.73 116.203 394.921 117.775 395.126C119.359 395.306 121.036 395.482 122.808 395.656C124.591 395.805 126.355 395.96 128.101 396.123L127.068 400.644C124.762 400.623 122.412 400.566 120.016 400.473C117.646 400.391 115.477 400.31 113.508 400.23L113.643 394.551Z" fill="#34496D"/>
<path d="M187.484 393.627L212.129 397.223L211.559 401.129L186.914 397.534L187.484 393.627ZM196.247 418.802L207.344 420.421L206.78 424.286L195.683 422.667L196.247 418.802ZM185.128 404.829L211.436 408.667L210.872 412.532L184.564 408.694L185.128 404.829ZM188.405 399.534L209.642 402.632L207.405 417.968L186.167 414.87L186.707 411.171L203.331 413.596L204.477 405.741L187.853 403.316L188.405 399.534ZM197.456 391.899L202.069 392.572L196.733 429.145L192.508 425.812L197.456 391.899ZM185.875 415.422L190.32 416.664C189.476 419.54 188.393 422.113 187.072 424.382C185.782 426.628 184.232 428.425 182.423 429.774C182.182 429.484 181.852 429.124 181.434 428.695C181.043 428.271 180.623 427.856 180.173 427.45C179.75 427.049 179.373 426.725 179.041 426.479C180.727 425.395 182.121 423.886 183.224 421.953C184.327 420.02 185.21 417.843 185.875 415.422ZM188.684 419.439C189.209 421.27 190.045 422.722 191.19 423.794C192.335 424.867 193.703 425.675 195.293 426.218C196.911 426.765 198.674 427.192 200.581 427.499C200.886 427.543 201.385 427.616 202.077 427.717C202.77 427.818 203.532 427.929 204.363 428.051C205.222 428.176 206.026 428.293 206.774 428.402C207.526 428.484 208.126 428.543 208.573 428.58C208.331 428.884 208.074 429.285 207.803 429.783C207.532 430.282 207.289 430.784 207.074 431.29C206.859 431.796 206.679 432.251 206.535 432.655L204.873 432.412L199.636 431.648C197.171 431.288 194.963 430.712 193.013 429.918C191.087 429.156 189.457 428.012 188.123 426.488C186.793 424.936 185.766 422.862 185.041 420.266L188.684 419.439ZM170.841 409.366C172.556 409.248 174.608 409.052 176.997 408.778C179.413 408.508 181.847 408.213 184.299 407.891L184.268 412.471C182.041 412.797 179.787 413.119 177.506 413.437C175.252 413.759 173.158 414.047 171.225 414.303L170.841 409.366ZM173.404 396.455L186.121 398.31L185.455 402.882L172.737 401.026L173.404 396.455ZM178.914 389.236L183.485 389.903L178.562 423.65C178.397 424.786 178.141 425.668 177.794 426.297C177.471 426.957 176.963 427.435 176.269 427.73C175.603 428.029 174.789 428.179 173.827 428.18C172.892 428.185 171.734 428.073 170.353 427.843C170.387 427.225 170.345 426.441 170.229 425.49C170.109 424.567 169.945 423.751 169.738 423.042C170.509 423.183 171.212 423.313 171.845 423.434C172.51 423.531 172.969 423.584 173.223 423.593C173.472 423.629 173.644 423.612 173.74 423.541C173.867 423.446 173.95 423.26 173.991 422.983L178.914 389.236Z" fill="#34496D"/>
<path d="M238.204 408.848L240.441 424.184L235.662 424.881L234.097 414.159L229.401 414.844L228.728 410.231L238.204 408.848ZM240.15 422.189C241.156 423.457 242.441 424.317 244.006 424.767C245.568 425.19 247.408 425.29 249.525 425.066C250.78 424.939 252.282 424.762 254.032 424.536C255.805 424.277 257.646 423.994 259.553 423.688C261.489 423.377 263.367 423.061 265.187 422.738C267.032 422.384 268.678 422.031 270.126 421.678C269.985 422.067 269.848 422.582 269.715 423.224C269.606 423.834 269.499 424.458 269.394 425.096C269.317 425.73 269.271 426.288 269.256 426.771C267.994 427.04 266.534 427.31 264.875 427.58C263.217 427.85 261.501 428.115 259.728 428.374C257.959 428.66 256.241 428.911 254.574 429.125C252.912 429.368 251.439 429.554 250.157 429.685C247.647 429.938 245.469 429.845 243.622 429.407C241.776 428.969 240.112 428.038 238.631 426.613C237.948 427.561 237.209 428.504 236.412 429.441C235.646 430.401 234.802 431.401 233.878 432.442L230.788 427.842C231.59 427.13 232.423 426.344 233.287 425.482C234.18 424.616 235.027 423.729 235.828 422.82L240.15 422.189ZM227.1 397.904L230.469 394.527C231.362 395.019 232.294 395.59 233.266 396.241C234.238 396.891 235.141 397.552 235.974 398.223C236.808 398.893 237.497 399.543 238.041 400.171L234.388 403.93C233.899 403.293 233.249 402.624 232.439 401.922C231.653 401.188 230.786 400.479 229.837 399.797C228.885 399.087 227.972 398.456 227.1 397.904ZM249.084 396.438L253.905 395.734L257.864 422.873L253.043 423.576L249.084 396.438ZM246.973 411.644L247.216 413.306L260.681 411.342L260.439 409.679L246.973 411.644ZM246.324 407.197L246.561 408.817L260.026 406.853L259.79 405.232L246.324 407.197ZM241.637 404.74L263.83 401.502L265.618 413.762L243.425 417L241.637 404.74ZM237.986 393.685L264.211 389.859L265.042 395.553L260.428 396.226L260.113 394.065L242.866 396.581L243.181 398.742L238.817 399.378L237.986 393.685ZM240.084 399.915L263.773 396.459L264.27 399.867L240.581 403.323L240.084 399.915ZM241.274 418.842L268.33 414.895L268.858 418.51L241.802 422.457L241.274 418.842Z" fill="#34496D"/>
<path d="M297.832 391.988L303.899 390.792C303.973 392.548 304.002 394.372 303.984 396.263C303.992 398.142 303.963 400.008 303.897 401.86C303.83 403.712 303.734 405.501 303.609 407.226C303.497 408.914 303.339 410.469 303.135 411.891L298.25 412.538C298.393 411.052 298.496 409.445 298.559 407.718C298.61 405.966 298.618 404.187 298.582 402.382C298.561 400.54 298.482 398.74 298.345 396.982C298.222 395.187 298.051 393.522 297.832 391.988ZM293.214 413.162C294.957 412.261 296.928 411.253 299.127 410.14C301.315 409.001 303.63 407.803 306.072 406.546C308.502 405.264 310.97 403.964 313.476 402.646C316.008 401.316 318.501 400.005 320.956 398.711L322.891 403.277C319.734 404.989 316.54 406.719 313.307 408.466C310.074 410.214 306.969 411.871 303.992 413.438C301.053 415.019 298.399 416.451 296.032 417.735L293.214 413.162ZM309.113 396.938L312.595 392.868C314.349 393.721 316.15 394.675 317.999 395.731C319.847 396.787 321.595 397.858 323.242 398.946C324.903 399.997 326.327 401.003 327.514 401.964L323.919 406.689C322.833 405.68 321.455 404.607 319.785 403.468C318.102 402.304 316.332 401.15 314.473 400.007C312.615 398.863 310.828 397.84 309.113 396.938ZM287.729 380.795L293.62 379.82C293.738 382.204 293.674 384.626 293.427 387.087C293.206 389.536 292.849 391.893 292.357 394.159C291.854 396.399 291.237 398.429 290.508 400.249C290.038 400.035 289.43 399.855 288.682 399.708C287.948 399.524 287.195 399.364 286.422 399.229C285.663 399.056 285.022 398.937 284.497 398.872C285.335 397.218 286.014 395.39 286.536 393.388C287.083 391.375 287.457 389.287 287.657 387.126C287.858 384.964 287.882 382.854 287.729 380.795ZM303.117 373.745C304.194 374.603 305.391 375.452 306.707 376.292C308.048 377.12 309.447 377.906 310.904 378.65C312.374 379.357 313.821 380.013 315.244 380.618C316.655 381.198 317.981 381.693 319.222 382.105C318.957 382.599 318.695 383.199 318.437 383.905C318.166 384.586 317.92 385.287 317.699 386.007C317.466 386.702 317.31 387.33 317.231 387.891C315.869 387.351 314.428 386.708 312.909 385.962C311.378 385.191 309.823 384.369 308.245 383.496C306.681 382.586 305.135 381.652 303.61 380.693C302.11 379.723 300.698 378.742 299.374 377.751L303.117 373.745Z" fill="#34496D"/>
<path d="M326.824 361.463L350.259 340.729L353.431 344.315L329.996 365.049L326.824 361.463ZM332.287 367.004L350.909 350.528L353.831 353.831L335.209 370.307L332.287 367.004ZM348.906 341.926L352.807 338.475L373.039 361.344C373.985 362.413 374.602 363.363 374.888 364.194C375.214 365.027 375.19 365.909 374.815 366.838C374.462 367.748 373.809 368.7 372.856 369.693C371.902 370.686 370.703 371.803 369.259 373.044C368.883 372.703 368.409 372.337 367.838 371.945C367.286 371.574 366.703 371.211 366.09 370.856C365.477 370.502 364.918 370.229 364.414 370.04C365.059 369.544 365.695 369.037 366.322 368.52C366.93 367.982 367.475 367.5 367.958 367.073C368.421 366.625 368.758 366.309 368.968 366.123C369.262 365.863 369.414 365.635 369.426 365.437C369.439 365.239 369.315 364.994 369.055 364.7L348.906 341.926ZM338.873 371.215L342.553 367.959L354.047 380.95L350.367 384.206L338.873 371.215ZM342.144 368.321L354.223 357.634L363.686 368.329L351.606 379.016L348.74 375.776L357.107 368.373L353.378 364.158L345.011 371.561L342.144 368.321Z" fill="#34496D"/>
<defs>
<filter id="filter0_i_1503_373" x="50" y="50" width="340" height="341.7" filterUnits="userSpaceOnUse" color-interpolation-filters="sRGB">
<feFlood flood-opacity="0" result="BackgroundImageFix"/>
<feBlend mode="normal" in="SourceGraphic" in2="BackgroundImageFix" result="shape"/>
<feColorMatrix in="SourceAlpha" type="matrix" values="0 0 0 0 0 0 0 0 0 0 0 0 0 0 0 0 0 0 127 0" result="hardAlpha"/>
<feOffset dy="1.7"/>
<feGaussianBlur stdDeviation="7.5"/>
<feComposite in2="hardAlpha" operator="arithmetic" k2="-1" k3="1"/>
<feColorMatrix type="matrix" values="0 0 0 0 0 0 0 0 0 0 0 0 0 0 0 0 0 0 0.8 0"/>
<feBlend mode="normal" in2="shape" result="effect1_innerShadow_1503_373"/>
</filter>
<clipPath id="clip0_1503_373">
<rect width="177" height="168" fill="white" transform="translate(131 82)"/>
</clipPath>
</defs>
</svg>
